<svg width="20" height="20" viewBox="0 0 20 20" fill="none" xmlns="http://www.w3.org/2000/svg">
<g id="FB Icon 1" clip-path="url(#clip0_64_742)">
<g id="Ebene_1">
<path id="Vector" d="M17.3653 0H2.63512C1.17987 0 0 1.18833 0 2.65401V17.3464C0 18.8121 1.17987 20.0004 2.63512 20.0004H9.9009V12.461H7.08814V9.22028H9.90362V6.6276C9.90362 6.6276 9.90943 3.48529 12.2769 2.79073C12.2769 2.79073 13.7364 2.33486 16.5721 2.66924V5.41232H14.9171C14.9171 5.41232 13.6674 5.42091 13.4087 6.67096V9.22301H16.46L15.96 12.461H13.4087L13.3672 20.0004H17.3649C18.8201 20.0004 20 18.8121 20 17.3464V2.65401C20 1.18833 18.8201 0 17.3649 0H17.3653Z" fill="white"/>
</g>
</g>
<defs>
<clipPath id="clip0_64_742">
<rect width="20" height="20" fill="white"/>
</clipPath>
</defs>
</svg>
