<svg width="125" height="20" viewBox="0 0 125 20" fill="none" xmlns="http://www.w3.org/2000/svg">
<g id="&#195;&#150;CCV Logo 1" clip-path="url(#clip0_85_716)">
<g id="Ebene_1">
<g id="Group">
<path id="Vector" d="M109.09 19.6198H85.7544C86.4926 17.9812 87.1425 16.4998 87.8226 15.0316C89.385 11.6451 91.0937 8.25208 92.4517 4.85684C93.9065 1.21472 95.7466 0.382296 99.6483 0.305827C105.265 0.1944 110.736 -0.284079 116.067 0.242466C118.128 0.445656 120.057 2.37268 121.645 3.83871C126.397 8.22586 125.779 12.7332 121.834 16.3513C118.985 18.9665 115.554 19.9366 111.588 19.681C111.28 16.4299 112.021 14.2363 114.898 11.9532C117.648 9.77054 119.921 9.83609 122.788 10.6751C122.859 10.4566 122.93 10.2381 123.001 10.0196C122.258 9.69189 121.529 9.33139 120.771 9.04518C119.878 8.7109 118.961 8.44434 118.055 8.14721C118.253 8.01393 118.451 7.88066 118.647 7.7452C118.053 6.20489 117.485 4.64928 116.775 3.16359C116.742 3.09586 115.854 3.77098 114.868 4.27349C114.315 4.12492 113.764 3.97635 113.211 3.82778C113.179 4.35433 113.187 4.89398 113.127 5.40524C112.746 8.64972 112.369 9.73558 109.311 9.12601C104.723 8.21057 100.158 7.17495 95.5787 6.21581C95.1009 6.11531 94.5823 6.2027 94.083 6.2027C94.0012 6.41682 93.9173 6.63093 93.8355 6.84723C94.6662 7.24487 95.4668 7.72335 96.3319 8.02486C100.025 9.30735 103.75 10.5003 107.426 11.8308C107.93 12.0122 108.491 12.7419 108.564 13.2794C108.84 15.331 108.928 17.4087 109.096 19.6176L109.09 19.6198Z" fill="white"/>
<path id="Vector_2" d="M65.4042 14.47C65.6452 14.6994 65.8884 14.8764 66.0627 15.1058C66.5512 15.7525 67.0139 16.4211 67.4766 17.0721C62.2062 22.141 50.7291 20.2139 47.544 13.7993C45.8417 10.3712 46.8166 6.40358 50.0038 3.7927C54.6695 -0.0307623 61.935 -0.262355 67.6165 3.42347C66.9365 4.34547 66.265 5.25873 65.5311 6.25283C62.09 4.29522 58.5906 3.83421 54.9407 5.18444C52.2312 6.18728 50.7549 8.04003 50.7721 10.3865C50.7872 12.6151 52.2162 14.4919 54.8352 15.4444C58.4701 16.7685 62.006 16.4167 65.4042 14.4722V14.47Z" fill="white"/>
<path id="Vector_3" d="M46.8639 3.46056C46.2183 4.34542 45.5705 5.23028 44.8366 6.23749C41.7548 4.51147 38.5525 3.91064 35.1544 4.86323C31.9198 5.76993 30.0948 7.71881 30.0733 10.3057C30.0518 12.8619 31.6615 14.6994 34.9047 15.6913C38.2943 16.7269 41.5396 16.2724 44.7678 14.4197C45.4543 15.2958 46.1257 16.1523 46.9565 17.2119C42.5382 20.286 37.9026 20.5198 33.1099 18.9554C31.6637 18.4835 30.2455 17.6183 29.0898 16.6155C24.8738 12.9515 24.9987 7.41075 29.2512 3.80576C33.833 -0.0810605 41.8108 -0.275511 46.8639 3.46056Z" fill="white"/>
<path id="Vector_4" d="M3.86947 3.44092C4.61194 4.37166 5.25972 5.1866 5.99789 6.11079C5.71382 6.4844 5.41467 6.87767 5.11984 7.27094C3.29486 9.69174 3.78769 12.7352 6.29058 14.5137C9.46061 16.7662 15.2153 16.7772 18.3982 14.5333C21.2864 12.4971 21.4392 9.62838 18.7211 6.0802C19.3775 5.27181 20.064 4.42409 20.7419 3.58949C25.6551 6.45599 26.1027 12.851 21.7404 16.6286C16.9757 20.7558 8.60838 20.9961 3.61122 17.1508C-1.26757 13.3972 -1.22238 7.36926 3.86947 3.44092Z" fill="white"/>
<path id="Vector_5" d="M92.4043 0.552572C89.7465 6.21567 87.3082 11.8023 84.5212 17.2098C82.6102 20.9153 77.1309 20.9502 75.1359 17.1901C72.2887 11.8241 69.9128 6.20693 67.3174 0.657445C70.892 -0.181533 71.034 -0.113803 72.4049 2.85102C74.0922 6.4997 75.7084 10.1811 77.5226 13.7665C77.9595 14.6295 79.0571 15.6935 79.8447 15.6891C80.6302 15.6848 81.6998 14.6033 82.1388 13.7359C83.9208 10.2205 85.6876 6.6723 87.1102 3.00177C88.0958 0.458624 89.6001 -0.244893 92.4043 0.552572Z" fill="white"/>
<path id="Vector_6" d="M5.05953 0.533215C9.55094 0.161792 9.56386 0.159608 10.2202 4.41349C10.457 5.94506 10.6162 7.48974 10.8142 9.05408C9.01077 8.87929 7.37087 6.41043 5.05737 0.533215H5.05953Z" fill="white"/>
<path id="Vector_7" d="M19.7282 0.406513C17.7891 3.64226 16.8422 7.03094 14.462 9.51291C14.208 9.38838 13.9519 9.26384 13.698 9.13712C14.0122 6.57649 14.2834 4.00712 14.688 1.46179C14.7525 1.05978 15.3874 0.504831 15.8114 0.454579C16.9606 0.31475 18.1378 0.406513 19.726 0.406513H19.7282Z" fill="white"/>
</g>
</g>
</g>
<defs>
<clipPath id="clip0_85_716">
<rect width="125" height="20" fill="white"/>
</clipPath>
</defs>
</svg>
