<svg width="76" height="34" viewBox="0 0 76 34" fill="none" xmlns="http://www.w3.org/2000/svg">
<g id="AFB&#195;&#150; Logo White 1" clip-path="url(#clip0_85_678)">
<g id="Ebene_3">
<path id="Vector" d="M52.1435 8.42546L52.1208 9.79874C57.0339 9.43735 59.8346 9.67484 66.7075 10.8148C66.7137 10.8148 66.7385 10.8148 66.7446 10.7776C66.7508 10.7404 66.7014 10.7177 66.6746 10.7053C66.25 10.5009 59.6388 7.76463 52.1435 8.42753V8.42546Z" fill="white"/>
<path id="Vector_2" d="M75.8515 12.7231C74.4893 7.14939 58.697 -2.66597 41.7507 0.679471C30.9745 2.80651 22.0304 11.2589 17.9128 17.3199C17.2101 18.3525 16.769 19.1104 16.4888 19.6576C9.00171 23.7486 4.42456 27.2984 4.31946 27.3686C4.26794 27.4038 4.26381 27.5029 4.49051 27.3893C5.31279 26.999 8.53389 24.9897 11.1862 23.5276C15.8417 20.9607 22.2488 18.0964 26.9125 16.2605C32.4418 14.0839 35.8937 12.8738 35.8937 12.8738L35.9123 11.292C28.7137 13.5677 22.3251 16.5166 17.2101 19.2673C17.9066 18.3236 18.7846 17.1774 19.4832 16.3927C23.9284 11.3952 31.0013 5.21647 41.6146 3.02747C57.4543 -0.239492 73.6773 8.07661 74.8706 13.2765C75.6434 16.6385 72.1894 22.8027 66.5035 28.1534C66.4973 28.1596 66.4335 28.2195 66.4788 28.2711C66.5138 28.3124 66.588 28.2938 66.6663 28.236C66.6725 28.2298 66.6766 28.2277 66.6828 28.2215C73.0076 22.9969 76.8098 16.6405 75.8515 12.7231Z" fill="white"/>
<path id="Vector_3" d="M24.6002 21.5078C11.7282 26.1274 0.181234 33.7373 0.0287315 33.8343C-0.0227897 33.8674 -0.0289722 33.9685 0.197721 33.857C1.02618 33.4791 3.47241 32.1492 6.18243 30.7986C14.1703 26.811 20.3673 24.4919 24.5734 23.2797L24.6002 21.5099V21.5078Z" fill="white"/>
<path id="Vector_4" d="M39.5394 8.3843C38.9005 8.38017 38.3688 8.85927 38.3544 9.53662L38.3194 11.1185H38.3173L38.239 14.4949C38.8779 14.499 39.4096 14.0199 39.424 13.3426L39.4487 12.2233H39.4508L39.5415 8.3843H39.5394Z" fill="white"/>
<path id="Vector_5" d="M42.1195 7.85354C41.4806 7.84941 40.9489 8.32438 40.9345 8.99347L40.8995 10.5609H40.8974L40.8191 13.9042C41.458 13.9084 41.9897 13.4334 42.0041 12.7643L42.0267 11.6554H42.0288L42.1174 7.85354H42.1195Z" fill="white"/>
<path id="Vector_6" d="M44.6976 7.45315C44.0587 7.44902 43.527 7.91986 43.5126 8.58688L43.4776 10.144H43.4755L43.3972 13.4646C44.0361 13.4687 44.5678 12.9979 44.5822 12.3309L44.6049 11.2302H44.6069L44.6956 7.45522L44.6976 7.45315Z" fill="white"/>
<path id="Vector_7" d="M47.2737 7.13683C46.6348 7.1327 46.1031 7.60147 46.0887 8.2623L46.0557 9.80699L46.0516 9.94948L45.9753 13.1029C46.6142 13.107 47.1459 12.6382 47.1603 11.9774L47.183 10.885H47.1851L47.2737 7.13477V7.13683Z" fill="white"/>
<path id="Vector_8" d="M49.8498 6.84378C49.211 6.83965 48.6793 7.30429 48.6649 7.96099L48.6319 9.49535H48.6298L48.5515 12.7706C49.1904 12.7747 49.7221 12.3101 49.7365 11.6534L49.7592 10.5671H49.7612L49.8498 6.84378Z" fill="white"/>
<path id="Vector_9" d="M34.9396 25.3387C33.87 25.6237 32.8025 25.9272 31.735 26.2473C31.7494 25.5369 31.7659 24.8245 31.7803 24.1141C31.3022 24.2586 30.822 24.4053 30.3439 24.556C30.3274 25.2685 30.313 25.9789 30.2986 26.6913C29.2331 27.0279 28.1676 27.3831 27.1042 27.7548C27.1372 25.8178 27.1702 23.8807 27.2052 21.9437C27.2258 21.351 27.6978 20.7191 28.2851 20.5229C30.3047 19.7051 31.9287 19.2467 34.0308 18.7614C34.6037 18.6024 35.0632 18.9472 35.0612 19.5337C35.02 21.4687 34.9788 23.4037 34.9396 25.3387ZM31.3352 20.3701C31.2033 20.4114 31.0693 20.4506 30.9374 20.4919C30.6613 20.5766 30.4099 20.8988 30.4119 21.1734C30.3934 22.0056 30.3769 22.8399 30.3604 23.6722C30.8385 23.5214 31.3166 23.3748 31.7968 23.2302C31.8133 22.398 31.8318 21.5658 31.8483 20.7335C31.8483 20.4589 31.6134 20.2875 31.3372 20.3701H31.3352Z" fill="white"/>
<path id="Vector_10" d="M43.3643 17.4849C42.1422 17.6811 41.5301 17.7513 40.5862 18.0281C40.308 18.0859 40.0566 18.3833 40.0587 18.6579C40.0442 19.2134 40.0319 19.7669 40.0174 20.3224C40.9036 20.1324 41.7877 19.9527 42.6739 19.7855C42.6698 20.0622 42.6656 20.3389 42.6615 20.6156C41.7753 20.7829 40.8912 20.9605 40.0051 21.1525C39.9845 22.1562 39.9639 23.1619 39.9453 24.1655C38.8757 24.3968 37.8062 24.6467 36.7366 24.9131C36.7716 22.9801 36.8066 21.0472 36.8417 19.1143C36.8623 18.5237 37.3363 17.9393 37.9277 17.7988C39.7928 17.2784 41.392 16.9501 43.3952 16.6548C43.3849 16.9315 43.3746 17.2103 43.3663 17.487L43.3643 17.4849Z" fill="white"/>
<path id="Vector_11" d="M52.3598 17.7906C52.3392 18.3812 51.9806 18.8603 51.3933 18.9161C51.9765 18.8934 52.4361 19.3208 52.4278 19.8929C52.4175 20.3307 52.4072 20.7705 52.3969 21.2083C52.3949 21.7969 51.9023 22.3049 51.3315 22.3607C49.0645 22.5816 46.7914 22.8811 44.5183 23.261C44.5636 20.977 44.609 18.6931 44.6543 16.407C46.6946 16.0084 49.2109 15.6367 51.3459 15.517C51.9353 15.4591 52.3949 15.8866 52.3928 16.4731C52.3825 16.9109 52.3722 17.3508 52.3619 17.7886L52.3598 17.7906ZM48.708 19.6471C48.401 19.6864 48.0959 19.7256 47.7889 19.7669C47.7724 20.4938 47.7559 21.2207 47.7394 21.9476C48.0465 21.9063 48.3515 21.8671 48.6586 21.8279C48.9533 21.7907 49.1944 21.5388 49.2026 21.2434C49.2088 20.8635 49.2129 20.4814 49.2191 20.1014C49.2356 19.8227 49.0007 19.61 48.706 19.6471H48.708ZM48.6483 16.6507C48.3824 16.6837 48.1166 16.7188 47.8507 16.7539C47.8342 17.4809 47.8177 18.2078 47.8012 18.9347C48.0733 18.8975 48.3453 18.8624 48.6153 18.8294C48.8935 18.7942 49.1449 18.5217 49.1429 18.247C49.149 17.867 49.1532 17.4871 49.1593 17.105C49.1696 16.8097 48.9409 16.6135 48.6462 16.6507H48.6483Z" fill="white"/>
<path id="Vector_12" d="M61.8193 20.8491C61.8152 21.4397 61.3288 21.9023 60.7621 21.9023C58.862 21.9023 56.9557 21.9581 55.0453 22.0696C54.4579 22.1047 53.9984 21.669 54.019 21.0804C54.0458 19.4986 54.0746 17.9188 54.1014 16.3369C54.122 15.7484 54.594 15.2466 55.1813 15.2114C57.2051 15.0318 58.9362 14.9781 60.8981 15.0359C61.4648 15.0359 61.9203 15.5088 61.9182 16.0974C61.8852 17.6813 61.8523 19.2652 61.8193 20.8491ZM58.2211 15.9074C58.0892 15.9115 57.9573 15.9156 57.8254 15.9198C57.5492 15.928 57.2998 16.18 57.3019 16.4588C57.2751 17.8444 57.2504 19.2301 57.2236 20.6158C57.2133 20.9111 57.44 21.1259 57.7326 21.1176C57.8583 21.1135 57.9861 21.1093 58.1118 21.1073C58.4045 21.099 58.6435 20.8698 58.6538 20.5745C58.6806 19.1888 58.7074 17.8011 58.7321 16.4154C58.7321 16.1387 58.4993 15.9012 58.2231 15.9094L58.2211 15.9074Z" fill="white"/>
<g id="Group">
<path id="Vector_13" d="M60.7104 13.3878C59.9561 13.3672 59.1668 13.3754 58.427 13.3981V14.218C59.4224 14.1973 60.2591 14.2118 60.696 14.2242L60.7104 13.3899V13.3878Z" fill="white"/>
<path id="Vector_14" d="M57.6521 13.4043C56.9164 13.4291 56.09 13.4766 55.3481 13.553L55.3398 14.3708C56.3394 14.2758 57.1967 14.2365 57.6356 14.2159L57.6501 13.4043H57.6521Z" fill="white"/>
</g>
</g>
</g>
<defs>
<clipPath id="clip0_85_678">
<rect width="76" height="33.9087" fill="white"/>
</clipPath>
</defs>
</svg>
