<svg width="102" height="20" viewBox="0 0 102 20" fill="none" xmlns="http://www.w3.org/2000/svg">
<g id="Giants Logo Blue 1" clip-path="url(#clip0_64_829)">
<g id="Ebene_1">
<path id="Vector" d="M9.63319 12.425L11.3711 12.5387V15.5257C10.7484 15.7341 9.9795 15.8573 9.28053 15.8573C6.70384 15.8573 5.45203 13.8996 5.45203 9.87054C5.45203 7.29397 6.23997 4.22166 9.99539 4.22166C10.6562 4.22166 11.3203 4.28165 11.8223 4.38585C12.032 4.45216 12.086 4.5311 12.086 4.94159V6.84244L16.1114 6.58983V1.30092L15.9939 1.24092C14.507 0.486265 12.086 0 9.82382 0C7.07239 0 4.72764 0.770445 3.03738 2.22608C1.02305 3.9659 0 6.59615 0 10.0442C0 16.4477 3.2439 19.9747 9.13755 19.9747C11.8795 19.9747 14.5356 19.2517 16.2449 18.036L16.337 17.9728V13.047C16.337 12.6208 16.4514 12.5355 16.8295 12.4692L17.7636 12.3619V9.26429H9.63637V12.4282L9.63319 12.425Z" fill="#FAB900"/>
<path id="Vector_2" d="M18.3482 3.53035L19.886 3.64402V15.7091C19.886 16.3248 19.8097 16.3343 19.3999 16.4006L18.291 16.5048V19.6371H26.79V16.4448L25.2522 16.3311V4.20922C25.2522 3.65034 25.3285 3.63771 25.7383 3.57455L26.8471 3.47036V0.369629H18.3482V3.53351V3.53035Z" fill="#FAB900"/>
<path id="Vector_3" d="M35.775 11.3295L37.5765 5.43436L39.3271 11.3295H35.7782H35.775ZM40.509 0.369629H32.2452V3.55561L33.6813 3.69138L29.6971 15.7406C29.516 16.1764 29.3953 16.3595 28.9314 16.429L27.9973 16.5363V19.6339H35.8704V16.4385L34.5232 16.3595L35.0411 14.8186H40.0547L40.4042 15.889C40.4709 16.0911 40.4836 16.2301 40.4423 16.2995C40.3946 16.3753 40.258 16.4132 40.1627 16.4258L39.0825 16.53V19.6308H47.5814V16.4448L46.1263 16.2964L40.509 0.369629Z" fill="#FAB900"/>
<path id="Vector_4" d="M60.0802 3.53351L61.7038 3.64718V11.1085L55.3208 0.369629H48.8807V3.53351L50.3899 3.64718V15.8227C50.3899 16.3469 50.3168 16.3595 49.9324 16.429L48.7949 16.5332V19.6371H57.0079V16.4732L55.3844 16.3595V8.69928L62.0279 19.6371H66.6983V4.20922C66.6983 3.65665 66.8 3.63771 67.1558 3.57455L68.2932 3.47036V0.369629H60.0802V3.53351Z" fill="#FAB900"/>
<path id="Vector_5" d="M69.4944 6.33742L73.5199 6.59003V4.54708C73.5199 4.11766 73.6279 3.99767 74.0155 3.99767H75.423V15.7059C75.423 16.3153 75.3277 16.3753 74.8797 16.3974L73.3705 16.5269V19.6308H82.7813V16.4353L80.7575 16.3216V4.00083H82.022C82.4382 4.00083 82.5462 4.12081 82.5462 4.57866V6.59318L86.5717 6.34058V0.369629H69.4944V6.33742Z" fill="#FAB900"/>
<path id="Vector_6" d="M96.4938 7.74247C94.4986 7.11096 93.6248 6.71942 93.6248 5.59849C93.6248 4.30704 94.8099 4.11443 95.5153 4.11443C96.0967 4.11443 96.6718 4.17443 97.0467 4.27547C97.2595 4.33862 97.2913 4.38283 97.2913 4.80594V6.45103L101.317 6.19842V1.24105L101.196 1.18106C99.7091 0.457977 97.5423 0.0253906 95.4009 0.0253906C90.9084 0.0253906 88.1156 2.37777 88.1156 6.16053C88.1156 9.94329 90.9338 11.2474 93.6916 12.0052C95.474 12.4693 96.3795 12.9146 96.3795 14.0639C96.3795 15.5953 95.0863 15.9174 94.0029 15.9174C93.3929 15.9174 92.7797 15.8479 92.3286 15.7279C92.1252 15.6648 92.0839 15.6111 92.0839 15.1691V13.3535L87.9727 13.6061V18.7908L88.0997 18.8476C89.7487 19.5802 92.0267 20.0001 94.3429 20.0001C99.1372 20.0001 101.997 17.5909 101.997 13.5555C101.997 9.52018 99.0705 8.56028 96.4875 7.74247" fill="#FAB900"/>
</g>
</g>
<defs>
<clipPath id="clip0_64_829">
<rect width="102" height="20" fill="white"/>
</clipPath>
</defs>
</svg>
