<svg width="50" height="58" viewBox="0 0 50 58" fill="none" xmlns="http://www.w3.org/2000/svg">
<g id="Giants G Blue 1" clip-path="url(#clip0_37_710)">
<g id="Ebene_1">
<g id="Group">
<path id="Vector" d="M16.6213 17.8711C18.7403 13.7265 22.485 11.2551 28.2219 11.2646C30.1151 11.2678 32.0887 11.4384 33.6525 11.7782C34.7213 12.1163 34.8837 12.7894 34.8821 14.0504L34.8744 19.0088L45.2438 18.3546L45.2685 3.64369C41.4048 1.62114 34.6594 0.0125702 27.7486 -7.07489e-05C13.9238 -0.0237726 0.644992 7.09626 0 27.6363L16.6213 17.8711Z" fill="#FAB900"/>
<path id="Vector_2" d="M27.7826 27.4894L27.7687 35.6428L32.7879 35.9873L32.7708 45.9073C30.7957 46.6595 28.3255 47.0766 26.1044 47.0719C22.5283 47.0655 19.8586 45.7872 17.9824 43.3902L6.37259 50.2116C10.8411 55.4007 17.455 57.9858 25.6759 58C33.8226 58.0142 41.2331 55.7578 45.8455 52.4032L45.8702 38.1126C45.8733 36.5151 46.4502 36.0126 47.8485 35.7629L49.9892 35.5133L50.0031 27.5273L27.7857 27.4878L27.7826 27.4894Z" fill="#FAB900"/>
<path id="Vector_3" d="M2.0386 42.5859L14.875 35.0455C14.6183 33.3042 14.4852 31.3876 14.4636 29.3113L0.683655 37.4047C1.0193 39.2566 1.4694 40.9868 2.0386 42.5843V42.5859Z" fill="#FAB900"/>
</g>
</g>
</g>
<defs>
<clipPath id="clip0_37_710">
<rect width="50" height="58" fill="white"/>
</clipPath>
</defs>
</svg>
