<svg width="108" height="30" viewBox="0 0 108 30" fill="none" xmlns="http://www.w3.org/2000/svg">
<g clip-path="url(#clip0_406_2508)">
<path d="M4.04349 7.97809C4.04349 7.97809 5.82269 7.5619 6.33177 7.37616C6.77228 7.21622 7.13052 6.87571 7.30193 6.43888C7.31393 6.40964 7.32421 6.38041 7.3345 6.35289C7.52647 5.82148 7.73559 4.98738 7.93785 4.04149C7.93785 4.03805 7.95156 3.97442 7.95156 3.97442C8.22067 2.70694 8.48121 1.24512 8.68518 0.0154673C8.68518 0.00858814 8.68004 0.00170898 8.67318 0.00170898C3.97492 0.225282 0.215973 4.00366 0 8.71932C0 8.7262 0.00685627 8.73308 0.0137125 8.73136C1.2667 8.52154 2.76136 8.25498 4.04349 7.97809Z" fill="#62A731"/>
<path d="M14.2694 7.97809C14.2694 7.97809 12.4902 7.5619 11.9811 7.37616C11.5406 7.21622 11.1823 6.87571 11.0109 6.43888C10.9989 6.40964 10.9887 6.38041 10.9784 6.35289C10.7847 5.82148 10.5773 4.98738 10.375 4.04149C10.375 4.03805 10.3613 3.97442 10.3613 3.97442C10.0905 2.70178 9.82995 1.2348 9.62598 0.00170898C14.3362 0.220122 18.1072 4.00882 18.3146 8.73652C17.0582 8.5267 15.5584 8.25842 14.2711 7.97981L14.2694 7.97809Z" fill="#62A731"/>
<path d="M4.04349 10.3788C4.04349 10.3788 5.82269 10.795 6.33177 10.9808C6.77228 11.1407 7.13052 11.4812 7.30193 11.9181C7.31393 11.9473 7.32421 11.9765 7.3345 12.004C7.52647 12.5355 7.73559 13.3678 7.93785 14.3154C7.93785 14.3206 7.95156 14.3842 7.95156 14.3842C8.22067 15.6517 8.48121 17.1135 8.68518 18.3415C8.68518 18.3483 8.68004 18.3552 8.67318 18.3552C3.97492 18.1316 0.215973 14.3533 0 9.63761C0 9.62901 0.00685627 9.62385 0.0137125 9.62557C1.2667 9.83539 2.76136 10.102 4.04349 10.3788Z" fill="#62A731"/>
<path d="M14.2696 10.3789C14.2696 10.3789 12.4904 10.795 11.9813 10.9808C11.5408 11.1407 11.1826 11.4812 11.0112 11.9181C10.9992 11.9473 10.9889 11.9765 10.9786 12.0041C10.7849 12.5355 10.5775 13.3678 10.3753 14.3154C10.3753 14.3206 10.3616 14.3842 10.3616 14.3842C10.0924 15.6517 9.83362 17.1135 9.62793 18.3415C9.62793 18.3484 9.63307 18.3552 9.63993 18.3552C14.3382 18.1299 18.0971 14.3533 18.3131 9.6359C18.3131 9.6273 18.3063 9.62214 18.2994 9.62386C17.0464 9.83368 15.5517 10.1002 14.2696 10.3771V10.3789Z" fill="#62A731"/>
<path d="M73.4579 15.411H74.3441C74.6355 15.411 74.8737 15.172 74.8737 14.8796V4.41984C74.8737 4.12748 74.6355 3.88843 74.3441 3.88843H73.2488C73.038 3.88843 72.846 4.01397 72.7637 4.20831L69.1624 12.5269L65.5612 4.20831C65.4772 4.01397 65.2869 3.88843 65.0761 3.88843H63.9808C63.6894 3.88843 63.4512 4.12748 63.4512 4.41984V14.8779C63.4512 15.1702 63.6894 15.4093 63.9808 15.4093H64.867C65.1584 15.4093 65.3966 15.1702 65.3966 14.8779V8.64364L68.2506 15.0911C68.3346 15.2837 68.5248 15.4076 68.7356 15.4076H69.5944C69.8035 15.4076 69.9938 15.2837 70.0778 15.0911L72.9317 8.64364V14.8779C72.9317 15.1702 73.1699 15.4093 73.4613 15.4093L73.4579 15.411Z" fill="white"/>
<path d="M81.684 6.61768C78.9963 6.61768 77.1914 8.43893 77.1914 11.1493C77.1914 13.8597 78.9963 15.6758 81.684 15.6758C84.3716 15.6758 86.1766 13.8993 86.1766 11.1493C86.1766 8.39938 84.3716 6.61768 81.684 6.61768ZM81.684 13.7875C80.1516 13.7875 79.238 12.802 79.238 11.1493C79.238 9.4966 80.1533 8.51116 81.684 8.51116C83.2146 8.51116 84.13 9.47253 84.13 11.1493C84.13 12.8261 83.2386 13.7875 81.684 13.7875Z" fill="white"/>
<path d="M92.6214 6.61774H92.6179C91.7952 6.61774 91.1455 6.80348 90.3811 7.30221V3.86436C90.3811 3.53416 90.1137 3.26587 89.7846 3.26587H88.931C88.6019 3.26587 88.3345 3.53416 88.3345 3.86436V14.8865C88.3345 15.2167 88.6019 15.485 88.931 15.485H89.6989C89.9663 15.485 90.1942 15.3078 90.2679 15.0619C91.029 15.54 91.838 15.6638 92.4688 15.6638C94.9696 15.6638 96.586 13.8873 96.586 11.1373C96.586 9.76495 96.2552 8.67117 95.6038 7.88694C94.9165 7.058 93.8846 6.62118 92.6214 6.62118V6.61774ZM90.3811 12.3481V10.7796C90.3811 9.72368 90.9193 8.8741 91.7729 8.59894C92.0043 8.52498 92.2066 8.51295 92.4311 8.51295C93.4133 8.51295 94.5411 8.81219 94.5411 11.1391C94.5411 12.1245 94.2446 13.7772 92.2511 13.7772H91.7969C91.0136 13.7721 90.3811 13.134 90.3811 12.3481Z" fill="white"/>
<path d="M99.9183 3.27783C99.303 3.27783 98.8042 3.76453 98.8042 4.36302C98.8042 4.96151 99.3047 5.44649 99.9183 5.44649C100.532 5.44649 101.032 4.95979 101.032 4.36302C101.032 3.76625 100.532 3.27783 99.9183 3.27783Z" fill="white"/>
<path d="M99.9183 3.32251C99.303 3.32251 98.8042 3.80921 98.8042 4.4077C98.8042 5.00618 99.3047 5.49288 99.9183 5.49288C100.532 5.49288 101.032 5.00618 101.032 4.4077C101.032 3.80921 100.532 3.32251 99.9183 3.32251Z" fill="white"/>
<path d="M100.372 6.81543H99.5169C99.1878 6.81543 98.9204 7.08372 98.9204 7.41392V14.8847C98.9204 15.2149 99.1878 15.4832 99.5169 15.4832H100.372C100.701 15.4832 100.969 15.2149 100.969 14.8847V7.41392C100.969 7.08372 100.703 6.81543 100.372 6.81543Z" fill="white"/>
<path d="M107.823 13.8804C107.712 13.7686 107.561 13.7067 107.403 13.7067H107.402C106.807 13.7136 106.396 13.5657 106.135 13.2733C105.861 12.9621 105.722 12.4496 105.722 11.7496V3.86265C105.722 3.53245 105.456 3.26416 105.125 3.26416H104.272C103.943 3.26416 103.675 3.53245 103.675 3.86265V11.7479C103.675 12.9999 104.011 13.9698 104.675 14.632C105.292 15.2477 106.157 15.5607 107.249 15.5607C107.306 15.5607 107.364 15.5607 107.422 15.5572C107.744 15.5486 108 15.2838 108 14.9604V14.3035C108 14.1453 107.936 13.9922 107.825 13.8804H107.823Z" fill="white"/>
<path d="M33.3062 13.5776C32.3429 14.8399 30.8071 15.6035 28.7811 15.6035C25.2192 15.6035 23.0835 13.1201 23.0835 9.70807C23.0835 6.29601 25.1541 3.82983 28.7811 3.82983C30.6203 3.82983 32.0652 4.47647 33.0422 5.55478L32.4509 6.11027C31.5373 5.17299 30.3117 4.64845 28.7862 4.64845C25.8569 4.64845 24.0485 6.67093 24.0485 9.70807C24.0485 12.7452 25.8363 14.7883 28.7811 14.7883C30.3614 14.7883 31.5493 14.25 32.3635 13.2973V10.0847H28.7828V9.30392H33.3079V13.5776H33.3062Z" fill="white"/>
<path d="M40.9749 7.83002H40.7469C39.7253 7.83002 38.6472 8.30985 37.8707 9.50682V15.4074H36.9399V7.27453H37.7764L37.8141 8.71056C38.606 7.64257 39.7082 7.06816 40.8634 7.06128H40.9731V7.82831L40.9749 7.83002Z" fill="white"/>
<path d="M43.6057 7.86787C44.4439 7.40009 45.5409 7.05957 46.6191 7.05957C48.4034 7.05957 50.2186 8.05533 50.2186 10.0761V15.4091H49.3822L49.3479 14.1881C48.4668 15.1993 47.2876 15.6104 46.1031 15.6104C44.4611 15.6104 42.9355 14.7023 42.9355 12.943C42.9355 11.0529 44.6256 10.2584 46.4134 10.2584C47.4367 10.2584 48.4994 10.5181 49.2879 10.9721V10.0589C49.2776 8.52827 47.8515 7.74749 46.4665 7.74749C45.5238 7.74749 44.5519 8.06737 43.8611 8.45604L43.6075 7.86787H43.6057ZM49.2896 11.6119C48.568 11.1423 47.5515 10.8741 46.5625 10.8741C45.1124 10.8741 43.8114 11.4725 43.8114 12.8948C43.8114 14.2139 44.989 14.8966 46.3191 14.8966C47.4195 14.8966 48.484 14.5321 49.2896 13.5277V11.6136V11.6119Z" fill="white"/>
<path d="M54.1528 14.687H59.2453V15.4076H52.9443V14.9828L57.9254 7.99354H53.198V7.27295H59.1493V7.68914L54.1528 14.687Z" fill="white"/>
<path d="M31.664 23.4062H28.9678V28.3093H31.664V27.6042H29.7151V26.0598H31.6057V25.3547H29.7151V24.1113H31.664V23.4062ZM32.5005 25.2154V28.3093H33.2169V25.2154H32.5005ZM32.3976 23.9342C32.3976 24.199 32.5947 24.3968 32.8587 24.3968C33.1227 24.3968 33.3198 24.199 33.3198 23.9342C33.3198 23.6693 33.1227 23.4715 32.8587 23.4715C32.5947 23.4715 32.3976 23.6693 32.3976 23.9342ZM34.1185 28.3093H34.835V26.8234C34.835 25.8242 35.1641 25.7795 35.4881 25.7795C35.7589 25.7795 36.0537 25.8019 36.0537 26.5878V28.3076H36.7702V26.4107C36.7702 25.9326 36.6965 25.7193 36.58 25.5508C36.4857 25.4183 36.244 25.1329 35.6715 25.1329C35.4949 25.1329 35.1436 25.1552 34.835 25.4992V25.2137H34.1185V28.3076V28.3093ZM39.8418 27.2654C39.7767 27.3841 39.6807 27.5079 39.5556 27.6042C39.4082 27.7143 39.2625 27.759 39.0636 27.759C38.8871 27.759 38.6831 27.7297 38.5134 27.5595C38.3592 27.4047 38.2632 27.1553 38.2495 26.9335H40.4623V26.8458C40.4623 26.5224 40.4263 25.9498 40.0304 25.537C39.847 25.3461 39.5316 25.1329 39.0414 25.1329C38.6008 25.1329 38.2632 25.2945 38.0078 25.5508C37.6855 25.881 37.5175 26.3453 37.5175 26.8234C37.5175 27.3015 37.6787 27.7143 37.9718 28.0066C38.2649 28.3007 38.6026 28.4022 39.0122 28.4022C39.343 28.4022 39.6721 28.3282 39.9207 28.1666C40.1178 28.041 40.308 27.8364 40.44 27.6008L39.8401 27.262L39.8418 27.2654ZM38.3026 26.347C38.3386 26.1922 38.4191 26.0443 38.522 25.9498C38.618 25.8534 38.7791 25.7503 39.0276 25.7503C39.2625 25.7503 39.4167 25.838 39.511 25.9274C39.6207 26.0306 39.7013 26.1785 39.7304 26.347H38.3009H38.3026ZM46.3896 28.3093H47.1952L44.8795 23.119L42.4472 28.3093H43.2528L43.7876 27.1261H45.8771L46.3896 28.3093ZM44.0961 26.421L44.8503 24.7579L45.5754 26.421H44.0944H44.0961ZM48.3967 27.9499C48.719 28.3454 49.1526 28.4056 49.3206 28.4056C50.0542 28.4056 50.8153 27.7882 50.8153 26.7443C50.8153 25.7589 50.1279 25.1346 49.3138 25.1346C49.0052 25.1346 48.6607 25.2378 48.3967 25.5525V25.2154H47.6803V29.993H48.3967V27.9499ZM49.2246 25.7795C49.7457 25.7795 50.0834 26.2215 50.0834 26.7718C50.0834 27.3221 49.7457 27.7572 49.2246 27.7572C48.7704 27.7572 48.3522 27.4253 48.3522 26.7787C48.3522 26.1321 48.7704 25.7778 49.2246 25.7778V25.7795ZM52.2808 27.9499C52.6031 28.3454 53.0367 28.4056 53.2047 28.4056C53.9383 28.4056 54.6994 27.7882 54.6994 26.7443C54.6994 25.7589 54.012 25.1346 53.1978 25.1346C52.8893 25.1346 52.5448 25.2378 52.2808 25.5525V25.2154H51.5643V29.993H52.2808V27.9499ZM53.1087 25.7795C53.6298 25.7795 53.9675 26.2215 53.9675 26.7718C53.9675 27.3221 53.6298 27.7572 53.1087 27.7572C52.6545 27.7572 52.2362 27.4253 52.2362 26.7787C52.2362 26.1321 52.6545 25.7778 53.1087 25.7778V25.7795ZM59.3651 25.5748C59.072 25.193 58.676 25.1346 58.448 25.1346C57.6338 25.1346 56.9465 25.752 56.9465 26.7598C56.9465 27.6128 57.4882 28.4056 58.4412 28.4056C58.6606 28.4056 59.0497 28.354 59.3651 27.9877V28.311H60.0815V22.9522H59.3651V25.5766V25.5748ZM58.5372 25.7795C58.9914 25.7795 59.4096 26.1028 59.4096 26.7804C59.4096 27.458 58.9914 27.759 58.5372 27.759C58.0161 27.759 57.6801 27.3101 57.6801 26.7735C57.6801 26.237 58.0178 25.7812 58.5372 25.7812V25.7795ZM63.1531 27.2654C63.088 27.3841 62.992 27.5079 62.8669 27.6042C62.7212 27.7143 62.5738 27.759 62.375 27.759C62.1984 27.759 61.9944 27.7297 61.8247 27.5595C61.6705 27.4047 61.5745 27.1553 61.5608 26.9335H63.7736V26.8458C63.7736 26.5224 63.7376 25.9498 63.3417 25.537C63.1583 25.3461 62.8446 25.1329 62.3527 25.1329C61.9122 25.1329 61.5745 25.2945 61.3191 25.5508C60.9968 25.881 60.8289 26.3453 60.8289 26.8234C60.8289 27.3015 60.99 27.7143 61.2831 28.0066C61.5762 28.3007 61.9139 28.4022 62.3235 28.4022C62.6526 28.4022 62.9835 28.3282 63.232 28.1666C63.4291 28.041 63.6194 27.8364 63.7514 27.6008L63.1514 27.262L63.1531 27.2654ZM61.6139 26.347C61.6499 26.1922 61.7305 26.0443 61.8333 25.9498C61.9293 25.8534 62.0904 25.7503 62.339 25.7503C62.5738 25.7503 62.7281 25.838 62.8223 25.9274C62.932 26.0306 63.0126 26.1785 63.0417 26.347H61.6122H61.6139ZM64.5227 28.3093H65.2392V26.7065C65.2392 26.5001 65.2392 26.206 65.4363 25.9927C65.5751 25.8448 65.7294 25.8242 65.8837 25.8242C65.9574 25.8242 66.0894 25.8311 66.2505 25.9343L66.5436 25.2808C66.3465 25.1638 66.1545 25.1346 65.9796 25.1346C65.8185 25.1346 65.6797 25.1569 65.5391 25.2378C65.4363 25.2962 65.3197 25.3994 65.2392 25.494V25.2154H64.5227V28.3093ZM69.4952 23.4062H68.7496V28.3093H69.4952V26.0529H71.5915V28.3093H72.3388V23.4062H71.5915V25.3478H69.4952V23.4062ZM74.8671 25.1346C73.9364 25.1346 73.2182 25.8104 73.2182 26.7667C73.2182 27.7229 73.9364 28.4056 74.8671 28.4056C75.7978 28.4056 76.516 27.716 76.516 26.7667C76.516 25.8173 75.7995 25.1346 74.8671 25.1346ZM74.8671 27.759C74.3032 27.759 73.9501 27.3686 73.9501 26.7735C73.9501 26.0667 74.4129 25.7812 74.8671 25.7812C75.3213 25.7812 75.7841 26.0684 75.7841 26.7735C75.7841 27.3686 75.4327 27.759 74.8671 27.759ZM77.2634 22.9504V28.3093H77.9798V22.9504H77.2634ZM81.1474 25.5748C80.8543 25.193 80.4584 25.1346 80.2304 25.1346C79.4162 25.1346 78.7289 25.752 78.7289 26.7598C78.7289 27.6128 79.2705 28.4056 80.2236 28.4056C80.443 28.4056 80.8321 28.354 81.1474 27.9877V28.311H81.8639V22.9522H81.1474V25.5766V25.5748ZM80.3195 25.7795C80.7738 25.7795 81.192 26.1028 81.192 26.7804C81.192 27.458 80.7738 27.759 80.3195 27.759C79.7985 27.759 79.4608 27.3101 79.4608 26.7735C79.4608 26.237 79.7985 25.7812 80.3195 25.7812V25.7795ZM82.7741 25.2154V28.3093H83.4906V25.2154H82.7741ZM82.6712 23.9342C82.6712 24.199 82.8684 24.3968 83.1323 24.3968C83.3963 24.3968 83.5934 24.199 83.5934 23.9342C83.5934 23.6693 83.3963 23.4715 83.1323 23.4715C82.8684 23.4715 82.6712 23.6693 82.6712 23.9342ZM84.3939 28.3093H85.1104V26.8234C85.1104 25.8242 85.4395 25.7795 85.7634 25.7795C86.0342 25.7795 86.3274 25.8019 86.3274 26.5878V28.3076H87.0438V26.4107C87.0438 25.9326 86.9701 25.7193 86.8536 25.5508C86.7593 25.4183 86.5176 25.1329 85.9451 25.1329C85.7686 25.1329 85.4172 25.1552 85.1087 25.4992V25.2137H84.3922V28.3076L84.3939 28.3093ZM90.2114 25.5525C89.9475 25.236 89.6029 25.1346 89.2944 25.1346C88.9207 25.1346 88.5539 25.2446 88.2471 25.5611C88.0054 25.8036 87.7929 26.194 87.7929 26.7598C87.7929 27.274 87.9763 27.6936 88.254 27.9877C88.5471 28.2955 88.8762 28.4056 89.2721 28.4056C89.4778 28.4056 89.8806 28.3833 90.2114 27.9653V28.3695C90.2114 28.5982 90.2114 28.9215 89.9766 29.1486C89.8892 29.2363 89.7126 29.3549 89.4127 29.3549C89.1127 29.3549 88.943 29.238 88.8556 29.1417C88.7459 29.0247 88.6568 28.8252 88.6276 28.6567H87.9317C87.9831 29.0316 88.158 29.391 88.386 29.6198C88.6791 29.9139 89.039 30.0016 89.3972 30.0016C89.9029 30.0016 90.2251 29.833 90.424 29.6714C90.8491 29.3119 90.9296 28.7891 90.9296 28.0617V25.2171H90.2131V25.5542L90.2114 25.5525ZM89.3835 25.7795C89.5892 25.7795 89.7863 25.8242 89.9629 25.9996C90.1463 26.1768 90.256 26.433 90.256 26.7787C90.256 27.0143 90.1977 27.2791 89.9852 27.5062C89.8086 27.6902 89.6115 27.7555 89.3835 27.7555C89.1556 27.7555 88.9653 27.6678 88.8333 27.5492C88.6431 27.3806 88.5248 27.0779 88.5248 26.7701C88.5248 26.4399 88.6568 26.1527 88.8402 25.9824C89.0013 25.8276 89.1847 25.7761 89.3818 25.7761L89.3835 25.7795ZM96.1575 26.4485H97.3745C97.3454 26.7271 97.2357 27.0143 96.9649 27.2791C96.6495 27.5887 96.2981 27.7125 95.873 27.7125C95.4033 27.7125 94.9868 27.5801 94.6492 27.219C94.3269 26.8733 94.1435 26.3797 94.1435 25.8878C94.1435 25.3581 94.3406 24.8353 94.6629 24.512C94.9045 24.2695 95.3159 24.0047 95.9518 24.0047C96.2518 24.0047 96.5449 24.0563 96.8157 24.2179C97.0506 24.3503 97.27 24.5705 97.4174 24.7769L98.0104 24.3572C97.8716 24.1371 97.6213 23.8499 97.2185 23.6229C96.838 23.4096 96.3838 23.315 95.9433 23.315C95.1891 23.315 94.5223 23.6229 94.1041 24.0494C93.7013 24.4535 93.3945 25.1157 93.3945 25.881C93.3945 26.5861 93.643 27.2413 94.1195 27.7332C94.5669 28.1958 95.0725 28.4005 95.7822 28.4005C96.3392 28.4005 96.9409 28.268 97.4448 27.7762C97.9213 27.3135 98.1698 26.6291 98.1698 25.7915V25.7554H96.1541V26.4451L96.1575 26.4485ZM98.9806 28.3093H99.6971V26.7065C99.6971 26.5001 99.6971 26.206 99.8942 25.9927C100.033 25.8448 100.187 25.8242 100.342 25.8242C100.415 25.8242 100.547 25.8311 100.708 25.9343L101.001 25.2808C100.804 25.1638 100.612 25.1346 100.438 25.1346C100.276 25.1346 100.138 25.1569 99.997 25.2378C99.8942 25.2962 99.7776 25.3994 99.6971 25.494V25.2154H98.9806V28.3093ZM103.516 25.5748C103.223 25.193 102.827 25.1346 102.599 25.1346C101.785 25.1346 101.097 25.752 101.097 26.7598C101.097 27.6128 101.639 28.4056 102.592 28.4056C102.812 28.4056 103.201 28.354 103.516 27.9877V28.311H104.233V25.2171H103.516V25.5766V25.5748ZM102.686 25.7795C103.141 25.7795 103.559 26.1028 103.559 26.7804C103.559 27.458 103.141 27.759 102.686 27.759C102.165 27.759 101.829 27.3101 101.829 26.7735C101.829 26.237 102.167 25.7812 102.686 25.7812V25.7795ZM108 25.2154H105.026V25.8758H106.601L104.601 28.3093H107.846V27.6489H106.013L107.998 25.2154H108Z" fill="white"/>
</g>
<defs>
<clipPath id="clip0_406_2508">
<rect width="108" height="30" fill="white"/>
</clipPath>
</defs>
</svg>
