<svg width="20" height="20" viewBox="0 0 20 20" fill="none" xmlns="http://www.w3.org/2000/svg">
<g id="Insta-Icon-Blue 1" clip-path="url(#clip0_64_736)">
<g id="Ebene_1">
<g id="Group">
<path id="Vector" d="M10.0109 5.01758C7.25975 5.01758 5.02954 7.24743 5.02954 9.99816C5.02954 12.7489 7.25975 14.9787 10.0109 14.9787C12.7621 14.9787 14.9923 12.7489 14.9923 9.99816C14.9923 7.24743 12.7621 5.01758 10.0109 5.01758ZM10.0055 13.4525C8.09461 13.4525 6.54569 11.9038 6.54569 9.99322C6.54569 8.08262 8.09461 6.53393 10.0055 6.53393C11.9164 6.53393 13.4653 8.08262 13.4653 9.99322C13.4653 11.9038 11.9164 13.4525 10.0055 13.4525Z" fill="white"/>
<path id="Vector_2" d="M15.5611 5.64609C16.2067 5.64609 16.7301 5.12272 16.7301 4.4771C16.7301 3.83148 16.2067 3.30811 15.5611 3.30811C14.9155 3.30811 14.3921 3.83148 14.3921 4.4771C14.3921 5.12272 14.9155 5.64609 15.5611 5.64609Z" fill="white"/>
<path id="Vector_3" d="M15.1501 0H4.88159C0.616531 0.442289 -7.62604e-05 4.47677 -7.62604e-05 4.47677V14.6593C-7.62604e-05 14.6593 -0.142439 19.3651 4.86542 19.9969C4.92829 20.0049 15.134 19.9969 15.134 19.9969C15.134 19.9969 19.4466 19.7494 19.9995 15.2004V5.0174C19.4947 0.179161 15.1501 0 15.1501 0ZM18.2637 15.2632C18.2637 15.2632 18.1375 17.9381 15.1672 18.2748H4.71991C4.71991 18.2748 2.07654 17.9902 1.72445 15.4029V15.4038L1.724 15.3997C1.71816 15.3548 1.71232 15.3095 1.70783 15.2632L1.724 15.3997C1.724 15.3997 1.724 15.402 1.72445 15.4029L1.70783 4.75427C1.70783 4.75427 1.91846 2.14274 4.84611 1.70046H15.099C15.099 1.70046 17.9687 1.86345 18.2637 4.75427C18.5426 7.48614 18.2637 15.2632 18.2637 15.2632Z" fill="white"/>
</g>
</g>
</g>
<defs>
<clipPath id="clip0_64_736">
<rect width="20" height="20" fill="white"/>
</clipPath>
</defs>
</svg>
