<svg width="30" height="30" viewBox="0 0 30 30" fill="none" xmlns="http://www.w3.org/2000/svg">
<g clip-path="url(#clip0_406_2214)">
<path d="M15.016 7.52612C10.8893 7.52612 7.54395 10.8709 7.54395 14.997C7.54395 19.1231 10.8893 22.4679 15.016 22.4679C19.1427 22.4679 22.488 19.1231 22.488 14.997C22.488 10.8709 19.1427 7.52612 15.016 7.52612ZM15.0079 20.1785C12.1416 20.1785 9.81816 17.8555 9.81816 14.9896C9.81816 12.1237 12.1416 9.80066 15.0079 9.80066C17.8743 9.80066 20.1976 12.1237 20.1976 14.9896C20.1976 17.8555 17.8743 20.1785 15.0079 20.1785Z" fill="#003867"/>
<path d="M23.3414 8.4689C24.3098 8.4689 25.0949 7.68383 25.0949 6.71541C25.0949 5.74698 24.3098 4.96191 23.3414 4.96191C22.373 4.96191 21.5879 5.74698 21.5879 6.71541C21.5879 7.68383 22.373 8.4689 23.3414 8.4689Z" fill="#003867"/>
<path d="M22.725 0H7.32214C0.924553 0.663434 -0.000358531 6.71516 -0.000358531 6.71516V21.989C-0.000358531 21.989 -0.213903 29.0476 7.29789 29.9953C7.3922 30.0074 22.7007 29.9953 22.7007 29.9953C22.7007 29.9953 29.1697 29.6242 29.999 22.8006V7.5261C29.2418 0.268741 22.725 0 22.725 0ZM27.3953 22.8949C27.3953 22.8949 27.206 26.9071 22.7506 27.4123H7.07963C7.07963 27.4123 3.11457 26.9852 2.58643 23.1043V23.1057L2.58576 23.0996C2.577 23.0323 2.56824 22.9642 2.5615 22.8949L2.58576 23.0996C2.58576 23.0996 2.58576 23.103 2.58643 23.1043L2.5615 7.13141C2.5615 7.13141 2.87744 3.21412 7.26892 2.55068H22.6482C22.6482 2.55068 26.9528 2.79518 27.3953 7.13141C27.8137 11.2292 27.3953 22.8949 27.3953 22.8949Z" fill="#003867"/>
</g>
<defs>
<clipPath id="clip0_406_2214">
<rect width="30" height="30" fill="white"/>
</clipPath>
</defs>
</svg>
