<svg width="43" height="49" viewBox="0 0 43 49" fill="none" xmlns="http://www.w3.org/2000/svg">
<g clip-path="url(#clip0_406_753)">
<path d="M14.2934 15.0971C16.1157 11.5958 19.3359 9.50805 24.2693 9.51606C25.8974 9.51873 27.5946 9.6629 28.9393 9.94989C29.8585 10.2355 29.9981 10.8042 29.9968 11.8694L29.9901 16.0582L38.9072 15.5055L38.9285 3.07809C35.6059 1.36948 29.8052 0.0106027 23.8623 -7.60848e-05C11.9737 -0.0200988 0.554659 5.99473 0 23.3464L14.2934 15.0971Z" fill="#FAB900"/>
<path d="M23.8919 23.2224L23.88 30.1102L28.1962 30.4012L28.1816 38.7814C26.483 39.4168 24.3588 39.7692 22.4488 39.7652C19.3735 39.7598 17.0778 38.6799 15.4643 36.655L5.48047 42.4175C9.32317 46.8011 15.0108 48.985 22.0803 48.997C29.086 49.009 35.4586 47.1028 39.425 44.2689L39.4463 32.1966C39.449 30.847 39.9451 30.4225 41.1475 30.2116L42.9884 30.0007L43.0004 23.2544L23.8946 23.221L23.8919 23.2224Z" fill="#FAB900"/>
<path d="M1.75315 35.9762L12.7925 29.6059C12.5717 28.1348 12.4573 26.5156 12.4386 24.7615L0.587891 31.599C0.876544 33.1635 1.26363 34.6253 1.75315 35.9749V35.9762Z" fill="#FAB900"/>
</g>
<defs>
<clipPath id="clip0_406_753">
<rect width="43" height="49" fill="white"/>
</clipPath>
</defs>
</svg>
