<svg xmlns="http://www.w3.org/2000/svg" width="100" height="20" viewBox="0 0 100 20" fill="none">
<g clip-path="url(#clip0_47_427)">
<path d="M9.44431 12.0799L11.1481 12.1904V15.0945C10.5376 15.2971 9.78383 15.4168 9.09855 15.4168C6.57239 15.4168 5.34513 13.5135 5.34513 9.59636C5.34513 7.09136 6.11762 4.10439 9.7994 4.10439C10.4473 4.10439 11.0983 4.16272 11.5905 4.26402C11.796 4.32849 11.849 4.40524 11.849 4.80432V6.65237L15.7955 6.40678V1.26478L15.6803 1.20645C14.2225 0.472757 11.849 0 9.6312 0C6.93371 0 4.63494 0.749044 2.97782 2.16425C1.00299 3.85573 0 6.41292 0 9.7652C0 15.9909 3.18029 19.4199 8.95838 19.4199C11.6465 19.4199 14.2506 18.7169 15.9264 17.535L16.0167 17.4736V12.6846C16.0167 12.2702 16.1288 12.1873 16.4995 12.1228L17.4153 12.0185V9.00695H9.44742V12.0829L9.44431 12.0799Z" fill="#FAB900"/>
<path d="M18.4714 3.43209L19.979 3.54261V15.2725C19.979 15.8711 19.9042 15.8803 19.5024 15.9448L18.4153 16.0461V19.0914H26.7476V15.9878L25.24 15.8773V4.09211C25.24 3.54875 25.3147 3.53647 25.7166 3.47507L26.8036 3.37376V0.359169H18.4714V3.43516V3.43209Z" fill="#FAB900"/>
<path d="M35.4289 11.0146L37.1951 5.28321L38.9114 11.0146H35.432H35.4289ZM40.0701 0.359169H31.9683V3.45665L33.3762 3.58865L29.4702 15.3032C29.2926 15.7268 29.1743 15.9049 28.7195 15.9724L27.8037 16.0768V19.0883H35.5224V15.9816L34.2017 15.9049L34.7094 14.4068H39.6247L39.9673 15.4475C40.0327 15.644 40.0452 15.779 40.0047 15.8466C39.958 15.9203 39.824 15.9571 39.7306 15.9694L38.6715 16.0707V19.0853H47.0038V15.9878L45.5772 15.8435L40.0701 0.359169Z" fill="#FAB900"/>
<path d="M59.0677 3.43516L60.6594 3.54568V10.7997L54.4016 0.359169H48.0878V3.43516L49.5673 3.54568V15.383C49.5673 15.8926 49.4957 15.9049 49.1188 15.9724L48.0037 16.0737V19.0914H56.0556V16.0154L54.4639 15.9049V8.45744L60.9771 19.0914H65.556V4.09211C65.556 3.55489 65.6557 3.53647 66.0045 3.47507L67.1197 3.37376V0.359169H59.0677V3.43516Z" fill="#FAB900"/>
<path d="M68.1196 6.16119L72.0662 6.40678V4.42058C72.0662 4.00308 72.1721 3.88643 72.5521 3.88643H73.932V15.2694C73.932 15.8619 73.8385 15.9203 73.3993 15.9417L71.9198 16.0676V19.0853H81.146V15.9786L79.1619 15.8681V3.8895H80.4016C80.8096 3.8895 80.9155 4.00615 80.9155 4.45128V6.40985L84.8621 6.16426V0.359169H68.1196V6.16119Z" fill="#FAB900"/>
<path d="M94.2164 7.52728C92.2603 6.91331 91.4037 6.53265 91.4037 5.44285C91.4037 4.18728 92.5655 4.00002 93.257 4.00002C93.827 4.00002 94.3908 4.05834 94.7584 4.15658C94.9671 4.21798 94.9982 4.26095 94.9982 4.67232V6.27171L98.9448 6.02612V1.20645L98.8264 1.14812C97.3687 0.445129 95.2443 0.024559 93.1449 0.024559C88.7404 0.024559 86.0025 2.3116 86.0025 5.98928C86.0025 9.66696 88.7654 10.9348 91.4691 11.6716C93.2165 12.1228 94.1043 12.5557 94.1043 13.6731C94.1043 15.162 92.8365 15.4751 91.7743 15.4751C91.1763 15.4751 90.5751 15.4076 90.1328 15.2909C89.9334 15.2295 89.8929 15.1773 89.8929 14.7476V12.9824L85.8623 13.228V18.2687L85.9869 18.3239C87.6035 19.0362 89.8369 19.4444 92.1076 19.4444C96.808 19.4444 99.6114 17.1021 99.6114 13.1789C99.6114 9.2556 96.7426 8.32237 94.2102 7.52728" fill="#FAB900"/>
</g>
<defs>
<clipPath id="clip0_47_427">
<rect width="100" height="19.4444" fill="white"/>
</clipPath>
</defs>
</svg>