<svg width="135" height="36" viewBox="0 0 135 36" fill="none" xmlns="http://www.w3.org/2000/svg">
<g id="Principal Logo" clip-path="url(#clip0_151_479)">
<g id="New_Layer">
<g id="Group">
<path id="Vector" fill-rule="evenodd" clip-rule="evenodd" d="M69.7537 0.942025C65.2189 2.55698 63.1207 5.51773 63.0531 10.3626C62.9177 15.8803 66.2341 19.514 71.7841 19.985C74.4238 20.2542 75.5067 19.985 77.3341 18.7065C78.6201 17.899 79.7707 16.6878 79.9737 16.1495C80.1091 15.6112 79.7707 15.8131 79.1616 16.6205C76.2512 20.456 69.2799 19.8504 67.114 15.4766C65.625 12.5831 65.5573 8.14203 66.911 4.97941C68.9415 0.0672587 75.9128 -0.33648 78.8231 4.30651L80.1768 6.39249L79.9737 3.76819C79.7707 1.48034 79.5676 1.0766 78.0786 1.00931C77.1311 0.942025 75.5067 0.740156 74.3561 0.470997C73.2055 0.201838 71.2427 0.403707 69.7537 0.942025Z" fill="#080405"/>
<path id="Vector_2" fill-rule="evenodd" clip-rule="evenodd" d="M110.634 1.48037C110.363 2.35514 108.942 6.32523 107.521 10.4299C106.099 14.4673 104.475 18.3701 103.933 18.9757C102.986 20.1196 103.054 20.1869 105.219 20.1196C106.505 20.1196 107.115 19.9178 106.708 19.7159C105.626 19.3121 105.626 18.0336 106.641 14.7364C107.385 12.1794 107.521 12.1121 110.499 11.9776L113.612 11.9103L110.837 11.5065L108.062 11.1028L109.551 6.72897C110.499 4.03738 111.243 2.75888 111.514 3.36449C111.717 3.9028 112.935 7.53645 114.289 11.372C115.981 16.6206 116.455 18.6393 115.846 19.3122C115.304 19.985 115.71 20.1869 118.011 20.1869C120.786 20.1869 120.854 20.1869 119.501 19.043C118.688 18.3701 116.726 13.929 114.966 8.88224C113.206 4.03738 111.649 0 111.514 0C111.311 0 110.972 0.672897 110.634 1.48037Z" fill="#080405"/>
<path id="Vector_3" fill-rule="evenodd" clip-rule="evenodd" d="M0.10819 1.21129C0.785017 1.68231 0.920382 3.90287 0.785017 10.6318L0.581969 19.3795L2.74782 19.6487C4.71062 19.9178 4.84598 19.7832 3.96611 18.8412C3.35696 18.1683 2.95086 16.3515 2.95086 14.2655V10.8337L6.13195 10.901C8.63622 10.901 9.51609 10.6318 10.5313 9.42063C12.088 7.46923 12.088 4.57577 10.4636 2.62437C9.38073 1.27858 8.43317 1.00942 4.23684 0.807547C1.12343 0.672968 -0.433272 0.807547 0.10819 1.21129ZM7.68866 2.69166C9.17768 4.17203 9.44841 6.72904 8.36548 8.81502C7.82402 9.68979 6.94415 10.0935 5.31976 10.0935H2.95086V6.19072C2.95086 4.03745 3.15391 2.01876 3.42464 1.81689C4.30452 0.942127 6.335 1.34587 7.68866 2.69166Z" fill="#080405"/>
<path id="Vector_4" fill-rule="evenodd" clip-rule="evenodd" d="M15.1339 1.95136C15.4723 2.69154 15.8107 6.32519 15.8107 10.0934C15.8107 13.8616 15.4723 17.4953 15.1339 18.2355C14.5247 19.3794 14.6601 19.514 16.2845 19.514H18.1796L17.9766 15.1401C17.7735 11.2373 17.8412 10.7663 18.9918 10.7663C19.7363 10.8336 21.3607 12.5158 23.1881 15.1401C25.4893 18.6392 26.4369 19.514 27.8582 19.514C29.2796 19.514 29.4826 19.3794 28.6028 18.6392C27.3168 17.6299 22.3083 10.7663 22.6467 10.5644C22.782 10.4299 23.7296 9.82425 24.8125 9.21865C26.2339 8.27659 26.64 7.5364 26.64 5.71958C26.64 2.22052 24.2034 0.672852 18.7211 0.672852C14.6601 0.672852 14.4571 0.740141 15.1339 1.95136ZM22.7144 2.48967C24.4741 4.03734 24.3387 7.73827 22.4436 9.01678C21.6314 9.62238 20.2101 10.0934 19.3979 10.0934C17.9766 10.0934 17.8412 9.82425 17.8412 6.19061C17.8412 4.03734 18.0442 2.01865 18.315 1.81678C19.1272 1.0093 21.4284 1.34575 22.7144 2.48967Z" fill="#080405"/>
<path id="Vector_5" fill-rule="evenodd" clip-rule="evenodd" d="M33.9496 9.62243C34.1527 17.428 34.085 18.572 33.0021 19.3122C31.9192 20.0523 32.1222 20.1869 34.3557 20.1869C36.5893 20.1869 36.86 20.0523 36.1155 19.2449C35.574 18.5047 35.371 15.6112 35.574 9.55514C35.7094 2.28785 35.6417 0.942056 34.7618 0.874766C33.882 0.807476 33.7466 2.08598 33.9496 9.62243Z" fill="#080405"/>
<path id="Vector_6" fill-rule="evenodd" clip-rule="evenodd" d="M40.1765 1.34575C40.1765 1.61491 40.6503 2.01865 41.1918 2.2878C42.0039 2.55696 42.207 4.17192 42.207 10.6317C42.207 15.8803 41.9363 18.8411 41.3948 19.3794C40.7857 19.985 41.1918 20.1869 43.2222 20.1869C45.5235 20.1869 45.7265 20.0523 44.7113 19.3121C43.696 18.6392 43.5606 17.4953 43.696 11.6411L43.8991 4.77752L50.6673 12.5831L57.4356 20.3214L57.6387 11.3719C57.7063 6.19061 58.1124 2.08594 58.5862 1.54762C59.1277 0.874721 58.7893 0.672852 56.6911 0.672852C54.9765 0.672852 54.6155 1.03173 55.6082 1.74949C56.9618 2.69154 57.0972 3.29715 57.0972 8.81491C57.0972 12.1121 56.8265 14.8037 56.4881 14.8037C56.1496 14.8037 53.1716 11.7084 49.8551 7.87285C45.185 2.62425 43.3576 1.0093 41.9363 0.94201C40.9887 0.874721 40.1765 1.07659 40.1765 1.34575Z" fill="#080405"/>
<path id="Vector_7" fill-rule="evenodd" clip-rule="evenodd" d="M83.3579 1.14391C83.9671 1.34578 84.1701 3.90279 84.1701 10.4299C84.1701 16.957 83.9671 19.514 83.3579 19.7159C82.8842 19.9177 83.6964 20.1196 85.1854 20.1196C86.8774 20.1196 87.5543 19.985 87.0128 19.5813C86.336 19.1776 86.2006 16.8897 86.336 10.0262L86.539 1.00934L84.5085 0.874756C83.4256 0.874756 82.8842 0.942046 83.3579 1.14391Z" fill="#080405"/>
<path id="Vector_8" fill-rule="evenodd" clip-rule="evenodd" d="M91.8183 1.41304C92.8336 2.01864 92.969 3.16257 92.969 10.2953C92.969 15.813 92.6982 18.8411 92.1568 19.3794C91.5476 19.985 92.0214 20.1869 94.3903 20.1869C96.6915 20.1196 97.0976 19.985 96.2177 19.4467C95.2025 18.9084 95.0671 17.6299 95.0671 10.4299V2.01864H97.0299C99.1958 2.01864 101.091 4.03734 101.091 6.39248C101.091 8.34388 99.3311 10.6317 97.5037 10.9682C96.4885 11.17 96.6915 11.3046 98.2482 11.3719C100.956 11.4392 103.798 8.94948 103.798 6.45977C103.798 5.51771 103.121 3.97005 102.309 3.02799C100.956 1.48033 100.143 1.21117 95.6763 1.0093C92.0214 0.807429 90.9385 0.942008 91.8183 1.41304Z" fill="#080405"/>
<path id="Vector_9" fill-rule="evenodd" clip-rule="evenodd" d="M124.712 9.42052C124.847 15.813 124.712 18.5046 124.035 19.2448C123.291 20.1196 123.832 20.2542 128.502 20.0523C133.443 19.8504 133.782 19.7158 134.391 18.1682L135 16.4859L133.579 17.9663C132.022 19.6486 128.299 20.0523 126.946 18.7065C126.404 18.1682 126.133 15.2747 126.133 10.0934C126.133 4.9121 126.404 2.01865 126.946 1.48033C127.555 0.874721 127.419 0.672852 126.133 0.672852H124.441L124.712 9.42052Z" fill="#080405"/>
<path id="Vector_10" fill-rule="evenodd" clip-rule="evenodd" d="M40.6502 29.4057C40.921 30.0786 41.3271 30.7514 41.5978 30.9533C41.8685 31.1552 42.4777 32.3664 43.0191 33.6449L44.0344 36L45.1173 33.8468C46.471 31.2898 46.6063 29.8767 45.3203 32.2318L44.3728 33.9141L42.9514 31.0879C41.5301 28.329 39.7704 27.0505 40.6502 29.4057Z" fill="#080405"/>
<path id="Vector_11" fill-rule="evenodd" clip-rule="evenodd" d="M46.8093 28.9346C46.4032 30.2804 47.08 35.6636 47.6891 35.6636C48.0276 35.6636 48.2983 33.9813 48.2983 31.9626C48.2983 28.7327 47.4861 26.9832 46.8093 28.9346Z" fill="#080405"/>
<path id="Vector_12" fill-rule="evenodd" clip-rule="evenodd" d="M55.5405 29.2711C55.2698 29.8094 55.4051 30.2805 55.7436 30.2805C56.082 30.2805 56.7588 31.4917 57.1649 32.972C57.6387 34.4524 58.3832 35.6636 58.857 35.6636C59.3984 35.6636 59.1277 34.5197 57.9771 32.0973C55.9466 27.858 56.0143 27.9926 55.5405 29.2711Z" fill="#080405"/>
<path id="Vector_13" fill-rule="evenodd" clip-rule="evenodd" d="M66.6403 29.5403C65.8281 30.3477 65.219 31.3571 65.219 31.8281C65.219 33.2412 67.2495 35.6636 68.4678 35.6636C69.3476 35.6636 69.28 35.4617 68.0617 34.587C66.4373 33.4431 66.0989 31.0206 67.3848 29.7421C68.4001 28.7328 71.7165 28.6655 72.1903 29.6075C72.3934 30.0113 72.461 29.944 72.3934 29.473C72.1226 27.9926 68.1294 28.0599 66.6403 29.5403Z" fill="#080405"/>
<path id="Vector_14" fill-rule="evenodd" clip-rule="evenodd" d="M75.3037 30.4823C76.0482 31.6935 76.9281 33.443 77.2665 34.3178C77.6726 35.3944 78.3494 35.058 79.297 33.3084L80.7183 30.6169L80.786 33.1066C80.786 37.0767 82.0043 36.1346 82.275 31.9627C82.5457 27.4542 81.5982 27.1851 79.6354 31.0879L78.2817 33.9813L76.7927 31.0879C75.9805 29.5402 75.0329 28.2617 74.6269 28.2617C74.2208 28.2617 74.5592 29.2711 75.3037 30.4823Z" fill="#080405"/>
<path id="Vector_15" fill-rule="evenodd" clip-rule="evenodd" d="M84.3733 31.8953C84.3733 35.2598 84.5087 35.6635 85.7946 35.6635C88.1635 35.6635 88.7727 34.7887 88.705 31.6261C88.5696 28.7327 88.4343 28.5981 86.4715 28.3962L84.3733 28.1943V31.8953ZM87.5544 29.9439C87.5544 30.4822 87.1483 30.9532 86.7422 30.9532C86.2007 31.0205 86.4038 31.4242 87.1483 31.9626C88.5696 33.0392 88.1635 34.9906 86.5391 34.9906C85.7946 34.9906 85.5239 34.2504 85.5239 31.9626C85.5239 29.6747 85.7946 28.9345 86.5391 28.9345C87.0806 28.9345 87.5544 29.4055 87.5544 29.9439Z" fill="#080405"/>
<path id="Vector_16" fill-rule="evenodd" clip-rule="evenodd" d="M90.6001 31.9627C90.6001 34.2505 90.8708 35.6636 91.3446 35.6636C91.8184 35.6636 91.9538 34.9907 91.7507 33.9813C91.5477 32.9047 91.7507 32.2991 92.2922 32.2991C92.969 32.2991 92.969 32.0972 92.2922 31.2898C91.8184 30.7514 91.6153 29.8094 91.8861 29.2711C92.0891 28.7327 91.8861 28.2617 91.4123 28.2617C90.8708 28.2617 90.6001 29.4729 90.6001 31.9627Z" fill="#080405"/>
<path id="Vector_17" fill-rule="evenodd" clip-rule="evenodd" d="M96.0146 31.9627C96.0146 33.9813 96.3531 35.6636 96.6915 35.6636C97.0976 35.6636 97.3683 33.9813 97.3683 31.9627C97.3683 29.944 97.0976 28.2617 96.6915 28.2617C96.3531 28.2617 96.0146 29.944 96.0146 31.9627Z" fill="#080405"/>
<path id="Vector_18" fill-rule="evenodd" clip-rule="evenodd" d="M53.51 33.3083C52.5624 35.327 52.4947 35.6634 53.3746 35.6634C53.9161 35.6634 54.3222 35.4616 54.2545 35.1251C54.1868 34.856 54.3898 33.9812 54.6606 33.1064C55.5405 30.6167 54.7283 30.7513 53.51 33.3083Z" fill="#080405"/>
<path id="Vector_19" fill-rule="evenodd" clip-rule="evenodd" d="M74.5593 33.645C74.3562 34.7889 74.4916 35.6637 74.83 35.6637C75.1007 35.6637 75.3715 34.7216 75.3715 33.645C75.3715 31.0207 74.9654 31.0207 74.5593 33.645Z" fill="#080405"/>
<path id="Vector_20" fill-rule="evenodd" clip-rule="evenodd" d="M71.6489 33.5775C71.8519 33.9813 71.4458 34.5869 70.8367 34.9906C69.6861 35.6635 69.7538 35.7308 70.9721 35.5289C72.3934 35.3271 73.3409 32.9719 71.9873 32.9719C71.5812 32.9719 71.3781 33.2411 71.6489 33.5775Z" fill="#080405"/>
<path id="Vector_21" fill-rule="evenodd" clip-rule="evenodd" d="M40.5148 34.9908C40.3118 35.3272 40.4472 35.6637 40.7856 35.6637C41.1917 35.6637 41.5301 35.3272 41.5301 34.9908C41.5301 34.587 41.3947 34.3179 41.2593 34.3179C41.0563 34.3179 40.7179 34.587 40.5148 34.9908Z" fill="#080405"/>
</g>
</g>
</g>
<defs>
<clipPath id="clip0_151_479">
<rect width="135" height="36" fill="white"/>
</clipPath>
</defs>
</svg>
