<svg width="130" height="66" viewBox="0 0 130 66" fill="none" xmlns="http://www.w3.org/2000/svg">
<g id="Antenne Logo" clip-path="url(#clip0_151_455)">
<g id="Ebene_1">
<path id="Vector" d="M6.00434 0C6.00434 0 0 0 0 6.44406V59.5559C0 59.5559 0 66 6.00434 66H123.996C123.996 66 130 66 130 59.5559V6.44406C130 6.44406 130 0 123.996 0H6.00434Z" fill="#FFED00"/>
</g>
<g id="Ebene_2">
<g id="Group">
<path id="Vector_2" d="M116.016 40.8148C115.755 42.3529 114.273 42.3458 113.899 42.3529L10.139 44.3965C10.139 44.3965 9.46167 44.3965 9.46167 43.7627V40.8576C9.46167 40.3805 9.91323 40.1242 10.6258 40.1242L115.889 37.0552C116.481 37.0267 116.623 37.3044 116.531 37.8242L116.016 40.8148Z" fill="#E30613"/>
<path id="Vector_3" d="M35.2642 18.9692C34.8973 18.9977 27.6582 19.5602 27.5877 19.5673C26.6493 19.6385 26.2259 20.2651 26.1342 20.9273L23.439 36.7277C23.439 36.7277 26.2683 36.6423 26.2824 36.6423C26.8186 36.6209 27.2137 36.094 27.3125 35.4389L29.2457 24.0817L33.0487 23.8182C33.6696 23.7898 34.3329 24.4235 34.22 25.0501C34.2059 25.1427 32.2797 36.4714 32.2797 36.4714L36.0403 36.3361C36.0403 36.3361 38.2064 23.5833 38.2276 23.4266C38.5521 21.5397 39.046 18.6701 35.2571 18.9621" fill="#E30613"/>
<path id="Vector_4" d="M77.5062 15.6723C77.5062 15.6723 67.9952 16.4271 67.9811 16.4271C67.0497 16.4983 66.9721 16.9611 66.8239 17.8085C66.8475 17.6281 65.8338 23.5429 63.783 35.5528L67.0074 35.4602C67.6494 35.4317 68.2351 34.9119 68.348 34.1999L70.5987 21.0768L74.564 20.7848C75.3048 20.7492 76.5819 21.0412 76.2644 22.8996C76.2644 22.9708 74.1477 35.2466 74.1477 35.2466L78.8326 35.1113C81.9442 16.9825 81.3656 20.3434 81.3726 20.2864C81.542 19.3465 82.2264 15.302 77.5062 15.6723Z" fill="#E30613"/>
<path id="Vector_5" d="M95.8862 14.2269C95.8862 14.2269 85.8249 15.0173 85.8178 15.0173C85.1193 15.0743 84.5831 15.7293 84.4702 16.477C84.3926 16.7049 81.5774 33.3455 81.2881 35.0259C81.2881 35.0259 84.3926 34.9405 84.4278 34.9405C85.7896 34.9405 85.9448 34.0291 86.0648 33.2885L88.386 19.7595L92.2031 19.489C93.3744 19.4035 94.9972 19.4178 94.5527 22.031L92.3795 34.7055L97.3397 34.5631C97.3397 34.5631 99.9996 19.0617 100.021 18.9193C100.183 17.9438 100.875 13.8424 95.9003 14.234" fill="#E30613"/>
<path id="Vector_6" d="M18.1331 32.7401L14.0055 32.9822C13.6104 33.0036 13.2576 32.8612 13.3705 32.2132L13.688 30.4117L18.5846 30.1483L18.1331 32.7401ZM20.2991 20.1368C19.9958 20.1653 12.7002 20.7278 12.6932 20.7278C12.1922 20.7634 11.8465 21.2832 11.7407 21.917L11.1409 25.406C11.1409 25.406 18.4082 24.8791 18.4082 24.872C18.6481 24.8577 19.5089 24.7509 19.2761 26.1109C19.2761 26.1537 19.2337 26.3602 19.142 26.8942C19.142 26.8942 11.7759 27.3214 11.7618 27.3214C10.8023 27.3784 10.7599 27.6205 10.5765 28.6957C10.5765 28.6957 9.66631 34.0076 9.53225 34.7766C9.30647 36.0868 10.5694 37.0908 11.7901 37.0552C11.8042 37.0552 20.2074 36.8059 20.2074 36.8059C20.6943 36.7703 21.1952 36.2149 21.3152 35.6239C21.3152 35.6239 23.2837 24.1528 23.2978 24.0317C23.8693 20.6993 23.2484 19.8947 20.3062 20.1297" fill="#E30613"/>
<path id="Vector_7" d="M58.7594 24.6157L53.1219 24.9433L53.5735 22.3087L58.336 21.9598C58.336 21.9598 59.2321 21.8957 59.0416 22.9851C59.0204 23.0919 58.7594 24.6157 58.7594 24.6157ZM61.2006 16.9398C60.0788 17.0253 51.4991 17.7231 51.4568 17.716C50.8571 17.7658 50.2715 18.3853 50.1656 19.076C50.1656 19.076 47.7949 32.8186 47.6326 33.7514C47.4139 35.503 48.183 35.9943 50.208 35.9302C50.215 35.9302 60.1211 35.6454 60.1352 35.6383C61.2077 35.6027 61.3558 34.7269 61.4899 33.9578C61.504 33.8653 62.0967 30.2552 62.0967 30.2552L52.113 30.6753C52.113 30.6753 52.4587 28.7528 52.501 28.5107C52.6774 28.5035 61.631 28.0692 61.631 28.0692C62.2025 28.0051 62.6259 27.3643 62.7388 26.7092C62.7529 26.6095 63.7618 20.7422 63.79 20.5855C63.9947 19.3964 64.4603 16.6835 61.2077 16.9398" fill="#E30613"/>
<path id="Vector_8" d="M114.139 21.3901L107.147 21.8173L107.74 18.3567L114.076 17.9082C114.428 17.8868 114.718 18.1716 114.718 18.5419C114.718 18.606 114.704 18.6629 114.689 18.727L114.139 21.3901ZM117.702 12.5322C117.702 12.5322 106.66 13.408 104.924 13.5362C104.924 13.5362 104.917 13.5362 104.91 13.5362C104.162 13.5931 103.245 14.3337 103.118 15.1098C103.118 15.1098 100.451 30.6539 100.423 30.839C99.8867 33.9649 102.37 34.4135 103.203 34.3779C103.273 34.3779 115.882 34.0147 115.903 34.0147C116.884 33.9791 117.314 32.9467 117.491 32.256L118.196 27.9053L105.983 28.418C105.983 28.418 106.399 26.1608 106.448 25.876C106.667 25.8618 117.378 25.3562 117.385 25.3562C118.097 25.285 118.831 24.0674 119.008 23.3553C119.015 23.334 119.022 23.3197 119.022 23.3055C119.022 23.3055 120.193 16.5054 120.221 16.3488C120.39 15.359 120.92 12.2758 117.702 12.5322Z" fill="#E30613"/>
<path id="Vector_9" d="M46.5672 18.0933L47.3575 13.4792C47.5974 13.1802 47.809 12.817 47.8866 12.4111C48.1477 11.0725 47.4492 9.74807 46.1298 9.49174C44.8174 9.2354 43.5121 10.1397 43.2511 11.4784C43.1241 12.1192 43.0959 12.7316 43.4134 13.2442L42.5314 18.4066L40.8098 18.5348L39.9632 23.2913C39.9632 23.2913 40.8381 23.2343 41.72 23.1702L39.4763 36.2648C39.4763 36.2648 42.4467 36.1794 42.5667 36.1723C43.1241 36.1509 43.5474 35.6454 43.6744 35.0045C43.6744 35.0045 45.7347 22.9851 45.7558 22.8783C46.3132 22.8427 46.6731 22.8142 46.6731 22.8071C47.2446 22.7644 47.6609 22.4582 47.7808 21.796C47.7808 21.796 47.7808 21.7817 47.7879 21.7746L48.4793 17.9438L46.5813 18.0933H46.5672Z" fill="#E30613"/>
</g>
<g id="Group_2">
<path id="Vector_10" d="M13.8715 50.1853C13.7728 49.5302 13.4976 49.2953 13.046 49.2953C12.6156 49.2953 12.2417 49.6014 12.2417 50.0144C12.2417 50.5556 12.7356 50.8048 13.7375 51.232C15.7483 52.0936 16.2563 52.8199 16.2563 54.0233C16.2563 55.7892 15.0428 56.8216 13.0672 56.8216C11.0916 56.8216 9.77222 55.782 9.77222 53.8239V53.6245H12.0935C12.1076 54.3793 12.4745 54.8706 13.0601 54.8706C13.5399 54.8706 13.935 54.4861 13.935 53.9948C13.935 53.2685 12.919 52.9481 12.0935 52.6134C10.5977 52.0082 9.92039 51.2178 9.92039 50.0358C9.92039 48.4835 11.4232 47.3442 13.1095 47.3442C13.7163 47.3442 14.2455 47.4795 14.7253 47.7287C15.6989 48.2343 16.1717 48.9606 16.1858 50.1853H13.8786H13.8715Z" fill="#0B1213"/>
<path id="Vector_11" d="M21.8868 56.6436V49.5658H20.0806V47.5151H26.0073V49.5658H24.2152V56.6436H21.8798H21.8868Z" fill="#0B1213"/>
<path id="Vector_12" d="M30.3677 56.6436V47.5151H35.4407V49.5658H32.5973V50.9828H35.3489V53.0335H32.5973V54.6H35.4407V56.6507H30.3677V56.6436Z" fill="#0B1213"/>
<path id="Vector_13" d="M40.302 56.6436V47.5151H42.6374V56.6436H40.302Z" fill="#0B1213"/>
<path id="Vector_14" d="M47.7104 56.6436V47.5151H52.7834V49.5658H49.94V50.9828H52.6917V53.0335H49.94V54.6H52.7834V56.6507H47.7104V56.6436Z" fill="#0B1213"/>
<path id="Vector_15" d="M62.0261 56.6436L59.9165 53.6957H59.8882V56.6436H57.6516V47.5151H60.6432C61.5957 47.5151 62.3224 47.6362 62.8022 47.8498C63.79 48.2913 64.4815 49.3665 64.4815 50.6624C64.4815 52.1079 63.6136 53.2899 62.2095 53.5391L64.6931 56.6507H62.0261V56.6436ZM60.749 52.1079C61.6733 52.1079 62.2448 51.6735 62.2448 50.7977C62.2448 50.0073 61.6522 49.5658 60.7773 49.5658H59.8882V52.1079H60.7561H60.749Z" fill="#0B1213"/>
<path id="Vector_16" d="M76.6315 56.6436L76.702 49.8079L76.6809 49.7866L74.7265 56.6436H73.1813L71.2057 49.7225L71.2763 56.6436H69.1313V47.5151H72.13L73.9433 53.5248H73.9645L75.7566 47.5151H78.7693V56.6436H76.6174H76.6315Z" fill="#0B1213"/>
<path id="Vector_17" d="M89.7408 56.6436L89.2963 55.3263H86.1212L85.6415 56.6436H83.1367L86.8056 47.5151H88.6472L92.2808 56.6436H89.7478H89.7408ZM87.744 50.3705L87.7088 50.3562L86.7704 53.475H88.6824L87.744 50.3705Z" fill="#0B1213"/>
<path id="Vector_18" d="M101.001 56.6436L98.8918 53.6957H98.8636V56.6436H96.627V47.5151H99.6185C100.571 47.5151 101.298 47.6362 101.778 47.8498C102.765 48.2913 103.457 49.3665 103.457 50.6624C103.457 52.1079 102.589 53.2899 101.185 53.5391L103.668 56.6507H101.001V56.6436ZM99.7314 52.1079C100.656 52.1079 101.227 51.6735 101.227 50.7977C101.227 50.0073 100.635 49.5658 99.7597 49.5658H98.8706V52.1079H99.7385H99.7314Z" fill="#0B1213"/>
<path id="Vector_19" d="M113.215 56.6436L110.717 52.6989H110.689V56.6436H108.354V47.5151H110.689V51.6237H110.717L113.3 47.5151H115.748L112.721 52.0651L115.945 56.6436H113.215Z" fill="#0B1213"/>
</g>
</g>
</g>
<defs>
<clipPath id="clip0_151_455">
<rect width="130" height="66" fill="white"/>
</clipPath>
</defs>
</svg>
