<svg width="158" height="90" viewBox="0 0 158 90" fill="none" xmlns="http://www.w3.org/2000/svg">
<g id="Thalheim Logo 2" clip-path="url(#clip0_151_386)">
<g id="ARTWORK">
<g id="Group">
<path id="Vector" d="M84.3025 54.2709C82.8091 54.2709 81.3263 53.9244 80.0182 53.271C79.6157 53.0329 79.2688 52.808 78.9458 52.5964L78.8293 52.5197L78.7101 52.5884C78.305 52.8239 77.8734 53.054 77.455 53.2763C76.1363 53.935 74.7567 54.2709 73.3586 54.2709C71.4918 54.2709 69.6674 53.562 67.9356 52.1599L66.9744 51.3742C66.4978 50.98 66.2251 50.7578 65.6584 50.3451C64.8402 49.7499 63.8525 49.0515 62.6424 48.2182C62.4067 48.0595 62.1287 47.8796 61.8295 47.6838C60.5161 46.8346 58.885 45.7791 57.9661 44.5173C57.3942 43.7316 57.0261 42.4697 57.0261 41.3004C57.0261 40.3613 57.2909 39.3878 57.7914 38.491C58.3289 37.5968 59.1789 36.8217 60.3175 36.1921C60.4843 35.9778 60.5664 35.8297 60.6432 35.6762C60.855 35.3059 61.0245 34.9382 61.1595 34.581C61.2363 34.3773 61.2761 34.1154 61.2761 33.8006V33.4647L60.9662 33.5467C60.3281 33.8059 59.6211 33.9408 58.8585 33.9408C57.7066 33.9408 56.7004 33.6393 55.8637 33.044C55.0772 32.4859 54.5026 31.7822 54.1478 30.9515C53.8883 30.3536 53.7162 29.7902 53.6235 29.224C53.5388 28.6976 53.5441 28.0945 53.642 27.5283C53.748 26.904 53.9095 26.3829 54.0498 25.9226L54.1504 25.5945C54.5185 24.5469 54.9051 23.3327 55.3155 21.9227C55.7233 20.5259 56.1099 19.0683 56.4674 17.5895C56.8513 16.1636 57.0791 15.0419 57.32 13.6954C57.4312 13.0711 57.6431 12.2775 58.2971 11.6584C59.0015 10.9944 59.9759 10.677 60.7571 10.423C61.0589 10.3251 61.2469 10.2643 61.3952 10.2008C62.1684 9.86483 62.4464 9.62145 62.6 9.44685C62.7457 9.28019 63.0978 8.81724 63.4209 8.28287C63.7572 7.72204 64.1756 6.94693 64.6231 6.04748C65.3459 4.76181 66.2886 3.65073 67.504 2.66398C68.7406 1.59523 70.3082 0.830704 72.167 0.383627C73.1282 0.129666 74.2324 0.00268555 75.4531 0.00268555C76.4938 0.00268555 77.6271 0.0979209 78.8213 0.283101C80.0844 0.100566 81.1541 0.0106218 82.1604 0.0106218C83.3652 0.0106218 84.4455 0.137602 85.4597 0.399499C87.7687 0.99472 89.0397 1.60317 90.316 2.72218C91.5102 3.6957 92.4291 4.82265 93.0566 6.07658C93.5068 6.97338 93.9093 7.72468 94.2482 8.28816C94.4971 8.74581 94.7672 9.12676 95.04 9.41775C95.453 9.85689 96.1441 10.1849 96.348 10.2537L96.6976 10.3542C97.063 10.4548 97.4787 10.5685 97.8997 10.804C98.2546 10.9442 98.6703 11.1875 99.0383 11.4627C99.7083 11.9627 100.158 12.7325 100.341 13.6875C100.558 14.8356 100.842 16.0498 101.231 17.5048C101.414 18.1582 101.594 18.8275 101.768 19.4889C101.999 20.3592 102.211 21.1529 102.438 21.928C103.431 25.1527 104.035 27.277 104.101 27.7638C104.305 29.2875 103.77 30.5282 103.431 31.134C102.957 31.9832 102.491 32.5335 101.824 33.0335C100.998 33.6472 100.039 33.9461 98.898 33.9461C98.3419 33.9435 97.5131 33.88 96.7399 33.5969L96.4407 33.4858L96.4354 33.8033C96.4301 34.171 96.4672 34.4699 96.5413 34.6921C96.732 35.2503 97.1106 35.8773 97.2642 36.1207C98.4664 36.8164 99.3031 37.5677 99.8354 38.4381C100.45 39.438 100.725 40.3216 100.725 41.3057C100.725 43.0279 100.288 44.2527 99.4223 44.9458C99.086 45.213 98.1619 45.9114 97.2351 46.6098C96.4063 47.2367 95.5748 47.8637 95.1776 48.1759C94.8705 48.414 94.3038 48.8372 93.6233 49.3452C92.4344 50.2314 90.8906 51.3795 89.8182 52.2392C87.9832 53.7048 86.4368 54.2789 84.3052 54.2789L84.3025 54.2709Z" fill="white"/>
<path id="Vector_2" d="M101.752 28.0123C101.715 27.6949 101.596 27.4912 101.252 26.2981C100.955 25.2743 100.59 24.0416 100.166 22.5945C99.7426 21.1475 99.3216 19.6713 98.9006 18.1661C98.4795 16.6 98.175 15.2138 97.9976 14.0101C97.9976 13.7694 97.8811 13.5525 97.6084 13.3249C97.3754 13.1318 97.0179 12.9678 96.6048 12.8408C96.2712 12.7377 95.2676 12.4837 94.5606 12.0208C94.1978 11.78 93.8033 11.4784 93.3849 11.116C92.9639 10.6954 92.5693 10.1531 92.2092 9.49173C91.8465 8.89122 91.4254 8.10552 90.9435 7.14259C90.4616 6.17965 89.736 5.30402 88.7722 4.52097C87.8083 3.67708 86.5109 3.07657 84.8824 2.71415C83.3148 2.29353 81.3288 2.29353 78.8557 2.71415C76.3825 2.29353 74.3303 2.29353 72.7654 2.71415C71.2561 3.07922 70.0221 3.67973 69.0556 4.52097C68.0918 5.30402 67.3345 6.17965 66.7943 7.14259C66.3124 8.10552 65.8913 8.88857 65.5286 9.49173C65.1684 10.1531 64.7766 10.6954 64.3529 11.116C63.9319 11.4784 63.5373 11.78 63.1772 12.0208C62.7535 12.2615 62.4967 12.3488 61.9538 12.5128C61.4878 12.653 61.1436 12.7773 60.8232 12.9255C60.5584 13.0472 60.2194 13.19 60.0314 13.3699C59.8461 13.5472 59.7481 13.8249 59.6899 14.1239C59.4515 15.317 59.2556 16.6 58.8346 18.1661C58.4718 19.6713 58.0799 21.1475 57.6562 22.5945C57.2352 24.0416 56.8433 25.2743 56.4806 26.2981C56.1813 27.3245 55.9271 27.8827 56.0145 28.6711C56.1019 29.4594 56.1654 29.5784 56.3455 30.0044C56.5256 30.425 56.8724 30.7874 57.2935 31.089C57.7145 31.3906 58.2573 31.5387 58.922 31.5387C59.6448 31.5387 61.035 31.0652 61.4454 30.0096C61.697 29.3642 61.7076 29.0388 61.6282 28.6816C62.3537 29.2081 62.825 29.8059 63.1719 30.8191C63.5294 31.8667 63.7147 32.7741 63.7147 33.8005C63.7147 34.4037 63.6141 34.9169 63.442 35.4248C63.2752 35.9142 63.1031 36.192 62.8091 36.7819C62.5682 37.2634 62.2954 37.684 61.9936 38.0464C60.9688 38.5279 60.3015 39.0596 59.9123 39.676C59.5813 40.1998 59.4621 40.7606 59.4621 41.3003C59.4621 41.9643 59.5548 42.7474 60.005 43.1997C61.456 44.6521 62.9309 45.3663 64.0748 46.2711C65.2797 47.1123 66.3044 47.8372 67.1518 48.4377C67.9223 49.0567 68.0891 49.1863 68.6849 49.6704C68.2798 49.0541 68.0441 47.6758 68.2162 46.8107C68.3883 45.9483 68.7326 45.0409 69.6355 44.4986C69.8765 44.3796 69.9136 44.2023 69.7918 44.0833C69.6726 43.9616 69.519 43.9986 69.2171 44.1203C68.9153 44.3002 68.7511 44.4616 68.2374 45.033C67.4086 45.9536 67.4933 47.2605 67.3318 47.2922C67.2471 47.3081 67.1094 46.7234 67.1518 46.1176C67.1703 45.8425 67.2418 45.4536 67.4245 45.033C67.6655 44.6124 67.9488 44.2632 68.4281 43.8399C68.6108 43.7182 68.6425 43.4775 68.5075 43.369C68.3725 43.2606 68.2109 43.2421 67.8508 43.5436C67.5489 43.8452 67.3159 44.0463 66.9452 44.5224C66.4342 45.1785 66.4871 46.5303 66.3388 46.4801C66.2806 46.4589 66.1402 45.9668 66.1561 45.3954C66.1641 45.0939 66.217 44.7632 66.3388 44.4008C66.458 43.9801 66.7016 43.6177 67.0617 43.3161C67.2418 43.1944 67.308 42.9722 67.1518 42.8638C66.9955 42.7553 66.7307 42.8082 66.4289 43.1098C66.2011 43.2526 65.9575 43.5463 65.7881 43.9748C65.4624 44.7976 65.4703 45.8769 65.3432 45.8452C65.2797 45.8293 65.1632 45.242 65.1632 44.9431C65.1632 44.6441 65.1923 44.3399 65.2532 44.0383C65.3114 43.6759 65.4941 43.2844 65.7934 42.8638C65.9761 42.623 65.8781 42.4114 65.7033 42.3214C65.5286 42.2315 65.3406 42.2024 65.1605 42.5013C64.9169 42.8029 64.7686 43.1468 64.615 43.496C64.3661 44.0595 64.5885 45.2235 64.435 45.2129C64.3714 45.2076 64.2231 44.7023 64.1649 44.4008C64.1066 44.0992 64.0298 43.8293 64.0748 43.496C64.1146 43.1918 64.2867 42.8347 64.5276 42.4114C64.6468 42.1707 64.7104 41.8744 64.5276 41.7791C64.3449 41.6839 64.2258 41.6601 63.9848 41.9617C63.683 42.2632 63.5029 42.6257 63.442 43.0463C63.3837 43.4087 63.3705 44.1256 63.2593 44.1309C63.1481 44.1362 63.0766 43.7235 63.0501 43.3267C63.0236 42.9299 63.013 42.3638 63.3758 41.8823C63.4976 41.5807 63.5823 41.4167 63.442 41.3294C63.3016 41.2421 63.1401 41.1813 62.8992 41.4194C62.5973 41.7791 62.4172 42.1416 62.3563 42.504C62.2954 42.8664 62.3616 43.4114 62.2028 43.4167C62.1577 43.4167 62.0545 43.1071 61.9936 42.8664C61.8718 42.4458 61.9644 41.9617 62.2637 41.4194C62.3855 41.2395 62.3484 40.9511 62.1763 40.877C62.0042 40.803 61.8744 40.7554 61.6334 41.0569C61.456 41.34 61.4296 41.3744 61.3528 41.8876C61.3104 42.1733 61.3925 42.6601 61.2786 42.6865C61.1648 42.713 61.0535 42.0384 61.0721 41.6918C61.0906 41.3426 61.088 41.2501 61.2071 41.0093C61.3289 40.7077 61.2919 40.5834 61.1807 40.5146C61.0694 40.4458 60.6431 40.9855 60.5504 41.2844C60.4075 41.75 60.5451 42.1627 60.4472 42.1998C60.3518 42.2368 60.2141 42.0093 60.2062 41.6945C60.1744 40.5675 60.8391 39.8453 61.3581 39.5226C62.3034 38.9353 62.8727 39.3268 63.765 39.7078C64.8401 40.1654 65.886 40.7607 67.1253 41.5463C68.8623 42.6468 71.0734 44.2738 71.2852 44.5621C71.4838 44.832 70.9198 44.6997 70.0062 45.3134C69.3284 45.7684 68.7935 46.5674 68.7696 47.353C68.7352 48.6652 68.8676 49.7445 69.6779 50.6069C70.4882 51.4667 71.7592 51.8688 73.3877 51.8688C74.4124 51.8688 75.408 51.6307 76.3719 51.1492C77.3966 50.6069 78.244 50.0964 78.8451 49.6149C79.5071 50.0964 80.2591 50.6069 81.162 51.1492C82.1285 51.6307 83.1824 51.8688 84.329 51.8688C85.9574 51.8688 87.0722 51.4587 88.0387 50.6069C89.2621 49.5249 89.1058 47.9562 89.0635 47.4165C89.0211 46.8584 88.9152 46.3319 88.2161 45.6679C87.5171 45.0039 86.0528 44.9166 86.5294 44.4933C87.006 44.0701 87.8401 43.4801 88.759 42.8664C89.1323 42.5939 90.3636 41.795 91.1395 41.3215C92.1218 40.7236 94.2137 39.6416 94.8174 39.3427C95.543 39.0411 95.9243 39.2342 96.3559 39.5226C97.0788 40.0067 97.4574 41.0702 97.5157 41.549C97.5501 41.8268 97.5687 42.1839 97.4336 42.1574C97.2986 42.1283 97.2165 41.594 97.0788 41.2633C96.7769 40.5331 96.4565 40.4591 96.295 40.5067C96.1652 40.5464 96.2765 40.6575 96.3956 40.9405C96.5757 41.377 96.6816 41.6707 96.6869 41.9484C96.6948 42.3373 96.6525 42.6733 96.5651 42.6865C96.4909 42.6971 96.4115 42.0887 96.3506 41.922C96.2923 41.6204 96.1758 41.3585 95.9958 41.0569C95.8131 40.7554 95.6701 40.6972 95.4794 40.8453C95.3073 40.9776 95.3364 41.094 95.3973 41.2765C95.6383 41.8188 95.7813 42.2183 95.7045 42.6468C95.633 43.041 95.5536 43.5278 95.4556 43.496C95.355 43.4643 95.3576 42.9034 95.2835 42.3902C95.2305 42.0252 95.122 41.7791 94.8201 41.4194C94.5209 41.1786 94.2905 41.2262 94.1687 41.4088C94.1078 41.5278 94.1528 41.6627 94.2773 41.9617C94.3991 42.2553 94.6347 42.7474 94.6268 43.1839C94.6162 43.7553 94.4785 44.1838 94.3699 44.1309C94.2614 44.078 94.2799 43.3426 94.219 42.9802C94.1581 42.5595 94.0363 42.2632 93.7344 41.9617C93.4935 41.6601 93.3134 41.5992 93.1916 41.7791C93.0698 41.9617 93.0698 42.1707 93.1916 42.4114C93.6126 43.1336 93.5941 43.3029 93.6576 44.1441C93.6894 44.5595 93.5094 45.2235 93.3743 45.2129C93.2393 45.2023 93.3928 44.578 93.1625 43.541C93.0804 43.168 92.903 42.9246 92.7203 42.623C92.4793 42.3214 92.1669 42.1416 91.9232 42.3241C91.7432 42.4458 91.7432 42.6257 91.9232 42.8664C92.2251 43.287 92.4555 43.7182 92.5376 44.0727C92.7282 44.8928 92.5614 45.9166 92.376 45.8478C92.1907 45.779 92.3284 44.0965 91.2904 43.0463C90.9594 42.7103 90.6893 42.6839 90.5675 42.8638C90.4483 43.0463 90.4483 43.1944 90.5675 43.3161C91.2321 43.9193 91.5313 44.5939 91.6108 45.3716C91.6611 45.8557 91.6479 46.488 91.4704 46.4774C91.293 46.4668 91.1712 45.3425 90.7449 44.5806C90.4907 44.1283 90.2206 43.8875 89.8579 43.586C89.556 43.2844 89.3097 43.2077 89.1906 43.3902C89.1297 43.5701 89.172 43.7209 89.2912 43.8426C89.7731 44.2632 89.9929 44.623 90.2021 45.0304C90.4642 45.5436 90.5622 45.9034 90.6125 46.2102C90.7078 46.7843 90.6363 47.3266 90.4722 47.2896C90.308 47.2525 90.4272 45.9748 89.4766 45.0304C88.9337 44.4881 88.796 44.3135 88.4942 44.1336C88.2532 44.0119 88.1208 43.959 87.9407 44.0807C87.8216 44.1997 87.8428 44.3928 88.0837 44.5119C88.9867 45.0542 89.2276 45.5727 89.4792 46.2605C89.9082 47.4298 89.5984 48.9932 89.3071 49.5699C90.0644 48.9668 90.7423 48.435 90.7423 48.435C91.587 47.8319 92.5826 47.1097 93.7265 46.2684C94.873 45.3637 96.3585 44.2949 97.7964 43.1971C98.1777 42.9087 98.3392 41.9617 98.3392 41.2977C98.3392 40.7554 98.1565 40.213 97.7964 39.6734C97.4363 39.0702 96.7399 38.5279 95.7177 38.0438C95.4159 37.684 94.505 36.2423 94.2693 35.4222C93.8086 33.8191 94.2375 31.7794 94.5421 30.8139C94.9022 29.7901 95.3841 29.0811 96.2288 28.5996C96.1705 29.1419 96.099 29.4991 96.4724 30.2292C96.9517 31.1683 98.1009 31.5334 98.8847 31.5334C99.5467 31.5334 100.06 31.3853 100.423 31.0837C100.844 30.7821 101.199 30.4223 101.392 30.007C101.782 29.1737 101.827 28.7901 101.737 28.0071L101.752 28.0123Z" fill="#BDBCBC"/>
<path id="Vector_3" d="M86.0582 45.488C85.8781 45.488 85.3856 45.488 84.8216 46.0938C84.5621 46.3743 84.3529 46.6758 84.3529 47.0991C84.3529 47.7023 84.3794 48.0858 84.6945 48.435C85.2452 49.0461 85.9205 48.9826 86.2885 48.7049C86.6566 48.4271 86.9452 47.8848 86.5745 47.4166C86.3733 47.1626 85.8834 47.0938 85.608 47.3875C85.3326 47.6785 85.0016 47.5171 85.0202 47.279C85.0943 46.3901 86.2117 46.406 86.691 46.6653C87.1729 46.9271 87.2338 47.4166 87.2338 47.8398C87.2338 47.9589 87.2047 48.8636 86.7837 49.4668C86.36 50.0673 85.608 50.3688 84.5197 50.3688C83.254 50.3688 82.1101 50.0091 81.0827 49.2842C80.1188 48.562 79.3986 47.9007 78.8531 47.2975C78.3738 47.9007 77.5847 48.562 76.56 49.2842C75.5961 50.0091 74.4787 50.3688 73.213 50.3688C72.1273 50.3688 71.3382 50.0249 70.8563 49.4932C70.3744 48.9615 70.4247 48.808 70.3506 48.4324C70.2976 48.1731 70.3029 47.8795 70.5439 47.324C70.663 47.0462 70.851 46.8293 71.2032 46.6203C71.5977 46.3848 72.3815 46.5991 72.5828 46.7552C72.784 46.9113 72.7999 47.1917 72.7258 47.3372C72.6516 47.4827 72.3948 47.5938 72.2227 47.3901C72.0479 47.1838 71.6348 47.2102 71.4733 47.2869C71.2112 47.4086 71.092 47.5515 71.047 47.8425C71.002 48.1335 71.137 48.3848 71.3197 48.5647C71.5607 48.7446 71.8043 48.8371 72.0426 48.8371C72.5245 48.8371 72.6913 48.8028 72.9482 48.5647C73.205 48.3266 73.3983 47.8134 73.3983 47.2102C73.3983 46.9113 73.2474 46.5489 72.9482 46.1256C72.5828 45.705 72.1935 45.4933 71.7725 45.4933C71.1105 45.4933 70.5359 45.7341 70.0513 46.2155C69.6303 46.6388 69.4211 47.1811 69.4211 47.8425C69.4211 48.9271 69.6912 49.6784 70.2341 50.1017C70.9569 50.8265 72.0108 51.1863 73.3983 51.1863C74.484 51.1863 75.5088 50.8847 76.4753 50.2815C77.5 49.6784 78.3182 49.1361 78.8584 48.6573C79.4039 49.1387 80.1241 49.6784 81.088 50.2815C82.1127 50.8847 83.1984 51.1863 84.3423 51.1863C85.7907 51.1863 86.8764 50.8265 87.5966 50.1017C88.0812 49.6784 88.3221 48.9271 88.3221 47.8425C88.3221 47.1811 88.1103 46.6388 87.6893 46.2155C87.2683 45.7367 86.7254 45.4933 86.0608 45.4933" fill="#183264"/>
<path id="Vector_4" d="M59.7587 25.6289C58.6651 25.6289 57.876 25.9331 57.3888 26.5389C56.9016 27.1474 56.658 27.7241 56.658 28.2717C56.658 28.8801 56.7295 29.4648 57.1134 29.9118C57.5 30.3589 57.966 30.5759 58.7578 30.5494C59.486 30.5256 59.9229 30.3272 60.2645 29.9939C60.6034 29.6605 60.7067 29.4463 60.7755 28.9145C60.8444 28.3828 60.3969 27.5415 59.6687 27.5415C59.3642 27.5415 58.8796 27.7029 58.7578 28.2399C58.6916 28.5362 58.7843 28.8272 58.9405 28.8166C59.0967 28.8061 59.1232 28.8775 59.1232 28.9992C59.1232 29.3642 58.9405 29.5468 58.5751 29.5468C58.3924 29.5468 58.0667 29.5045 57.9396 29.3642C57.8125 29.224 57.6642 28.9383 57.6642 28.4516C57.6642 27.904 57.8469 27.449 58.2123 27.0865C58.5777 26.6633 59.0332 26.449 59.5786 26.449C60.3095 26.449 60.9768 26.6633 61.5858 27.0865C62.1948 27.5124 62.6688 28.0653 63.0448 28.7267C63.4579 29.4489 63.8048 30.1261 64.0484 30.9145C64.2893 31.7028 64.4138 32.4938 64.4138 33.2821C64.4138 33.8271 64.3026 34.544 63.9981 35.454C63.6962 36.3058 62.7297 37.9486 62.9256 38.0227C63.1216 38.0968 63.6962 37.0413 63.9981 36.4937C64.3026 36.0043 64.5647 35.4249 64.8083 34.8165C65.0519 34.208 65.142 33.5255 65.142 32.7345C65.142 30.4859 64.5329 28.7558 63.3175 27.5415C62.163 26.2665 60.9768 25.6289 59.7613 25.6289" fill="#183264"/>
<path id="Vector_5" d="M98.0638 25.629C96.7875 25.629 95.572 26.2665 94.4175 27.5416C93.263 28.7585 92.6858 30.4886 92.6858 32.7346C92.6858 33.5229 92.7467 34.2134 92.9294 34.8218C93.173 35.4303 93.4458 35.9885 93.7476 36.4752C94.0521 37.0228 94.6982 38.0995 94.8756 38.0175C95.053 37.9355 94.0204 36.2821 93.7476 35.425C93.4643 34.5256 93.414 33.8245 93.414 33.2796C93.414 32.4886 93.4669 31.6897 93.6894 30.9119C93.9277 30.0759 94.2348 29.3908 94.6003 28.7241C95.0266 28.0575 95.5138 27.5099 96.0593 27.084C96.6683 26.6607 97.3674 26.4464 98.1591 26.4464C98.829 26.4464 99.3136 26.6607 99.6181 27.084C99.9835 27.449 100.164 27.9041 100.164 28.449C100.164 28.9358 100.095 29.1368 99.8723 29.3485C99.6658 29.5469 99.4513 29.5786 99.1468 29.5786C98.8423 29.5786 98.5245 29.3141 98.5245 28.949C98.5245 28.8273 98.5748 28.7929 98.6781 28.7903C99.0647 28.7903 99.1944 28.0469 98.7919 27.7453C98.6384 27.6289 98.4345 27.5337 98.0691 27.5337C97.7645 27.5337 97.4733 27.6713 97.2482 27.9887C96.7345 28.7136 97.1237 29.6289 97.4309 29.9939C97.7354 30.359 98.2809 30.5389 99.0726 30.5389C99.7426 30.5389 100.259 30.3273 100.624 29.9014C100.99 29.4172 101.17 28.8696 101.17 28.2612C101.17 27.7136 100.894 27.1369 100.349 26.5284C99.8617 25.9226 99.1017 25.6184 98.0691 25.6184" fill="#183264"/>
<path id="Vector_6" d="M75.2837 5.49463C75.5856 5.80943 75.8133 6.23799 75.9934 6.65597C76.4329 6.55015 77.6033 6.29884 78.8531 6.29884C80.103 6.29884 81.4349 6.53428 81.7394 6.65597C81.8612 6.23006 82.0598 5.82266 82.3775 5.47082C82.7483 5.05813 83.2302 4.66661 83.8366 4.39149C84.4059 4.13488 84.9805 4.08726 86.0291 4.07933C85.6636 3.83859 85.1473 3.62431 84.4774 3.44178C83.9292 3.32009 83.2249 3.15078 82.2875 3.19046C81.3766 3.23014 80.2512 3.34125 78.8531 3.64548C77.455 3.34125 76.2661 3.19046 75.3552 3.19046C74.4443 3.19046 73.7135 3.31744 73.168 3.44178C72.5007 3.62431 72.0135 3.83595 71.709 4.07933C72.7549 4.07403 73.0647 4.08197 73.9359 4.46556C74.6588 4.78301 74.9845 5.17718 75.2864 5.49198L75.2837 5.49463Z" fill="#183264"/>
<path id="Vector_7" d="M102.984 27.9091C102.891 27.2266 101.355 22.2374 101.355 22.2374C100.934 20.7982 100.563 19.2903 100.142 17.7904C99.7452 16.3063 99.454 15.0656 99.2342 13.891C99.1071 13.2217 98.8132 12.6953 98.363 12.3593C98.0559 12.1265 97.7169 11.9361 97.3489 11.78C96.9358 11.5498 96.4962 11.4731 96.0143 11.325C95.7733 11.2509 94.8386 10.8435 94.219 10.1848C93.9171 9.8647 93.5861 9.42292 93.279 8.85944C92.9321 8.28009 92.5137 7.50234 92.0477 6.57379C91.4784 5.43626 90.6416 4.43629 89.5745 3.5633C88.42 2.55539 87.3211 2.03689 85.1763 1.48399C83.4075 1.02634 81.3315 1.02105 78.8556 1.42315C76.3957 1.02105 74.19 1.01046 72.4291 1.47606C70.7768 1.87287 69.3575 2.54746 68.2136 3.5342C67.1411 4.40719 66.2594 5.42832 65.6292 6.54734C65.1658 7.47588 64.7342 8.28009 64.3846 8.85944C64.0457 9.42292 63.6591 9.93877 63.4446 10.1822C63.156 10.5102 62.7297 10.8435 61.84 11.2297C61.1541 11.526 59.8037 11.7826 59.0702 12.4757C58.6836 12.8408 58.5247 13.3461 58.4268 13.8937C58.1911 15.2085 57.9581 16.3698 57.5609 17.8512C57.2034 19.3353 56.8115 20.8115 56.3958 22.2347C55.9827 23.6553 55.5855 24.9013 55.2307 25.9066C55.0771 26.433 54.8706 27.0229 54.7514 27.716C54.672 28.179 54.672 28.6525 54.7355 29.0361C54.8176 29.5202 54.9712 30.0096 55.1857 30.507C55.469 31.171 55.9324 31.7053 56.5176 32.1233C57.2087 32.6154 58.0031 32.8111 58.8584 32.8111C59.7137 32.8111 60.6881 32.5968 61.3713 32.0254C61.5858 31.8138 61.7897 31.5757 61.9671 31.3244C62.253 32.1154 62.404 32.9619 62.404 33.7979C62.404 34.274 62.3325 34.6603 62.216 34.9777C62.0597 35.3931 61.8611 35.8163 61.652 36.1787C61.4957 36.4935 61.313 36.7951 61.1383 37.0306C60.1347 37.5411 59.2821 38.1998 58.7789 39.0358C58.387 39.7395 58.1567 40.5119 58.1567 41.3003C58.1567 42.2077 58.44 43.25 58.8796 43.8531C59.8805 45.2261 62.0915 46.4721 63.2831 47.2922C64.5038 48.1308 65.4968 48.8345 66.3229 49.435C67.2047 50.0752 67.4006 50.2789 68.6452 51.2868C69.9586 52.3502 71.5182 53.1465 73.3585 53.1465C74.5925 53.1465 75.7946 52.8502 76.9279 52.2841C77.6243 51.9137 78.3155 51.5434 78.8556 51.1783C79.3773 51.5301 79.9069 51.8979 80.5265 52.2656C81.6783 52.8396 82.9758 53.1465 84.3051 53.1465C86.1454 53.1465 87.4244 52.7047 89.1164 51.3555C90.8058 50.0064 93.647 47.9403 94.4864 47.2842C95.3258 46.6282 98.0876 44.5674 98.7205 44.0621C99.4699 43.4642 99.5996 42.2103 99.5996 41.3029C99.5996 40.4828 99.356 39.8056 98.8767 39.0226C98.3657 38.1893 97.5289 37.5438 96.5253 37.0359C96.3479 36.7925 95.7575 35.8745 95.4768 35.0544C95.0849 33.9037 95.4715 32.0969 95.7177 31.2847C95.8501 31.499 95.768 31.536 96.3347 32.073C96.9014 32.6101 97.9685 32.8138 98.8688 32.8164C99.7082 32.8217 100.473 32.6312 101.151 32.126C101.705 31.7133 102.06 31.2821 102.451 30.5784C102.732 30.0757 103.148 29.0943 102.986 27.9091H102.984ZM101.411 30.0149C101.218 30.4302 100.863 30.79 100.442 31.0916C100.079 31.3932 99.5652 31.5413 98.9032 31.5413C98.1194 31.5413 96.9729 31.1762 96.4909 30.2371C96.1176 29.507 96.1891 29.1498 96.2473 28.6075C95.4026 29.0864 94.9233 29.7953 94.5606 30.8218C94.2561 31.7847 93.8271 33.827 94.2878 35.4301C94.5235 36.2502 95.4344 37.6893 95.7363 38.0517C96.761 38.5332 97.4548 39.0755 97.8149 39.6813C98.175 40.2236 98.3577 40.7659 98.3577 41.3056C98.3577 41.9696 98.1962 42.914 97.8149 43.205C96.3771 44.3028 94.8916 45.3716 93.745 46.2763C92.5985 47.1176 91.6055 47.8424 90.7608 48.4429C90.7608 48.4429 90.0829 48.9747 89.3256 49.5778C89.6169 49.0038 89.924 47.4377 89.4977 46.2684C89.2462 45.5806 89.0052 45.0621 88.1022 44.5198C87.8613 44.4007 87.8375 44.2076 87.9593 44.0886C88.142 43.9669 88.2717 44.0198 88.5127 44.1415C88.8145 44.3214 88.9496 44.4986 89.4951 45.0383C90.443 45.9827 90.3265 47.2604 90.4907 47.2975C90.6549 47.3345 90.7264 46.7922 90.631 46.2181C90.5807 45.9139 90.4827 45.5515 90.2206 45.0383C90.0114 44.6309 89.7916 44.2711 89.3097 43.8505C89.1906 43.7288 89.1455 43.578 89.2091 43.3981C89.3282 43.2182 89.5745 43.2949 89.8764 43.5939C90.2365 43.8954 90.5092 44.1362 90.7634 44.5886C91.1897 45.3478 91.3116 46.4721 91.489 46.4853C91.6664 46.4959 91.677 45.8636 91.6293 45.3795C91.5499 44.5991 91.248 43.9245 90.586 43.324C90.4669 43.205 90.4669 43.0542 90.586 42.8717C90.7078 42.6918 90.9779 42.7182 91.3089 43.0542C92.3469 44.1044 92.2066 45.7869 92.3946 45.8557C92.5799 45.9245 92.7467 44.9007 92.5561 44.0806C92.474 43.7235 92.2436 43.2949 91.9418 42.8743C91.7617 42.6336 91.7617 42.4537 91.9418 42.332C92.1854 42.1495 92.4978 42.332 92.7388 42.6309C92.9215 42.9325 93.0989 43.1785 93.181 43.5489C93.4087 44.5859 93.2551 45.2102 93.3928 45.2208C93.5305 45.2314 93.7079 44.57 93.6762 44.1521C93.6126 43.3108 93.6338 43.1415 93.2101 42.4193C93.0883 42.1759 93.0883 41.9669 93.2101 41.787C93.3293 41.6072 93.512 41.668 93.753 41.9696C94.0548 42.2712 94.174 42.5674 94.2375 42.9881C94.2984 43.3478 94.2772 44.0833 94.3885 44.1388C94.497 44.1917 94.6374 43.7658 94.6453 43.1918C94.6533 42.7553 94.4176 42.2632 94.2958 41.9696C94.1713 41.6706 94.1263 41.5384 94.1872 41.4167C94.3064 41.2341 94.5367 41.1865 94.8386 41.4273C95.1405 41.787 95.249 42.0357 95.302 42.3981C95.3761 42.9114 95.3735 43.4722 95.4741 43.5039C95.5747 43.5357 95.6515 43.0516 95.723 42.6547C95.8025 42.2235 95.6595 41.8241 95.4159 41.2844C95.355 41.1019 95.3258 40.9855 95.4979 40.8532C95.6886 40.7051 95.8342 40.7633 96.0143 41.0648C96.1944 41.3664 96.3109 41.6283 96.3691 41.9299C96.43 42.0992 96.5121 42.7076 96.5836 42.6944C96.671 42.6812 96.7107 42.3452 96.7054 41.9564C96.7001 41.6786 96.5942 41.3823 96.4141 40.9484C96.2976 40.6654 96.1838 40.5543 96.3135 40.5146C96.475 40.4643 96.7954 40.5384 97.0973 41.2712C97.235 41.6019 97.3171 42.1389 97.4521 42.1653C97.5872 42.1944 97.566 41.8347 97.5342 41.5569C97.476 41.0781 97.0973 40.0146 96.3744 39.5305C95.9428 39.2421 95.5615 39.049 94.836 39.3506C94.2322 39.6495 92.1404 40.7289 91.158 41.3294C90.3821 41.8029 89.1508 42.6018 88.7775 42.8743C87.8586 43.4881 87.0245 44.078 86.5479 44.5013C86.0713 44.9245 87.5356 45.0145 88.2346 45.6758C88.9337 46.3398 89.037 46.8663 89.082 47.4244C89.1244 47.9668 89.2806 49.5355 88.0572 50.6148C87.0934 51.4667 85.9786 51.8767 84.3475 51.8767C83.2009 51.8767 82.147 51.6386 81.1805 51.1571C80.2776 50.6148 79.5256 50.1043 78.8636 49.6228C78.2625 50.1043 77.4152 50.6148 76.3904 51.1571C75.4265 51.6386 74.4309 51.8767 73.4062 51.8767C71.7777 51.8767 70.5067 51.4746 69.6964 50.6148C68.8861 49.7551 68.7537 48.6731 68.7882 47.361C68.8093 46.5726 69.3469 45.7763 70.0248 45.3213C70.9383 44.7076 71.5023 44.8399 71.3037 44.57C71.0919 44.2817 68.8835 42.6547 67.1438 41.5542C65.9046 40.7686 64.8586 40.1733 63.7836 39.7157C62.8912 39.3347 62.3219 38.9459 61.3766 39.5305C60.8549 39.8532 60.1929 40.5754 60.2247 41.7024C60.2327 42.0172 60.3677 42.2447 60.4657 42.2077C60.5637 42.1706 60.426 41.7579 60.569 41.2923C60.659 40.9961 61.0879 40.4537 61.1992 40.5225C61.3104 40.594 61.3474 40.7156 61.2256 41.0172C61.1065 41.258 61.1091 41.3532 61.0906 41.6997C61.0721 42.0463 61.1833 42.7209 61.2971 42.6944C61.411 42.668 61.3289 42.1812 61.3713 41.8955C61.4481 41.3796 61.4746 41.3453 61.652 41.0648C61.8929 40.7633 62.0227 40.8082 62.1948 40.885C62.3669 40.959 62.4066 41.2474 62.2822 41.4273C61.983 41.9696 61.8903 42.451 62.0121 42.8743C62.073 43.115 62.1763 43.4272 62.2213 43.4246C62.3801 43.4166 62.3139 42.8743 62.3748 42.5119C62.4358 42.1495 62.6158 41.7897 62.9177 41.4273C63.1586 41.1865 63.3175 41.2474 63.4605 41.3373C63.6008 41.4246 63.5161 41.5886 63.3943 41.8902C63.0315 42.3717 63.0421 42.9378 63.0686 43.3346C63.0951 43.7314 63.1692 44.1415 63.2778 44.1388C63.389 44.1335 63.4023 43.4166 63.4605 43.0542C63.5214 42.6336 63.7015 42.2712 64.0033 41.9696C64.2443 41.668 64.3635 41.6918 64.5462 41.787C64.7289 41.8823 64.6653 42.1786 64.5462 42.4193C64.3025 42.8399 64.1331 43.1997 64.0934 43.5039C64.0483 43.8372 64.1251 44.1071 64.1834 44.4087C64.2416 44.7102 64.3926 45.2155 64.4535 45.2208C64.6097 45.234 64.3846 44.0674 64.6335 43.5039C64.7871 43.1547 64.9354 42.8108 65.179 42.5092C65.3591 42.2103 65.5471 42.2394 65.7218 42.3294C65.8966 42.4193 65.9919 42.6309 65.8119 42.8717C65.5127 43.2923 65.33 43.6838 65.2717 44.0462C65.2081 44.3478 65.1817 44.6467 65.1817 44.951C65.1817 45.2552 65.2982 45.8372 65.3617 45.8531C65.4862 45.8848 65.4809 44.8055 65.8066 43.9827C65.9761 43.5542 66.2223 43.2605 66.4474 43.1177C66.7492 42.8161 67.0114 42.7659 67.1703 42.8717C67.3265 42.9801 67.2603 43.2023 67.0802 43.324C66.7201 43.6256 66.4765 43.9854 66.3574 44.4087C66.2355 44.7711 66.1852 45.1018 66.1746 45.4033C66.1588 45.9721 66.2991 46.4668 66.3574 46.488C66.5056 46.5382 66.4527 45.1864 66.9637 44.5303C67.3344 44.0542 67.5675 43.8531 67.8693 43.5515C68.2294 43.25 68.391 43.2685 68.526 43.3769C68.6611 43.4854 68.6293 43.7288 68.4466 43.8478C67.9673 44.2685 67.684 44.6176 67.443 45.0409C67.2603 45.4615 67.1915 45.8504 67.1703 46.1255C67.1279 46.7313 67.2656 47.3186 67.3503 47.3001C67.5119 47.2684 67.4271 45.9615 68.2559 45.0409C68.7696 44.4721 68.9312 44.3081 69.2357 44.1282C69.5375 44.0066 69.6911 43.9695 69.8103 44.0912C69.9294 44.2103 69.895 44.3875 69.654 44.5065C68.7511 45.0489 68.4069 45.9536 68.2347 46.8186C68.0626 47.681 68.2983 49.062 68.7034 49.6783C68.1076 49.1942 67.9435 49.0646 67.1703 48.4456C66.3256 47.8424 65.3008 47.1202 64.0934 46.279C62.9468 45.3742 61.4745 44.66 60.0235 43.2076C59.5733 42.7579 59.4807 41.9722 59.4807 41.3082C59.4807 40.7659 59.5998 40.2077 59.9308 39.6839C60.32 39.0675 60.9873 38.5385 62.0121 38.0544C62.3139 37.6946 62.5867 37.2713 62.8276 36.7898C63.1216 36.1999 63.2937 35.9221 63.4605 35.4327C63.6326 34.9248 63.7332 34.409 63.7332 33.8084C63.7332 32.782 63.5479 31.8746 63.1904 30.827C62.8462 29.8165 62.3722 29.216 61.6467 28.6895C61.7261 29.0467 61.7155 29.3721 61.464 30.0175C61.0509 31.0731 59.6634 31.5466 58.9405 31.5466C58.2785 31.5466 57.733 31.3985 57.312 31.0969C56.891 30.7953 56.5441 30.4329 56.364 30.0123C56.1813 29.5863 56.1204 29.4673 56.033 28.679C55.9456 27.8906 56.1998 27.3298 56.4991 26.306C56.8592 25.2849 57.2537 24.0495 57.6748 22.6024C58.0984 21.1554 58.4903 19.6792 58.8531 18.174C59.2741 16.6079 59.4727 15.3249 59.7084 14.1318C59.7666 13.8328 59.8646 13.5551 60.05 13.3778C60.238 13.1979 60.5769 13.0551 60.8417 12.9334C61.1594 12.7879 61.5063 12.6636 61.9724 12.5207C62.5125 12.3567 62.772 12.2694 63.1957 12.0287C63.5558 11.7879 63.9504 11.4863 64.3714 11.1239C64.7924 10.7033 65.187 10.161 65.5471 9.49963C65.9098 8.89912 66.3309 8.11343 66.8128 7.1505C67.3556 6.18756 68.1103 5.31192 69.0741 4.52888C70.038 3.68499 71.2746 3.08448 72.7839 2.72205C74.3488 2.30143 76.401 2.30143 78.8742 2.72205C81.3473 2.30143 83.3333 2.30143 84.9009 2.72205C86.5267 3.08712 87.8242 3.68763 88.7907 4.52888C89.7546 5.31192 90.4801 6.18756 90.962 7.1505C91.4439 8.11343 91.8676 8.89648 92.2277 9.49963C92.5879 10.161 92.9798 10.7033 93.4034 11.1239C93.8244 11.4863 94.219 11.7879 94.5791 12.0287C95.2861 12.4916 96.2897 12.7456 96.6233 12.8487C97.0364 12.9757 97.3939 13.1397 97.6269 13.3329C97.8996 13.5604 98.0161 13.7773 98.0161 14.018C98.1936 15.2217 98.4981 16.6079 98.9191 18.174C99.3401 19.6792 99.7638 21.1554 100.185 22.6024C100.606 24.0495 100.974 25.2822 101.27 26.306C101.615 27.4991 101.734 27.7028 101.771 28.0203C101.861 28.8033 101.816 29.1869 101.427 30.0202L101.411 30.0149Z" fill="#183264"/>
<g id="Group_2">
<path id="Vector_8" d="M82.6529 8.68749C82.6529 8.68749 80.0315 7.97323 78.7234 7.97323C77.4153 7.97323 75.0295 8.68749 75.0295 8.68749C75.0295 8.68749 73.4911 4.52359 71.2271 5.71404C68.9631 6.90448 65.857 13.0048 64.4457 13.7985C62.5392 14.8672 65.1606 20.4596 63.4924 24.2638C65.0415 25.4542 70.0434 31.2768 65.2798 37.9327C65.2798 37.9327 73.1283 44.2341 74.3172 44.2341H83.3679C84.5595 44.2341 92.408 37.9327 92.408 37.9327C87.6443 31.2768 92.6436 25.4542 94.1953 24.2638C92.5271 20.4623 95.1459 14.8699 93.2447 13.7985C91.8333 13.0048 88.7247 6.90448 86.4633 5.71404C86.18 5.56325 85.9073 5.49976 85.6504 5.49976C83.8392 5.49976 82.6582 8.68749 82.6582 8.68749" fill="white"/>
<g id="Clip path group">
<mask id="mask0_151_386" style="mask-type:luminance" maskUnits="userSpaceOnUse" x="63" y="5" width="32" height="40">
<g id="clippath">
<path id="Vector_9" d="M82.6529 8.68749C82.6529 8.68749 80.0315 7.97323 78.7234 7.97323C77.4153 7.97323 75.0295 8.68749 75.0295 8.68749C75.0295 8.68749 73.4911 4.52359 71.2271 5.71404C68.9631 6.90448 65.857 13.0048 64.4457 13.7985C62.5392 14.8672 65.1606 20.4596 63.4924 24.2638C65.0415 25.4542 70.0434 31.2768 65.2798 37.9327C65.2798 37.9327 73.1283 44.2341 74.3172 44.2341H83.3679C84.5595 44.2341 92.408 37.9327 92.408 37.9327C87.6443 31.2768 92.6436 25.4542 94.1953 24.2638C92.5271 20.4623 95.1459 14.8699 93.2447 13.7985C91.8333 13.0048 88.7247 6.90448 86.4633 5.71404C86.18 5.56325 85.9073 5.49976 85.6504 5.49976C83.8392 5.49976 82.6582 8.68749 82.6582 8.68749" fill="white"/>
</g>
</mask>
<g mask="url(#mask0_151_386)">
<g id="Group_3">
<path id="Vector_10" d="M95.1432 4.52368H62.5391V44.2315H95.1432V4.52368Z" fill="white"/>
</g>
</g>
</g>
</g>
<g id="Group_4">
<path id="Vector_11" d="M82.6529 8.68749C82.6529 8.68749 80.0315 7.97323 78.7234 7.97323C77.4153 7.97323 75.0295 8.68749 75.0295 8.68749C75.0295 8.68749 73.4911 4.52359 71.2271 5.71404C68.9631 6.90448 65.857 13.0048 64.4457 13.7985C62.5392 14.8672 65.1606 20.4596 63.4924 24.2638C65.0415 25.4542 70.0434 31.2768 65.2798 37.9327C65.2798 37.9327 73.1283 44.2341 74.3172 44.2341H83.3679C84.5595 44.2341 92.408 37.9327 92.408 37.9327C87.6443 31.2768 92.6436 25.4542 94.1953 24.2638C92.5271 20.4623 95.1459 14.8699 93.2447 13.7985C91.8333 13.0048 88.7247 6.90448 86.4633 5.71404C86.18 5.56325 85.9073 5.49976 85.6504 5.49976C83.8392 5.49976 82.6582 8.68749 82.6582 8.68749" fill="url(#paint0_linear_151_386)"/>
<g id="Clip path group_2">
<mask id="mask1_151_386" style="mask-type:luminance" maskUnits="userSpaceOnUse" x="63" y="5" width="32" height="40">
<g id="clippath-1">
<path id="Vector_12" d="M82.6529 8.68749C82.6529 8.68749 80.0315 7.97323 78.7234 7.97323C77.4153 7.97323 75.0295 8.68749 75.0295 8.68749C75.0295 8.68749 73.4911 4.52359 71.2271 5.71404C68.9631 6.90448 65.857 13.0048 64.4457 13.7985C62.5392 14.8672 65.1606 20.4596 63.4924 24.2638C65.0415 25.4542 70.0434 31.2768 65.2798 37.9327C65.2798 37.9327 73.1283 44.2341 74.3172 44.2341H83.3679C84.5595 44.2341 92.408 37.9327 92.408 37.9327C87.6443 31.2768 92.6436 25.4542 94.1953 24.2638C92.5271 20.4623 95.1459 14.8699 93.2447 13.7985C91.8333 13.0048 88.7247 6.90448 86.4633 5.71404C86.18 5.56325 85.9073 5.49976 85.6504 5.49976C83.8392 5.49976 82.6582 8.68749 82.6582 8.68749" fill="white"/>
</g>
</mask>
<g mask="url(#mask1_151_386)">
<g id="Group_5">
<path id="Vector_13" d="M95.13 4.50781H62.5259V44.2156H95.13V4.50781Z" fill="url(#paint1_linear_151_386)"/>
</g>
</g>
</g>
</g>
<path id="Vector_14" d="M94.4363 24.1527C94.01 23.1818 93.8723 22.0681 93.8723 20.9306C93.8723 19.0867 94.235 17.2005 94.2377 15.7667C94.2377 15.2799 94.1953 14.8408 94.0709 14.4625C93.9464 14.0869 93.6763 13.7959 93.3718 13.5631C93.1256 13.3752 92.633 12.8991 92.1193 12.206C91.3382 11.1637 90.4008 9.72191 89.4449 8.42565C88.4784 7.1294 87.5172 5.97334 86.5851 5.47601C86.2674 5.30934 85.9523 5.23263 85.6478 5.23263C85.1129 5.23263 84.6416 5.46807 84.247 5.79081C83.307 6.56592 82.7112 7.86218 82.4994 8.3701C81.8347 8.19815 80.8682 7.80927 78.8584 7.80927C76.8487 7.80927 75.8239 8.18492 75.191 8.36216C75.0639 8.06323 74.8097 7.51034 74.4417 6.94422C74.1689 6.53153 73.8379 6.11091 73.4434 5.78816C73.0489 5.46278 72.5775 5.22998 72.0426 5.22998C71.7381 5.22998 71.423 5.3067 71.1053 5.47336C69.8713 6.13472 68.55 7.96799 67.3002 9.74572C66.6806 10.6346 66.0927 11.5076 65.5711 12.2033C65.0574 12.8964 64.6416 13.3752 64.3186 13.5604C63.9691 13.7588 63.744 14.0816 63.6195 14.4599C63.4924 14.8382 63.4527 15.2773 63.4501 15.7641C63.4527 17.1979 63.8181 19.0841 63.8155 20.9279C63.8155 22.0655 63.6778 23.1792 63.2515 24.1501L63.1667 24.3405L63.3336 24.4675C63.834 24.8537 64.7714 25.8034 65.5658 27.1341C66.3628 28.4674 67.0248 30.1816 67.0221 32.1207C67.0221 33.8508 66.5032 35.7608 65.0653 37.7713L64.917 37.975L65.113 38.1338C65.113 38.1338 67.0778 39.7104 69.1935 41.2898C70.2526 42.0807 71.3462 42.8691 72.2571 43.4643C72.7126 43.7632 73.123 44.0119 73.4646 44.1891C73.8115 44.3664 74.063 44.4828 74.3199 44.4934H83.3705C83.6247 44.4854 83.8763 44.369 84.2232 44.1891C85.4095 43.5648 87.4828 42.0596 89.2781 40.6998C91.0708 39.3401 92.5721 38.1338 92.5748 38.1311L92.7707 37.9724L92.6251 37.7661C91.1846 35.7555 90.6656 33.8455 90.6656 32.1154C90.6656 30.1763 91.3276 28.4621 92.1246 27.1288C92.919 25.7982 93.8564 24.8458 94.3568 24.4622L94.521 24.3352L94.4363 24.1448V24.1527ZM91.6639 26.8643C90.8324 28.2558 90.1307 30.0626 90.1307 32.1234C90.1307 33.8984 90.663 35.8561 92.0478 37.8719C91.8439 38.0359 91.4838 38.3216 90.9966 38.7025C89.8686 39.5861 88.1448 40.9141 86.5957 42.0173C85.8225 42.5701 85.0917 43.0622 84.5065 43.4193C84.2152 43.5966 83.9584 43.7368 83.7545 43.8294C83.5559 43.9246 83.397 43.9643 83.3679 43.959H74.3172C74.2749 43.9696 74.0207 43.8876 73.7108 43.7183C72.5961 43.1363 70.5148 41.6284 68.7301 40.2766C67.8377 39.5993 67.0169 38.9591 66.4184 38.4883C66.0636 38.2105 65.8014 38.0015 65.6346 37.8692C67.0195 35.8534 67.5544 33.8958 67.5517 32.1207C67.5517 30.0599 66.8527 28.2531 66.0186 26.8616C65.2454 25.5733 64.3795 24.6553 63.8023 24.1765C64.21 23.1554 64.3451 22.039 64.3451 20.9306C64.3451 19.0232 63.9797 17.1159 63.9797 15.7667C63.9797 15.3117 64.022 14.9228 64.12 14.6318C64.2206 14.3382 64.361 14.1504 64.5755 14.0287C65.0071 13.7773 65.4599 13.2377 65.9947 12.5261C66.7918 11.46 67.7265 10.0208 68.6745 8.7431C69.6145 7.46272 70.5863 6.34635 71.3515 5.94954C71.6004 5.81991 71.8282 5.767 72.04 5.767C72.4134 5.767 72.7682 5.93102 73.1018 6.2035C73.6049 6.61354 74.0339 7.26167 74.3278 7.80662C74.4761 8.07646 74.59 8.32248 74.6668 8.49973C74.7435 8.67697 74.7833 8.77749 74.7833 8.77749L74.8706 9.01294C74.8706 9.01294 76.5044 8.34365 78.8452 8.34365C81.186 8.34365 82.8224 9.00765 82.8224 9.00765L82.9072 8.77749L82.9575 8.65051C83.0766 8.35687 83.4129 7.60822 83.8948 6.95215C84.1358 6.62147 84.4138 6.31725 84.713 6.10562C85.0123 5.89134 85.3247 5.76436 85.6478 5.76436C85.8623 5.76436 86.0873 5.81726 86.3389 5.94689C87.3663 6.47598 88.73 8.28545 89.9533 10.0526C90.5703 10.9388 91.1608 11.8118 91.693 12.5234C92.2305 13.235 92.6807 13.7773 93.1123 14.026C93.3268 14.1477 93.4671 14.3355 93.5678 14.6292C93.6657 14.9202 93.7081 15.309 93.7081 15.7641C93.7081 17.1132 93.3453 19.0206 93.3427 20.9279C93.3427 22.039 93.4777 23.1527 93.8855 24.1739C93.3083 24.6553 92.4397 25.5706 91.6692 26.859" fill="#183264"/>
<g id="Group_6">
<g id="Group_7">
<path id="Vector_15" d="M59.9573 22.0549C59.3483 22.1158 58.8478 22.166 58.5619 22.2031C58.2759 22.2428 58.3235 21.6608 58.6916 21.5946C58.9167 21.5549 59.4171 21.4518 60.05 21.4147C60.6829 21.3777 61.5381 21.3989 62.6926 21.5787C63.2408 21.6396 63.4552 21.7137 63.3334 22.0523C63.2566 22.2613 63.2037 22.2137 62.6053 22.1422C62.0068 22.0708 60.6246 21.9914 59.96 22.0523L59.9573 22.0549Z" fill="#183264"/>
<path id="Vector_16" d="M58.9909 20.3009C59.2001 20.2665 59.6476 20.1819 60.209 20.1528C60.7995 20.121 61.5886 20.1634 62.6027 20.3062C63.1323 20.3803 63.3336 20.4517 63.2118 20.7771C63.1403 20.9702 63.1005 20.9438 62.5604 20.8882C62.0864 20.8406 61.0987 20.7771 60.4711 20.7903C60.3599 20.793 60.2461 20.7983 60.1401 20.8062C59.5947 20.8512 59.1074 20.8961 58.8532 20.9305C58.562 20.9649 58.6202 20.3618 58.9883 20.3036L58.9909 20.3009Z" fill="#183264"/>
<path id="Vector_17" d="M59.2873 19.0074C59.4806 18.981 59.8751 18.9095 60.3623 18.8884C60.9131 18.8646 61.636 18.9016 62.5072 19.0286C63.0235 19.1053 63.2036 19.1847 63.0871 19.4942C63.0209 19.6714 62.997 19.6661 62.5125 19.6291C62.0703 19.5947 61.1567 19.5312 60.6192 19.5444C60.5291 19.5444 60.4232 19.5497 60.32 19.5577C59.8354 19.5921 59.3667 19.6291 59.1443 19.6582C58.8477 19.6899 58.9139 19.0603 59.2846 19.0101L59.2873 19.0074Z" fill="#183264"/>
<path id="Vector_18" d="M59.5867 17.7136C59.7641 17.6925 60.1057 17.6369 60.5214 17.6237C61.0325 17.6078 61.6892 17.6396 62.4173 17.7533C62.9178 17.83 63.0793 17.92 62.9655 18.2163C62.9046 18.3776 62.894 18.3935 62.4703 18.3723C62.0599 18.3512 61.2178 18.2877 60.773 18.2983C60.7068 18.2983 60.6088 18.3009 60.5055 18.3062C60.0819 18.33 59.6291 18.3591 59.4411 18.3803C59.1365 18.4094 59.2133 17.756 59.5841 17.711L59.5867 17.7136Z" fill="#183264"/>
<path id="Vector_19" d="M59.8859 16.4175C60.0474 16.4017 60.336 16.3646 60.6802 16.3567C61.1489 16.3461 61.7421 16.3778 62.3299 16.4731C62.8145 16.5524 62.9601 16.653 62.8489 16.9334C62.7906 17.0762 62.7959 17.1186 62.4305 17.1106C62.0519 17.1027 61.284 17.0418 60.9291 17.0471C60.8841 17.0471 60.7967 17.0471 60.6935 17.0524C60.3334 17.0657 59.8938 17.0868 59.7402 17.1027C59.4304 17.1265 59.5151 16.4493 59.8885 16.4149L59.8859 16.4175Z" fill="#183264"/>
<path id="Vector_20" d="M60.1849 15.1238C60.3306 15.1132 60.5636 15.092 60.8363 15.092C61.2653 15.0947 61.7922 15.1211 62.2371 15.1979C62.7084 15.2799 62.8355 15.3883 62.7243 15.6555C62.6713 15.7825 62.6899 15.8486 62.3854 15.8566C62.0358 15.8645 61.3421 15.801 61.0799 15.8063C61.0587 15.8063 60.9793 15.8063 60.876 15.8063C60.5768 15.8116 60.1558 15.8222 60.0313 15.8328C59.7162 15.8539 59.8089 15.1476 60.1849 15.1238Z" fill="#183264"/>
<path id="Vector_21" d="M62.6026 14.3752C62.7085 14.1212 62.6026 14.0075 62.1445 13.9202C61.6891 13.8329 60.8603 13.8144 60.4816 13.8276C60.103 13.8408 60.0023 14.5736 60.3227 14.5577C60.4525 14.5498 61.2283 14.5577 61.2283 14.5577C61.4004 14.5577 62.0201 14.6239 62.3378 14.5974C62.5841 14.5762 62.5523 14.4863 62.6 14.3752H62.6026Z" fill="#183264"/>
</g>
<path id="Vector_22" d="M58.7498 24.6501C59.4806 24.4676 60.4524 24.4993 61.6705 24.74C62.0942 24.8617 62.306 24.8009 62.306 24.5602C62.306 24.2559 62.1868 24.0734 61.9432 24.0126C60.5451 23.83 59.5415 23.7983 58.9352 23.92C58.3261 24.0443 58.0984 24.0893 57.9025 24.2321C57.7065 24.375 57.68 24.8803 57.7966 24.8803C57.9607 24.8803 58.2388 24.7903 58.7525 24.6501" fill="#183264"/>
<path id="Vector_23" d="M59.6898 23.2903C59.0808 23.3512 58.5485 23.539 58.2625 23.5787C57.9766 23.6183 58.056 22.8988 58.4214 22.8327C58.6465 22.793 59.147 22.6898 59.7798 22.6528C60.4127 22.6157 61.268 22.6369 62.4225 22.8168C62.9706 22.8776 62.9282 23.0073 62.8038 23.3459C62.727 23.5549 62.3669 23.5416 61.7684 23.4676C61.17 23.3961 60.3544 23.2295 59.6871 23.2903H59.6898Z" fill="#183264"/>
</g>
<g id="Group_8">
<g id="Group_9">
<path id="Vector_24" d="M97.7515 22.0549C98.3605 22.1158 98.861 22.166 99.147 22.2031C99.433 22.2428 99.3853 21.6608 99.0172 21.5946C98.7922 21.5549 98.2917 21.4518 97.6588 21.4147C97.026 21.3777 96.1707 21.3989 95.0162 21.5787C94.4681 21.6396 94.2536 21.7137 94.3754 22.0523C94.4522 22.2613 94.5051 22.2137 95.1036 22.1422C95.702 22.0708 97.0842 21.9914 97.7489 22.0523L97.7515 22.0549Z" fill="#183264"/>
<path id="Vector_25" d="M98.7181 20.3009C98.5089 20.2665 98.0614 20.1819 97.5001 20.1528C96.9096 20.121 96.1205 20.1634 95.1063 20.3062C94.5767 20.3803 94.3755 20.4517 94.4973 20.7771C94.5688 20.9702 94.6085 20.9438 95.1487 20.8882C95.6227 20.8406 96.6104 20.7771 97.2379 20.7903C97.3491 20.793 97.463 20.7983 97.5689 20.8062C98.1144 20.8512 98.6016 20.8961 98.8558 20.9305C99.1471 20.9649 99.0888 20.3618 98.7208 20.3036L98.7181 20.3009Z" fill="#183264"/>
<path id="Vector_26" d="M98.4188 19.0074C98.2255 18.981 97.8309 18.9095 97.3437 18.8884C96.793 18.8646 96.0701 18.9016 95.1989 19.0286C94.6825 19.1053 94.5025 19.1847 94.619 19.4942C94.6852 19.6714 94.709 19.6661 95.1936 19.6291C95.6358 19.5947 96.5493 19.5312 97.0869 19.5444C97.1769 19.5444 97.2828 19.5497 97.3861 19.5577C97.8707 19.5921 98.3394 19.6291 98.5618 19.6582C98.8584 19.6899 98.7922 19.0603 98.4214 19.0101L98.4188 19.0074Z" fill="#183264"/>
<path id="Vector_27" d="M98.1196 17.7136C97.9422 17.6925 97.6006 17.6369 97.1849 17.6237C96.6738 17.6078 96.0171 17.6396 95.2889 17.7533C94.7885 17.83 94.627 17.92 94.7408 18.2163C94.8017 18.3776 94.8123 18.3935 95.236 18.3723C95.6464 18.3512 96.4885 18.2877 96.9333 18.2983C96.9995 18.2983 97.0975 18.3009 97.2008 18.3062C97.6244 18.33 98.0772 18.3591 98.2652 18.3803C98.5697 18.4094 98.493 17.756 98.1222 17.711L98.1196 17.7136Z" fill="#183264"/>
<path id="Vector_28" d="M97.8204 16.4175C97.6589 16.4017 97.3702 16.3646 97.026 16.3567C96.5573 16.3461 95.9642 16.3778 95.3763 16.4731C94.8918 16.5524 94.7461 16.653 94.8573 16.9334C94.9156 17.0762 94.9103 17.1186 95.2757 17.1106C95.6544 17.1027 96.4223 17.0418 96.7771 17.0471C96.8221 17.0471 96.9095 17.0471 97.0128 17.0524C97.3729 17.0657 97.8124 17.0868 97.966 17.1027C98.2758 17.1265 98.1911 16.4493 97.8177 16.4149L97.8204 16.4175Z" fill="#183264"/>
<path id="Vector_29" d="M97.5211 15.1238C97.3755 15.1132 97.1425 15.092 96.8697 15.092C96.4408 15.0947 95.9138 15.1211 95.469 15.1979C94.9977 15.2799 94.8706 15.3883 94.9818 15.6555C95.0347 15.7825 95.0162 15.8486 95.3207 15.8566C95.6702 15.8645 96.364 15.801 96.6261 15.8063C96.6473 15.8063 96.7268 15.8063 96.83 15.8063C97.1292 15.8116 97.5503 15.8222 97.6747 15.8328C97.9898 15.8539 97.8971 15.1476 97.5211 15.1238Z" fill="#183264"/>
<path id="Vector_30" d="M95.1037 14.3752C94.9978 14.1212 95.1037 14.0075 95.5618 13.9202C96.0172 13.8329 96.846 13.8144 97.2247 13.8276C97.6033 13.8408 97.704 14.5736 97.3836 14.5577C97.2538 14.5498 96.478 14.5577 96.478 14.5577C96.3058 14.5577 95.6862 14.6239 95.3685 14.5974C95.1222 14.5762 95.154 14.4863 95.1063 14.3752H95.1037Z" fill="#183264"/>
</g>
<path id="Vector_31" d="M98.959 24.6501C98.2282 24.4676 97.2564 24.4993 96.0383 24.74C95.6147 24.8617 95.4028 24.8009 95.4028 24.5602C95.4028 24.3194 95.522 24.0734 95.7656 24.0126C97.1637 23.83 98.1673 23.7983 98.7737 23.92C99.3827 24.0443 99.6104 24.0893 99.8064 24.2321C99.997 24.3697 100.029 24.8803 99.9123 24.8803C99.7481 24.8803 99.4701 24.7903 98.9564 24.6501" fill="#183264"/>
<path id="Vector_32" d="M98.0189 23.2903C98.628 23.3512 99.1602 23.539 99.4462 23.5787C99.7321 23.6183 99.6527 22.8988 99.2873 22.8327C99.0622 22.793 98.5617 22.6898 97.9289 22.6528C97.296 22.6157 96.4408 22.6369 95.2863 22.8168C94.7381 22.8776 94.7805 23.0073 94.9049 23.3459C94.9817 23.5549 95.3419 23.5416 95.9403 23.4676C96.5387 23.3961 97.3543 23.2295 98.0216 23.2903H98.0189Z" fill="#183264"/>
</g>
<path id="Vector_33" d="M78.1169 10.6584C78.4797 10.6584 78.771 10.3647 78.771 10.0049C78.771 9.64516 78.4771 9.34888 78.1169 9.34888C77.7568 9.34888 77.4629 9.64252 77.4629 10.0049C77.4629 10.3674 77.7568 10.6584 78.1169 10.6584Z" fill="white"/>
<path id="Vector_34" d="M76.6553 13.1082C76.9227 13.1082 77.1372 12.8939 77.1372 12.6267C77.1372 12.3595 76.9201 12.1453 76.6553 12.1453C76.3905 12.1453 76.1733 12.3595 76.1733 12.6267C76.1733 12.8939 76.3905 13.1082 76.6553 13.1082Z" fill="white"/>
<path id="Vector_35" d="M82.1497 17.8831C81.8505 15.2457 80.741 14.9891 80.1532 13.4785C79.801 12.5738 79.9228 12.0129 80.41 11.8383C80.6192 11.7643 80.8125 11.386 80.4815 11.0394C80.1532 10.6902 78.853 10.3648 78.432 12.259C78.109 13.7272 79.3482 14.3541 79.2343 15.6398C79.1549 16.5181 78.6015 16.9837 77.9713 16.9837C77.341 16.9837 77.1477 16.2403 77.4734 15.7695C77.7065 15.4308 78.2519 14.7166 77.8203 14.1214C77.3861 13.5261 76.9041 13.6267 76.8168 13.751C76.7294 13.8753 77.0392 14.6981 76.642 15.3435C76.4275 15.6954 75.6967 16.2192 75.5696 17.8831C76.4858 17.907 77.5635 17.9228 78.8213 17.9228C80.079 17.9228 81.2097 17.907 82.1418 17.8831" fill="white"/>
<path id="Vector_36" d="M86.1798 17.6794C86.1798 17.6794 85.1604 17.8249 82.155 17.8884C82.155 17.8884 82.1391 18.2032 82.0649 18.5128C81.5168 20.8645 79.9466 21.5365 78.7841 21.5365C77.6217 21.5365 75.882 20.6741 75.6278 18.7614C75.551 18.1741 75.5695 17.8911 75.5695 17.8911C72.5324 17.8276 71.5288 17.6794 71.5288 17.6794C70.7397 17.6794 70.0936 18.2932 69.5905 19.518C69.196 20.4809 69 21.5947 69 22.5364C69 23.1264 69.0318 23.5867 69.098 23.9147C69.1827 24.2216 69.3813 24.375 69.6911 24.375C70.1386 24.375 70.6867 23.7666 71.4308 22.4703C72.2331 21.0762 73.0487 20.2482 74.6798 20.2482C75.228 20.2482 76.1945 20.7772 76.1945 22.1423C76.1945 22.6687 76.2977 27.74 76.3454 30.1897C76.3957 32.6446 76.4354 34.8906 76.4354 35.6683C76.4354 37.0281 76.0938 38.0439 75.6331 38.7212C75.1724 39.3984 74.942 39.8798 74.942 40.1656C74.942 40.4936 75.2756 40.6576 75.927 40.6576C76.5784 40.6576 76.9121 40.2502 78.8503 40.2502C80.7886 40.2502 81.1514 40.6576 81.7737 40.6576C82.3959 40.6576 82.7587 40.4936 82.7587 40.1656C82.7587 39.8825 82.5283 39.401 82.0676 38.7212C81.6068 38.0439 81.2653 37.0254 81.2653 35.6683C81.2653 34.9541 81.305 32.9912 81.3474 30.7717C81.395 28.4648 81.5062 22.6925 81.5062 22.1449C81.5062 20.7799 82.4727 20.2508 83.0209 20.2508C84.652 20.2508 85.4675 21.0788 86.2725 22.473C87.0192 23.7692 87.5674 24.3777 88.0149 24.3777C88.322 24.3777 88.518 24.2242 88.6054 23.9174C88.6716 23.5893 88.7033 23.129 88.7033 22.5391C88.7033 21.5973 88.5047 20.4836 88.1128 19.5207C87.6071 18.2958 86.961 17.6821 86.1746 17.6821" fill="white"/>
<g id="Group_10">
<path id="Vector_37" d="M14.5822 89.9076H8.24043C6.1565 89.9076 5.59778 88.5399 5.59778 87.733C5.59778 87.0823 5.88111 86.3891 6.5431 85.413C6.64902 85.2543 6.89792 84.7516 6.89792 83.4977C6.89792 81.7517 6.87674 79.3047 6.83702 76.1487C6.79995 73.3208 6.77877 71.5457 6.77612 70.8261C6.36834 70.8843 5.91554 71.0986 5.47333 71.8102C4.46447 73.4239 3.59329 74.4239 2.36465 74.4239C1.28164 74.4239 0.415764 73.7334 0.158914 72.6647C0.0529964 72.2308 0.00268555 71.6938 0.00268555 70.9795C0.00268555 69.8738 0.233056 68.7521 0.688502 67.6437C1.63647 65.3342 3.06635 64.8501 4.09905 64.8501H18.4827C19.3909 64.8501 20.654 65.2919 21.496 67.395C21.9674 68.5722 22.2057 69.7785 22.2057 70.9822V71.3843C22.2057 71.9372 22.1395 72.416 21.9991 72.8472C21.6893 73.8181 20.8764 74.4239 19.8728 74.4239H18.9328L18.4271 73.6329C17.8736 72.7679 17.2911 72.0166 16.6927 71.4028C16.412 71.1039 16.1154 70.9187 15.7712 70.8235L15.8639 83.548C15.8639 84.1009 15.9565 84.5479 16.1472 84.9289C16.4385 85.5135 16.7509 86.0876 17.0819 86.6537L17.3176 87.0558V87.5187C17.3176 88.4023 16.7933 89.1668 15.9142 89.5689C15.4137 89.7991 14.9874 89.9102 14.5822 89.9102V89.9076Z" fill="#183264"/>
<path id="Vector_38" d="M39.743 89.9076H33.7905C33.155 89.9076 32.6757 89.8309 32.2811 89.6669C31.4735 89.3388 30.9625 88.5822 30.9625 87.7013C30.9625 87.0267 31.2405 86.3336 31.8336 85.5188C31.8839 85.4501 32.0455 85.1697 32.0455 84.4236V76.2784C31.6986 76.445 31.3226 76.6805 30.928 76.9821C29.62 77.9662 29.4717 78.7915 29.4717 79.3286V83.593C29.4717 84.7067 29.6041 85.2384 29.6809 85.458C29.8556 85.8416 30.0833 86.3416 30.3243 86.8389L30.4938 87.1908V87.5796C30.4938 88.3521 30.1098 89.0426 29.4399 89.4685C29.0056 89.7515 28.4813 89.9076 27.9438 89.9076H22.4996C21.7503 89.9076 21.181 89.8203 20.7043 89.6351C19.7855 89.2859 19.2083 88.4606 19.2083 87.4844V86.7781L19.7087 86.2781C19.7087 86.2781 19.9603 86.0188 20.2357 85.0744C20.3866 84.5533 20.5693 83.4607 20.5693 81.2121V75.0932C20.5693 72.1092 20.4051 70.596 20.2542 69.8368C19.9497 69.2442 19.6558 68.641 19.3698 68.0326L19.2083 67.6887V67.3077C19.2083 66.5062 19.5896 65.7919 20.2542 65.3528C20.7335 65.0327 21.271 64.8819 21.8218 64.9136H28.0365C28.6852 64.9136 29.2281 65.0776 29.657 65.3977C30.2316 65.8263 30.5256 66.5009 30.5256 67.3977C30.5256 68.1014 30.2449 68.8103 29.6941 69.5087C29.6305 69.5881 29.5988 69.731 29.5988 69.932V70.9717C29.9086 70.8896 30.176 70.8314 30.4064 70.8024C31.1107 70.7151 31.59 70.6436 31.9157 70.5828L31.8945 70.0987C31.8945 69.9214 31.8575 69.686 31.6112 69.2945C31.0684 68.4294 30.8089 67.9135 30.8089 67.3368C30.8089 66.1914 31.5821 64.8528 33.7613 64.8528H38.9275C42.06 64.8528 42.2189 66.948 42.2189 67.3686C42.2189 68.2442 41.6496 68.8685 41.4642 69.0749C41.4642 69.0749 41.1359 69.5828 41.1359 71.6965V82.7279C41.1359 84.3892 41.2735 85.1273 41.3556 85.421C41.5992 85.9051 41.8429 86.3839 42.0865 86.8521L42.2798 87.2225V87.6405C42.2798 88.6114 41.6866 89.4129 40.736 89.7304L40.4262 89.8018C40.1667 89.8362 39.9946 89.86 39.9099 89.8785L39.7457 89.9103L39.743 89.9076Z" fill="#183264"/>
<path id="Vector_39" d="M43.0396 89.9393C42.3882 89.9393 41.848 89.844 41.3847 89.6483C40.7968 89.4075 40.2964 88.9499 39.9442 88.3361L39.8038 88.0901L39.7482 87.815C39.6661 87.397 39.6238 86.9632 39.6238 86.524C39.6238 85.7198 39.7429 84.868 39.976 83.995C40.1772 83.249 40.3811 82.5215 40.5903 81.8046C41.096 80.1803 41.5488 78.7756 41.9566 77.5693C42.3617 76.3656 42.8649 74.9238 43.4686 73.244C43.9664 71.8895 44.4616 70.5324 44.9567 69.1727C44.9514 69.1621 44.9435 69.1515 44.9355 69.1383C44.4669 68.424 44.2656 67.8923 44.2656 67.3606C44.2656 66.9056 44.4166 66.0352 45.4148 65.3209L45.7961 65.0485L46.9745 64.9453C49.2199 64.94 51.1264 64.9294 52.8423 64.9083C54.5608 64.8871 56.0887 64.8686 57.4285 64.8474C58.0905 64.8474 58.6837 65.1358 59.1232 65.6596L59.6078 66.2045L59.7058 66.7336C59.809 67.3976 59.6502 68.0854 59.2265 68.8367C59.1947 68.8923 59.1709 68.9372 59.1523 68.9769C60.1612 71.9213 60.757 73.6646 60.9371 74.2096C61.6679 76.4423 62.2398 78.347 62.6397 79.884C63.1719 81.9289 63.5612 83.9368 63.7942 85.8547V85.8653C63.9027 86.7912 63.7042 87.6721 63.2222 88.4155L62.9045 88.7806C62.1683 89.4155 61.3713 89.7514 60.5399 89.7805C60.1692 89.8202 59.7322 89.8546 59.2265 89.8731C58.7075 89.8943 58.2097 89.9049 57.733 89.9049H57.3915C56.4965 89.9049 55.62 89.8334 54.7885 89.6959L54.3146 89.6165L53.9518 89.3017C53.409 88.8361 53.1097 88.1774 53.1097 87.4526C53.1097 87.106 53.1468 86.8441 53.2315 86.5954L53.3348 86.2939L53.5387 86.0478C53.83 85.6986 54.0445 85.4341 54.1822 85.2595C54.2484 85.1722 54.2881 85.1061 54.3146 85.0585C54.2907 84.0796 54.1318 82.995 53.8432 81.839C53.7797 81.5824 53.687 81.2596 53.5705 80.8681C53.1548 81.1988 52.739 81.4395 52.3101 81.6035L52.1353 81.6591C51.9023 81.7199 51.6428 81.7464 51.2668 81.7464C49.7442 81.7464 48.9869 80.7517 48.9101 79.7676L48.8916 79.5322L48.9392 79.2994C48.9551 79.2227 48.9657 79.1592 48.971 79.1142C48.971 79.0877 48.9763 79.0639 48.979 79.0428C48.8148 79.0084 48.6983 79.0269 48.5367 79.0533C47.6338 79.4793 47.0168 80.2173 46.6011 81.3628C46.4184 81.8919 46.143 83.0532 45.9073 85.4817C46.4952 86.1828 46.8606 86.7595 46.8606 87.4552C46.8606 87.9261 46.6832 89.0901 45.0521 89.6827L44.6469 89.7752C44.4589 89.7964 44.2391 89.8229 43.9849 89.8599C43.6142 89.9155 43.2965 89.9393 43.0449 89.9393H43.0396ZM50.949 73.0932C50.949 73.0932 50.949 73.0958 50.949 73.0985V73.0932Z" fill="#183264"/>
<path id="Vector_40" d="M76.9414 89.9076H64.0432C63.6487 89.9076 63.233 89.8335 62.8119 89.6933C61.8693 89.3811 61.2761 88.5796 61.2761 87.6087C61.2761 87.1034 61.4588 86.5876 62.0017 85.5691C62.1235 85.3389 62.3274 84.7807 62.3274 83.5903C62.3274 82.7729 62.2956 80.8867 62.2347 77.9397C62.1738 74.9556 62.142 73.0377 62.142 72.1859C62.142 70.7706 61.9911 70.0589 61.8825 69.7309C61.5886 69.1833 61.2947 68.6251 61.0034 68.059L60.8127 67.6886V67.2733C60.8127 66.3104 61.345 65.5115 62.2347 65.1384C62.706 64.9427 63.2462 64.8501 63.8897 64.8501H69.829C70.4115 64.8501 70.6843 64.8792 70.9517 64.9665C71.9765 65.2892 72.6252 66.1755 72.6252 67.2733C72.6252 67.9505 72.2704 68.5352 71.6137 69.3764C71.4178 69.6277 71.3277 69.9214 71.3277 70.3023V78.8021C71.3277 79.0693 71.3224 79.3523 71.3118 79.6512C71.3092 79.7385 71.3065 79.8285 71.3039 79.9184C71.5872 79.5772 72.0029 79.2412 72.6093 78.9555C74.9792 77.8286 77.365 78.3127 79.4754 80.0877C81.0483 81.4157 81.8798 83.1168 81.8798 85.0135C81.8798 86.1854 81.5276 87.2251 80.8312 88.1113C79.9071 89.2859 78.5645 89.9076 76.9466 89.9076H76.9414ZM71.4151 82.8813C71.476 83.3707 71.5501 83.6988 71.619 83.921C71.897 84.8178 72.1777 84.8178 72.3657 84.8178C72.6093 84.8178 72.6888 84.7516 72.7708 84.6643C72.8635 84.5638 72.9721 84.4183 72.9721 84.3046C72.9721 84.2411 72.9721 84.1961 72.8529 84.0876C72.4107 83.7331 71.9103 83.3152 71.4177 82.884L71.4151 82.8813Z" fill="#183264"/>
<path id="Vector_41" d="M98.853 89.9074H92.903C92.2675 89.9074 91.7883 89.8307 91.3937 89.6667C90.5861 89.3387 90.0751 88.5821 90.0751 87.7012C90.0751 87.0266 90.3504 86.3335 90.9436 85.5213C90.9965 85.4499 91.1581 85.1721 91.1581 84.4261V76.2809C90.8112 76.4475 90.4352 76.683 90.0433 76.9845C88.7352 77.9686 88.5869 78.794 88.5869 79.331V83.5955C88.5869 84.7118 88.7167 85.2436 88.7961 85.4605C88.9709 85.8467 89.2012 86.344 89.4395 86.8414L89.6064 87.1906V87.5795C89.6064 88.3546 89.2224 89.045 88.5498 89.4709C88.1182 89.754 87.5966 89.9101 87.0564 89.9101H81.6122C80.8629 89.9101 80.2909 89.8228 79.8169 89.6376C78.9007 89.2884 78.3235 88.463 78.3235 87.4869V86.7806L78.8239 86.2806C78.8478 86.2568 79.0808 86.0054 79.3535 85.0769C79.5045 84.5557 79.6872 83.4632 79.6872 81.2172V75.0984C79.6872 72.1196 79.5256 70.6038 79.3721 69.8419C79.0676 69.2493 78.7736 68.6462 78.4877 68.0377L78.3261 67.6938V67.3129C78.3261 66.5139 78.7074 65.8023 79.3694 65.3605C79.8513 65.0378 80.3915 64.8791 80.9397 64.9214H87.1544C87.8005 64.9214 88.3433 65.0854 88.7696 65.4029C89.3495 65.842 89.6408 66.5139 89.6408 67.4055C89.6408 68.1118 89.3601 68.8234 88.8067 69.5192C88.7458 69.5959 88.714 69.7387 88.714 69.9398V70.9794C89.0238 70.8974 89.2939 70.8392 89.5243 70.8101C90.2286 70.7255 90.7079 70.6514 91.0336 70.5905L91.0124 70.1038C91.0124 69.9292 90.9754 69.6937 90.7291 69.2996C90.1863 68.4345 89.9294 67.9187 89.9294 67.342C89.9294 66.1965 90.7026 64.8579 92.8792 64.8579H98.0453C101.178 64.8579 101.337 66.9531 101.337 67.3737C101.337 68.2546 100.767 68.879 100.582 69.0827C100.582 69.0827 100.256 69.5932 100.256 71.7016V82.733C100.256 84.3944 100.394 85.1351 100.476 85.4287C100.717 85.9128 100.961 86.389 101.204 86.8573L101.398 87.2303V87.6482C101.398 88.6191 100.807 89.418 99.8539 89.7355L99.5414 89.8096C99.2819 89.8439 99.1072 89.8704 99.0171 89.8863L98.8556 89.918L98.853 89.9074Z" fill="#183264"/>
<path id="Vector_42" d="M102.857 89.9128C102.285 89.9128 101.665 89.717 101.141 89.3414C100.182 88.6483 100.039 87.7859 100.039 87.3309C100.039 86.5981 100.45 85.942 101.157 85.0584C101.398 84.7569 101.525 84.2066 101.525 83.4685L101.493 70.8631C101.493 70.0747 101.353 69.752 101.292 69.6488C101.019 69.2679 100.685 68.76 100.36 68.2388L100.1 67.8235V67.3341C100.1 66.3712 100.556 65.5881 101.35 65.1887C101.805 64.9611 102.322 64.85 102.896 64.85H112.702C113.891 64.85 114.749 64.8262 115.249 64.7813C115.795 64.731 116.351 64.6675 116.923 64.5881L117.156 64.5723C118.072 64.5723 119.269 65.067 119.761 67.4187C119.928 68.1753 120.013 68.9425 120.013 69.6832C120.013 70.4239 119.928 70.9186 119.74 71.3366C119.364 72.1752 118.466 72.6884 117.526 72.6276C117.971 73.4344 118.188 74.1831 118.188 74.9053C118.188 76.8497 117.357 78.3814 115.787 79.3337C114.513 80.1009 113.419 80.3258 112.437 80.0401L112.135 79.9528L111.884 79.7623C111.372 79.3787 111.079 78.7888 111.079 78.1486C111.079 77.9793 111.102 77.8153 111.139 77.6565C111.065 77.7782 110.989 77.9422 110.909 78.1645C110.647 78.9184 110.512 80.0189 110.512 81.4236V82.4897C110.512 82.7622 110.523 83.0135 110.538 83.241C110.544 84.0479 110.684 84.2648 110.687 84.2754C110.753 84.3706 111.081 84.3786 111.179 84.3786C112.183 84.3786 113.083 84.0558 113.933 83.3892L117.46 79.8655H118.17C118.959 79.8655 119.668 80.2649 120.119 80.958C120.434 81.4368 120.595 81.9606 120.595 82.5056C120.595 83.3998 120.402 84.3997 120.007 85.5584C119.639 86.6404 119.195 87.6219 118.683 88.479L118.358 88.8758C118.048 89.1562 117.725 89.3837 117.402 89.553C116.968 89.7832 116.472 89.9022 115.943 89.9022H103.01C102.955 89.9049 102.902 89.9075 102.846 89.9075L102.857 89.9128ZM102.923 86.487H102.912H102.936H102.923ZM112.238 70.006C111.587 70.006 111.15 70.1382 110.936 70.3975C110.92 70.4134 110.904 70.4345 110.891 70.4557C111.402 70.2361 111.95 70.0906 112.527 70.0139C112.432 70.0086 112.336 70.006 112.238 70.006Z" fill="#183264"/>
<path id="Vector_43" d="M129.59 89.9076H123.156C122.698 89.9076 122.226 89.7621 121.683 89.4499C120.587 88.815 120.42 87.9288 120.42 87.4553V86.9711L120.675 86.5585C120.955 86.1034 121.212 85.5849 121.437 85.0162C121.567 84.6934 121.721 84.0585 121.721 82.8522V70.8314C121.721 70.1224 121.591 69.7627 121.511 69.6119C121.247 69.1013 120.971 68.5828 120.688 68.059L120.484 67.6781V67.2442C120.484 66.5088 120.773 65.8633 121.297 65.4215C121.89 64.9189 122.679 64.8501 123.373 64.8501H129.373C130.043 64.8501 130.628 65.0115 131.115 65.3316C131.804 65.7786 132.201 66.522 132.201 67.3659C132.201 67.9902 131.931 68.604 131.235 69.551C131.033 69.8261 130.933 70.2547 130.933 70.8261L130.901 82.9131C130.901 84.0797 131.108 84.9791 131.499 85.5135C132.01 86.2066 132.262 86.8653 132.262 87.5135C132.262 88.3256 131.815 89.0399 131.039 89.4816C130.538 89.7647 130.062 89.9049 129.59 89.9049V89.9076Z" fill="#183264"/>
<path id="Vector_44" d="M136.146 90.0002C134.748 90.0002 133.753 89.6616 133.099 88.9632C132.582 88.3971 132.328 87.6458 132.328 86.7119V86.3098C132.328 84.6591 132.479 82.6327 132.776 80.2862H132.778C132.823 79.9105 132.993 78.7466 133.612 74.4451C133.98 71.8843 134.06 70.8288 134.06 70.395C134.06 70.178 134.018 69.8368 133.639 69.3712C132.993 68.5775 132.855 67.8104 132.855 67.3051C132.855 66.1676 133.671 64.9427 135.466 64.9427H139.147C140.674 64.9427 141.945 65.6305 142.825 66.9347C143.362 67.858 143.831 68.6648 144.302 69.4638C144.578 69.969 144.842 70.4505 145.107 70.9267C145.42 70.2494 145.671 69.723 145.843 69.3817C146.669 67.776 147.112 66.9294 147.178 66.821C148.282 65.1808 149.556 64.8528 150.437 64.8528H154.274C154.857 64.8528 155.352 64.9586 155.784 65.1729C156.551 65.5565 157.007 66.3184 157.007 67.2125C157.007 68.1067 156.451 68.858 156.032 69.3262C155.964 69.4029 155.927 69.5775 155.927 69.8077C155.927 70.0246 155.974 70.8182 156.427 73.4769C156.925 76.4212 157.256 78.4529 157.423 79.5719C157.812 82.2279 157.997 84.2199 157.997 85.6617C157.997 86.9923 157.703 87.9711 157.102 88.651C156.326 89.5028 155.143 89.9076 153.467 89.9076H149.818C149.315 89.9076 148.806 89.7515 148.274 89.4341C147.21 88.7939 147.051 87.9368 147.051 87.4844C147.051 86.5982 147.48 85.7781 148.322 85.048C148.377 85.0003 148.412 84.9712 148.412 84.7966C148.412 83.3179 148.271 81.5666 147.996 79.5957C147.97 79.4132 147.901 78.9767 147.784 78.2836C147.755 78.3418 147.726 78.3974 147.697 78.4556C146.349 81.0904 145.978 81.6116 145.735 81.892C144.908 82.8708 143.998 83.0771 143.381 83.0771C141.506 83.0771 140.431 81.2571 140.079 80.6592L138.919 78.4476L138.882 78.3788C138.741 80.8073 138.667 83.1538 138.659 85.4077C138.683 85.4368 138.712 85.4686 138.747 85.5083C139.395 86.2331 139.711 86.9315 139.711 87.6405C139.711 88.5188 139.168 89.5743 137.645 89.9023C137.391 89.9526 137.023 90.0028 136.139 90.0028L136.146 90.0002Z" fill="#183264"/>
</g>
<g id="Group_11">
<path id="Vector_45" d="M20.4899 70.982V71.3841C20.4899 71.7571 20.4475 72.0693 20.3654 72.3259C20.2834 72.5851 20.1192 72.7121 19.8703 72.7121C19.2507 71.7439 18.6019 70.9106 17.9214 70.2095C17.18 69.4265 16.2611 69.035 15.1675 69.035C14.7968 69.035 14.5188 69.1831 14.3334 69.482C14.1481 69.781 14.0554 70.1566 14.0554 70.609L14.1481 83.5583C14.1481 84.3625 14.3017 85.0742 14.6115 85.6932C14.9213 86.3096 15.2496 86.918 15.6018 87.5159C15.6018 87.7196 15.4667 87.8862 15.1993 88.0079C14.9319 88.1323 14.7253 88.1931 14.5797 88.1931H8.23787C7.61825 88.1931 7.30844 88.037 7.30844 87.7302C7.30844 87.463 7.52557 87.008 7.95719 86.3704C8.39145 85.7329 8.60858 84.7726 8.60858 83.4948C8.60858 81.7436 8.5874 79.2886 8.54768 76.1247C8.50531 72.9608 8.48677 71.1222 8.48677 70.609C8.48677 70.2386 8.30672 69.8947 7.94395 69.572C7.58383 69.2545 7.28991 69.0932 7.06218 69.0932C5.78323 69.0932 4.76907 69.6937 4.0144 70.9C3.26239 72.1036 2.70897 72.7068 2.35944 72.7068C2.07081 72.7068 1.89075 72.5587 1.81926 72.2597C1.74512 71.9608 1.71069 71.5349 1.71069 70.9767C1.71069 70.0905 1.89605 69.1963 2.26676 68.2889C2.74074 67.1355 3.34977 66.5588 4.09119 66.5588H18.4748C19.0309 66.5588 19.5049 67.0482 19.8968 68.027C20.2886 69.0059 20.4846 69.9899 20.4846 70.9767L20.4899 70.982Z" fill="white"/>
<path id="Vector_46" d="M40.5666 87.6402C40.5666 87.8677 40.4421 88.0212 40.1959 88.1032C39.8861 88.1455 39.6795 88.1773 39.5762 88.1958H33.7905C33.3986 88.1958 33.1153 88.1614 32.9405 88.0873C32.7657 88.0159 32.6784 87.8863 32.6784 87.7011C32.6784 87.4127 32.8584 87.0212 33.2212 86.5265C33.584 86.0318 33.764 85.3308 33.764 84.4234V74.5956C33.764 74.3681 33.5681 74.257 33.1762 74.257C32.1858 74.257 31.0922 74.7094 29.898 75.6168C28.4761 76.6882 27.7638 77.9236 27.7638 79.3257V83.5901C27.7638 84.6403 27.867 85.4551 28.0736 86.0318C28.3013 86.5477 28.537 87.0609 28.7859 87.5767C28.7859 87.7619 28.6985 87.9127 28.5237 88.0238C28.349 88.1376 28.1583 88.1931 27.9518 88.1931H22.5076C21.9913 88.1931 21.5994 88.1429 21.3319 88.037C21.0645 87.9339 20.9294 87.7487 20.9294 87.4815C21.3002 87.1085 21.6206 86.4657 21.888 85.5503C22.1554 84.635 22.2905 83.1853 22.2905 81.2092V75.0903C22.2905 72.3312 22.1554 70.3841 21.888 69.2492C21.557 68.6117 21.2393 67.9636 20.9294 67.3022C20.9294 67.0747 21.0221 66.9001 21.2075 66.7758C21.3928 66.6514 21.5782 66.6012 21.7635 66.6197H28.0418C28.3093 66.6197 28.5052 66.6673 28.6297 66.7599C28.7541 66.8525 28.815 67.0641 28.815 67.3921C28.815 67.7017 28.6588 68.0535 28.3516 68.4424C28.0418 68.8339 27.8882 69.3286 27.8882 69.9265V72.5534C27.8882 72.9026 28.0206 73.0798 28.2907 73.0798C28.4761 73.0798 28.7965 73.0057 29.2493 72.8629C29.8689 72.6565 30.3323 72.5349 30.6394 72.4925C31.8151 72.347 32.6148 72.2095 33.0385 72.0746C33.4595 71.9423 33.6713 71.7386 33.6713 71.4714L33.6104 70.0191C33.6104 69.5058 33.4304 68.9582 33.0703 68.3815C32.7075 67.8048 32.5274 67.453 32.5274 67.3313C32.5274 66.8181 32.9405 66.5588 33.764 66.5588H38.9301C39.9814 66.5588 40.5083 66.826 40.5083 67.363C40.5083 67.5085 40.4051 67.6937 40.1985 67.9186C39.6822 68.4953 39.4253 69.7519 39.4253 71.6883V82.7197C39.4253 84.2858 39.5392 85.3996 39.7669 86.0583C40.0343 86.5926 40.3044 87.1191 40.5719 87.6349L40.5666 87.6402Z" fill="white"/>
<path id="Vector_47" d="M62.0943 86.0636C62.1552 86.5979 62.052 87.0741 61.7845 87.4841C61.3317 87.8757 60.8763 88.0714 60.4235 88.0714C60.074 88.1138 59.6503 88.1455 59.1551 88.164C58.6599 88.1852 58.186 88.1958 57.7332 88.1958H57.3916C56.5866 88.1958 55.8134 88.1349 55.072 88.0106C54.9078 87.8677 54.8257 87.6826 54.8257 87.455C54.8257 87.3095 54.8363 87.2064 54.8575 87.1455C55.1673 86.7752 55.3924 86.4974 55.538 86.3122C55.8055 85.963 55.9723 85.6323 56.0332 85.3228C56.0332 84.1297 55.8584 82.8308 55.5089 81.4288C55.3235 80.6881 54.9396 79.4606 54.365 77.7516C54.3438 77.7119 54.2511 77.6908 54.087 77.6908C53.7983 78.1643 53.4567 78.6088 53.0648 79.0188C52.5909 79.5135 52.1381 79.8442 51.7038 80.0082C51.6217 80.0293 51.4761 80.0399 51.2695 80.0399C50.8565 80.0399 50.642 79.9077 50.6208 79.6378C50.6632 79.4315 50.6817 79.2886 50.6817 79.204C50.7029 79.0585 50.7135 78.9156 50.7135 78.7701C50.7135 78.4818 50.6526 78.2675 50.5281 78.1193C50.3428 77.8522 50.1045 77.6511 49.8158 77.5188C49.5272 77.3866 49.1962 77.3178 48.8255 77.3178C48.5792 77.3178 48.3091 77.3495 48.0205 77.4104C46.5986 78.0082 45.5871 79.1325 44.9886 80.7806C44.6576 81.7277 44.3902 83.2938 44.1837 85.4763C44.0804 85.7646 44.2154 86.1297 44.5861 86.5741C44.9569 87.0186 45.1422 87.3095 45.1422 87.455C45.1422 87.7011 44.9145 87.9074 44.4617 88.0714C44.2552 88.0926 44.0142 88.1243 43.7335 88.164C43.4555 88.2063 43.2225 88.2249 43.0371 88.2249C42.624 88.2249 42.2957 88.1746 42.0468 88.0688C41.8005 87.9656 41.594 87.7699 41.4271 87.4815C41.3662 87.172 41.3345 86.8519 41.3345 86.5239C41.3345 85.8651 41.4324 85.1694 41.6284 84.4366C41.8243 83.7065 42.0256 82.9896 42.2321 82.2885C42.7273 80.7013 43.1748 79.3124 43.5773 78.1167C43.9798 76.9236 44.4802 75.4898 45.076 73.8205C45.5924 72.4211 46.1061 71.0084 46.6224 69.5852C46.7045 69.4424 46.7469 69.2863 46.7469 69.1223C46.7469 68.8947 46.6171 68.5879 46.3603 68.1964C46.1034 67.8048 45.9737 67.5271 45.9737 67.3604C45.9737 67.1329 46.1193 66.9186 46.4079 66.7123L47.1202 66.6514C49.2227 66.6514 51.1371 66.6408 52.8583 66.6197C54.5795 66.5985 56.1126 66.58 57.4525 66.5588C57.5769 66.5588 57.6935 66.625 57.8073 66.7599C57.9212 66.8922 57.9874 66.9715 58.0086 66.99C58.0509 67.2572 57.9582 67.5932 57.7305 67.9953C57.5028 68.3974 57.3889 68.7122 57.3889 68.9371C57.3889 69.0191 57.4101 69.1434 57.4498 69.3074C58.5011 72.3788 59.1207 74.1909 59.306 74.7464C60.0289 76.9501 60.585 78.8045 60.9769 80.3098C61.4932 82.2859 61.864 84.2038 62.0917 86.0583L62.0943 86.0636ZM52.6915 73.1459C52.7736 73.0216 52.5988 72.5163 52.1645 71.6301C51.6694 70.6196 51.1636 69.9423 50.6499 69.5905C50.589 69.5508 50.4858 69.5296 50.3401 69.5296C50.1945 69.5296 50.0462 69.5693 49.8926 69.6513C49.7364 69.736 49.5881 69.8365 49.4451 69.9609C48.9076 70.5376 48.4442 71.2783 48.0523 72.1857C47.8458 72.638 47.5465 73.4634 47.1546 74.6565C47.1546 74.802 47.2261 74.8734 47.3718 74.8734C47.5359 74.7067 47.769 74.5083 48.0682 74.2702C48.3674 74.0322 48.6401 73.8232 48.8864 73.6353C49.3392 73.3258 49.8873 73.1724 50.5255 73.1724C50.8141 73.1724 51.1239 73.2094 51.4549 73.2809C51.7832 73.3549 52.1248 73.4502 52.4744 73.5745C52.5564 73.5745 52.6094 73.5242 52.6279 73.4184C52.6491 73.3364 52.6703 73.2438 52.6888 73.1407L52.6915 73.1459Z" fill="white"/>
<path id="Vector_48" d="M80.1612 85.0134C80.1612 85.7964 79.9335 86.4763 79.4807 87.053C78.8823 87.8149 78.0376 88.1958 76.944 88.1958H64.0459C63.8393 88.1958 63.6116 88.1561 63.3654 88.0715C63.1191 87.9895 62.9946 87.836 62.9946 87.6085C62.9946 87.4445 63.1694 87.0318 63.5189 86.3731C63.8685 85.7144 64.0459 84.7859 64.0459 83.5901C64.0459 82.7674 64.0141 80.8706 63.9532 77.9051C63.8923 74.9396 63.8605 73.0322 63.8605 72.1883C63.8605 70.7863 63.7255 69.736 63.458 69.035C63.1482 68.4583 62.8384 67.871 62.5312 67.2731C62.5312 67.006 62.6557 66.8208 62.902 66.7176C63.1482 66.6144 63.4792 66.5615 63.8923 66.5615H69.8316C70.1626 66.5615 70.3586 66.5721 70.4195 66.5933C70.7505 66.6964 70.9146 66.9239 70.9146 67.2731C70.9146 67.4186 70.6975 67.7678 70.2659 68.3234C69.8316 68.8789 69.6171 69.5403 69.6171 70.3022V78.8019C69.6171 79.0479 69.6118 79.3125 69.6013 79.5902C69.5907 79.8707 69.5854 80.1511 69.5854 80.4394C69.5854 82.233 69.7204 83.561 69.9879 84.4261C70.4221 85.8282 71.2139 86.5292 72.371 86.5292C73.0515 86.5292 73.6076 86.2911 74.0419 85.8176C74.4761 85.344 74.6906 84.8388 74.6906 84.3044C74.6906 83.7277 74.4629 83.233 74.0101 82.8203C73.4725 82.3865 72.9483 81.9447 72.4319 81.4923C72.4319 81.1219 72.7364 80.7913 73.3428 80.5029C73.9518 80.2146 74.545 80.0691 75.1222 80.0691C76.237 80.0691 77.3174 80.5135 78.3686 81.3971C79.5655 82.4076 80.1639 83.6139 80.1639 85.0134H80.1612Z" fill="white"/>
<path id="Vector_49" d="M99.6793 87.6402C99.6793 87.8677 99.5549 88.0212 99.3086 88.1032C98.9988 88.1455 98.7923 88.1773 98.689 88.1958H92.9059C92.514 88.1958 92.2307 88.1614 92.0559 88.0873C91.8811 88.0159 91.7938 87.8863 91.7938 87.7011C91.7938 87.4127 91.9738 87.0212 92.3339 86.5265C92.6967 86.0318 92.8768 85.3308 92.8768 84.4234V74.5956C92.8768 74.3681 92.6808 74.257 92.2889 74.257C91.2986 74.257 90.205 74.7094 89.0108 75.6168C87.5888 76.6882 86.8765 77.9236 86.8765 79.3257V83.5901C86.8765 84.6403 86.9798 85.4551 87.1863 86.0318C87.4141 86.5477 87.6497 87.0609 87.896 87.5767C87.896 87.7619 87.8086 87.9127 87.6339 88.0238C87.4591 88.1376 87.2684 88.1931 87.0619 88.1931H81.6177C81.1014 88.1931 80.7095 88.1429 80.442 88.037C80.1746 87.9339 80.0396 87.7487 80.0396 87.4815C80.4103 87.1085 80.7307 86.4657 80.9981 85.5503C81.2656 84.635 81.4006 83.1853 81.4006 81.2092V75.0903C81.4006 72.3312 81.2656 70.3841 80.9981 69.2492C80.6671 68.6117 80.3467 67.9636 80.0396 67.3022C80.0396 67.0747 80.1322 66.9001 80.3176 66.7758C80.5029 66.6514 80.6883 66.6012 80.8737 66.6197H87.1519C87.4194 66.6197 87.6153 66.6673 87.7398 66.7599C87.8616 66.8525 87.9251 67.0641 87.9251 67.3921C87.9251 67.7017 87.7715 68.0535 87.4617 68.4424C87.1519 68.8339 86.9983 69.3286 86.9983 69.9265V72.5534C86.9983 72.9026 87.1334 73.0798 87.4008 73.0798C87.5862 73.0798 87.9066 73.0057 88.3594 72.8629C88.979 72.6565 89.4424 72.5349 89.7522 72.4925C90.9279 72.347 91.7276 72.2095 92.1512 72.0746C92.5723 71.9423 92.7841 71.7386 92.7841 71.4714L92.7232 70.0191C92.7232 69.5058 92.5405 68.9582 92.1804 68.3815C91.8176 67.8048 91.6375 67.453 91.6375 67.3313C91.6375 66.8181 92.0506 66.5588 92.8741 66.5588H98.0403C99.0915 66.5588 99.6184 66.826 99.6184 67.363C99.6184 67.5085 99.5152 67.6937 99.3086 67.9186C98.7923 68.4953 98.5354 69.7519 98.5354 71.6883V82.7197C98.5354 84.2858 98.6493 85.3996 98.8744 86.0583C99.1418 86.5926 99.4092 87.1191 99.6793 87.6349V87.6402Z" fill="white"/>
<path id="Vector_50" d="M118.887 82.5108C118.887 83.2118 118.721 84.0452 118.392 85.0134C118.061 85.9816 117.669 86.8467 117.217 87.6085C117.01 87.7937 116.809 87.9392 116.613 88.0424C116.417 88.1456 116.194 88.1985 115.948 88.1985H103.016C102.687 88.2196 102.391 88.1376 102.134 87.9524C101.877 87.7673 101.747 87.5609 101.747 87.3334C101.747 87.1482 101.996 86.7461 102.489 86.1297C102.984 85.5107 103.233 84.6245 103.233 83.4711L103.201 70.863C103.201 69.9768 103.055 69.2863 102.767 68.7916C102.436 68.3181 102.115 67.834 101.808 67.3393C101.808 67.0298 101.911 66.8261 102.118 66.7229C102.325 66.6197 102.581 66.5668 102.891 66.5668H112.697C113.933 66.5668 114.836 66.543 115.403 66.4901C115.969 66.4399 116.552 66.3711 117.15 66.2891C117.561 66.2891 117.873 66.7838 118.08 67.7731C118.225 68.4319 118.294 69.072 118.294 69.6884C118.294 70.1434 118.255 70.4609 118.172 70.6461C118.088 70.8313 117.905 70.9238 117.616 70.9238C117.513 70.9238 116.962 70.4874 115.961 69.6117C114.963 68.7361 113.719 68.2996 112.236 68.2996C111.039 68.2996 110.162 68.6408 109.606 69.3207C109.215 69.7943 109.019 70.3604 109.019 71.0191C109.019 71.2466 109.008 71.6117 108.987 72.1169C108.966 72.6222 108.955 72.9873 108.955 73.2121C108.955 73.5851 108.971 73.8497 109.003 74.0164C109.034 74.1804 109.101 74.2624 109.204 74.2624C109.514 73.6037 110.009 73.027 110.687 72.5323C111.471 71.9556 112.397 71.6672 113.472 71.6672C114.402 71.6672 115.162 72.1196 115.763 73.027C116.237 73.7492 116.473 74.3761 116.473 74.9131C116.473 76.2517 115.948 77.2411 114.894 77.8787C114.068 78.3734 113.409 78.548 112.914 78.4051C112.832 78.3443 112.792 78.2596 112.792 78.1564C112.792 78.0744 112.847 77.9104 112.961 77.6617C113.075 77.4157 113.12 77.22 113.102 77.0745C113.102 76.7041 112.885 76.3311 112.45 75.9607C112.162 75.7147 111.915 75.5904 111.709 75.5904C110.576 75.5904 109.771 76.2597 109.297 77.6009C108.968 78.548 108.801 79.8257 108.801 81.4315V82.4976C108.801 82.8177 108.812 83.1113 108.833 83.3785C108.833 84.1827 108.979 84.7991 109.267 85.233C109.659 85.8097 110.3 86.098 111.185 86.098C112.607 86.098 113.907 85.6245 115.082 84.6774C116.115 83.6483 117.145 82.6166 118.178 81.5876C118.382 81.5876 118.554 81.6907 118.686 81.8971C118.821 82.1034 118.887 82.3098 118.887 82.5161V82.5108Z" fill="white"/>
<path id="Vector_51" d="M130.549 87.516C130.549 87.7012 130.43 87.8599 130.194 87.9948C129.956 88.1297 129.755 88.1959 129.59 88.1959H123.156C123.01 88.1959 122.806 88.1191 122.539 87.9657C122.272 87.8096 122.136 87.6403 122.136 87.4551C122.467 86.9181 122.767 86.3176 123.034 85.6483C123.302 84.979 123.437 84.0478 123.437 82.8521V70.8313C123.437 70.0059 123.302 69.3366 123.034 68.8208C122.767 68.3049 122.489 67.7811 122.2 67.2441C122.2 67.0166 122.266 66.8473 122.401 66.7335C122.534 66.6198 122.859 66.5642 123.376 66.5642H129.376C129.707 66.5642 129.974 66.6303 130.181 66.7653C130.385 66.8975 130.491 67.1012 130.491 67.3658C130.491 67.5721 130.279 67.9636 129.855 68.5403C129.434 69.117 129.222 69.8789 129.222 70.8286L129.191 82.9129C129.191 84.479 129.5 85.6827 130.12 86.5292C130.409 86.9208 130.554 87.2514 130.554 87.5186L130.549 87.516Z" fill="white"/>
<path id="Vector_52" d="M156.284 85.6614C156.284 86.5476 156.131 87.1667 155.821 87.5159C155.408 87.9682 154.624 88.1957 153.469 88.1957H149.821C149.635 88.1957 149.413 88.119 149.156 87.9656C148.899 87.8095 148.769 87.6508 148.769 87.4868C148.769 87.1137 148.997 86.7355 149.45 86.3413C149.905 85.9498 150.13 85.4366 150.13 84.7964C150.13 83.2303 149.985 81.4182 149.696 79.3574C149.635 78.9235 149.333 77.1114 148.799 73.9184C148.756 73.5877 148.674 73.4237 148.55 73.4237C148.425 73.4237 148.282 73.5877 148.115 73.9184C147.559 75.0506 147.186 75.7834 147.003 76.1114C146.672 76.7093 146.394 77.2331 146.169 77.6881C145.261 79.4605 144.684 80.4922 144.437 80.7806C144.106 81.1721 143.757 81.3679 143.386 81.3679C142.788 81.3679 142.181 80.8414 141.562 79.7912C141.088 78.8838 140.717 78.1749 140.447 77.6564C139.891 76.6273 139.478 75.9051 139.21 75.4924C138.736 74.7305 138.403 74.1803 138.204 73.839C138.008 73.5004 137.849 73.3284 137.725 73.3284C137.6 73.3284 137.529 73.4845 137.508 73.7914C137.137 77.9738 136.952 81.9605 136.952 85.7514C136.952 85.9577 137.126 86.2566 137.479 86.6482C137.828 87.0397 138.006 87.3704 138.006 87.6375C138.006 87.9259 137.767 88.1217 137.293 88.2248C137.089 88.2645 136.705 88.2857 136.149 88.2857C135.262 88.2857 134.664 88.1217 134.354 87.791C134.147 87.5635 134.044 87.2037 134.044 86.709V86.3069C134.044 84.7196 134.19 82.7832 134.478 80.4975C134.478 80.4764 134.756 78.5399 135.313 74.6882C135.622 72.5454 135.776 71.1142 135.776 70.392C135.776 69.6698 135.509 68.9503 134.971 68.2889C134.704 67.9609 134.568 67.6302 134.568 67.3022C134.568 66.8683 134.868 66.6514 135.466 66.6514H139.147C140.095 66.6514 140.849 67.0641 141.405 67.8868C141.879 68.7122 142.353 69.527 142.827 70.3285C143.24 71.0904 143.662 71.8523 144.096 72.6168C144.488 73.2332 144.869 73.5454 145.242 73.5454C145.571 73.5454 146.005 73.0004 146.542 71.9052C146.913 71.101 147.191 70.5137 147.377 70.1433C148.16 68.6196 148.581 67.8048 148.645 67.7016C149.161 66.9397 149.76 66.5562 150.44 66.5562H154.277C154.587 66.5562 154.833 66.6038 155.019 66.6964C155.204 66.7889 155.297 66.9583 155.297 67.2069C155.297 67.4556 155.117 67.7783 154.756 68.1804C154.394 68.5826 154.214 69.1222 154.214 69.8021C154.214 70.3788 154.388 71.6989 154.74 73.757C155.236 76.6828 155.564 78.7013 155.728 79.815C156.102 82.3679 156.284 84.3175 156.284 85.6561V85.6614Z" fill="white"/>
</g>
</g>
</g>
</g>
<defs>
<linearGradient id="paint0_linear_151_386" x1="78.8399" y1="44.2314" x2="78.8399" y2="5.49976" gradientUnits="userSpaceOnUse">
<stop stop-color="#776B5E" stop-opacity="0.5"/>
<stop offset="0.16" stop-color="#776B5E" stop-opacity="0.5"/>
<stop offset="0.25" stop-color="#776B5E" stop-opacity="0.56"/>
<stop offset="0.71" stop-color="#776B5E" stop-opacity="0.88"/>
<stop offset="0.95" stop-color="#776B5E"/>
</linearGradient>
<linearGradient id="paint1_linear_151_386" x1="78.8293" y1="44.2156" x2="78.8293" y2="4.50781" gradientUnits="userSpaceOnUse">
<stop stop-color="#72A4CF"/>
<stop offset="0.16" stop-color="#72A4CF"/>
<stop offset="0.17" stop-color="#70A2CD"/>
<stop offset="0.54" stop-color="#416694"/>
<stop offset="0.81" stop-color="#234071"/>
<stop offset="0.95" stop-color="#183264"/>
</linearGradient>
<clipPath id="clip0_151_386">
<rect width="158" height="90" fill="white"/>
</clipPath>
</defs>
</svg>
