<svg width="208" height="57" viewBox="0 0 208 57" fill="none" xmlns="http://www.w3.org/2000/svg">
<g id="Holding Graz Logo 1" clip-path="url(#clip0_151_649)">
<g id="Ebene_1">
<g id="Group">
<path id="Vector" d="M7.78746 15.1585C7.78746 15.1585 11.2141 14.3678 12.1945 14.0149C13.0429 13.711 13.7329 13.064 14.063 12.234C14.0861 12.1785 14.1059 12.1229 14.1257 12.0707C14.4954 11.061 14.8982 9.47619 15.2877 7.67901C15.2877 7.67247 15.3141 7.55157 15.3141 7.55157C15.8324 5.14335 16.3342 2.36589 16.727 0.0295588C16.727 0.0164884 16.7171 0.00341797 16.7039 0.00341797C7.65541 0.428206 0.415947 7.60712 0 16.5669C0 16.58 0.0132047 16.593 0.0264093 16.5898C2.43956 16.1911 5.31818 15.6846 7.78746 15.1585Z" fill="#62A731"/>
<path id="Vector_2" d="M27.4822 15.1583C27.4822 15.1583 24.0556 14.3675 23.0751 14.0146C22.2267 13.7108 21.5368 13.0638 21.2066 12.2338C21.1835 12.1782 21.1637 12.1227 21.1439 12.0704C20.7709 11.0607 20.3715 9.47594 19.9819 7.67876C19.9819 7.67223 19.9555 7.55133 19.9555 7.55133C19.4339 5.1333 18.9321 2.34604 18.5393 0.00317383C27.6109 0.418159 34.8735 7.61668 35.2729 16.5993C32.8532 16.2007 29.9646 15.6909 27.4855 15.1616L27.4822 15.1583Z" fill="#62A731"/>
<path id="Vector_3" d="M7.78746 19.7199C7.78746 19.7199 11.2141 20.5107 12.1945 20.8636C13.0429 21.1675 13.7329 21.8145 14.063 22.6444C14.0861 22.7 14.1059 22.7555 14.1257 22.8078C14.4954 23.8175 14.8982 25.399 15.2877 27.1995C15.2877 27.2093 15.3141 27.3302 15.3141 27.3302C15.8324 29.7384 16.3342 32.5158 16.727 34.8489C16.727 34.862 16.7171 34.875 16.7039 34.875C7.65541 34.4503 0.415947 27.2713 0 18.3116C0 18.2952 0.0132047 18.2854 0.0264093 18.2887C2.43956 18.6874 5.31818 19.1938 7.78746 19.7199Z" fill="#62A731"/>
<path id="Vector_4" d="M27.4823 19.72C27.4823 19.72 24.0557 20.5108 23.0752 20.8637C22.2268 21.1676 21.5369 21.8145 21.2068 22.6445C21.1837 22.7001 21.1639 22.7556 21.144 22.8079C20.771 23.8176 20.3716 25.3991 19.982 27.1995C19.982 27.2094 19.9556 27.3303 19.9556 27.3303C19.4373 29.7385 18.9389 32.5159 18.5427 34.849C18.5427 34.8621 18.5526 34.8751 18.5658 34.8751C27.6143 34.4471 34.8538 27.2714 35.2697 18.3084C35.2697 18.2921 35.2565 18.2823 35.2433 18.2855C32.8302 18.6842 29.9516 19.1907 27.4823 19.7167V19.72Z" fill="#62A731"/>
<path id="Vector_5" d="M141.475 29.2809H143.182C143.743 29.2809 144.202 28.8267 144.202 28.2712V8.39763C144.202 7.84214 143.743 7.38794 143.182 7.38794H141.072C140.666 7.38794 140.296 7.62647 140.138 7.99571L133.202 23.8011L126.266 7.99571C126.105 7.62647 125.738 7.38794 125.332 7.38794H123.223C122.661 7.38794 122.203 7.84214 122.203 8.39763V28.2679C122.203 28.8234 122.661 29.2776 123.223 29.2776H124.929C125.491 29.2776 125.949 28.8234 125.949 28.2679V16.4229L131.446 28.6731C131.608 29.0391 131.974 29.2743 132.38 29.2743H134.034C134.437 29.2743 134.803 29.0391 134.965 28.6731L140.461 16.4229V28.2679C140.461 28.8234 140.92 29.2776 141.481 29.2776L141.475 29.2809Z" fill="#1D1D1B"/>
<path id="Vector_6" d="M157.317 12.5737C152.141 12.5737 148.665 16.0341 148.665 21.1839C148.665 26.3336 152.141 29.7842 157.317 29.7842C162.493 29.7842 165.97 26.4087 165.97 21.1839C165.97 15.959 162.493 12.5737 157.317 12.5737ZM157.317 26.1964C154.366 26.1964 152.606 24.324 152.606 21.1839C152.606 18.0437 154.369 16.1714 157.317 16.1714C160.265 16.1714 162.028 17.9979 162.028 21.1839C162.028 24.3698 160.311 26.1964 157.317 26.1964Z" fill="#1D1D1B"/>
<path id="Vector_7" d="M178.382 12.5736H178.375C176.791 12.5736 175.54 12.9265 174.067 13.8741V7.3422C174.067 6.71482 173.552 6.20508 172.919 6.20508H171.275C170.641 6.20508 170.126 6.71482 170.126 7.3422V28.2842C170.126 28.9116 170.641 29.4214 171.275 29.4214H172.753C173.268 29.4214 173.708 29.0848 173.849 28.6175C175.315 29.5259 176.873 29.7612 178.088 29.7612C182.905 29.7612 186.018 26.3858 186.018 21.1609C186.018 18.5533 185.38 16.4751 184.126 14.9851C182.802 13.4101 180.815 12.5802 178.382 12.5802V12.5736ZM174.067 23.4613V20.4812C174.067 18.4749 175.104 16.8607 176.748 16.3379C177.194 16.1974 177.583 16.1745 178.016 16.1745C179.907 16.1745 182.079 16.7431 182.079 21.1641C182.079 23.0365 181.508 26.1766 177.669 26.1766H176.794C175.285 26.1668 174.067 24.9546 174.067 23.4613Z" fill="#1D1D1B"/>
<path id="Vector_8" d="M192.435 6.22803C191.25 6.22803 190.289 7.15276 190.289 8.28988C190.289 9.42701 191.253 10.3485 192.435 10.3485C193.617 10.3485 194.581 9.42374 194.581 8.28988C194.581 7.15603 193.617 6.22803 192.435 6.22803Z" fill="#1D1D1B"/>
<path id="Vector_9" d="M192.435 6.31299C191.25 6.31299 190.289 7.23772 190.289 8.37484C190.289 9.51197 191.253 10.4367 192.435 10.4367C193.617 10.4367 194.581 9.51197 194.581 8.37484C194.581 7.23772 193.617 6.31299 192.435 6.31299Z" fill="#1D1D1B"/>
<path id="Vector_10" d="M193.31 12.9495H191.662C191.029 12.9495 190.514 13.4592 190.514 14.0866V28.281C190.514 28.9084 191.029 29.4182 191.662 29.4182H193.31C193.944 29.4182 194.459 28.9084 194.459 28.281V14.0866C194.459 13.4592 193.947 12.9495 193.31 12.9495Z" fill="#1D1D1B"/>
<path id="Vector_11" d="M207.66 26.3728C207.445 26.1604 207.155 26.0428 206.851 26.0428H206.848C205.702 26.0558 204.91 25.7748 204.408 25.2193C203.88 24.6279 203.613 23.6542 203.613 22.3242V7.33903C203.613 6.71165 203.101 6.2019 202.464 6.2019H200.82C200.186 6.2019 199.671 6.71165 199.671 7.33903V22.321C199.671 24.6998 200.318 26.5427 201.596 27.8007C202.784 28.9705 204.451 29.5652 206.554 29.5652C206.663 29.5652 206.775 29.5652 206.888 29.5587C207.508 29.5424 208 29.0392 208 28.4248V27.1766C208 26.876 207.878 26.5852 207.663 26.3728H207.66Z" fill="#1D1D1B"/>
<path id="Vector_12" d="M64.145 25.7976C62.2897 28.196 59.3319 29.6468 55.4299 29.6468C48.57 29.6468 44.4568 24.9284 44.4568 18.4455C44.4568 11.9626 48.4446 7.27686 55.4299 7.27686C58.972 7.27686 61.7549 8.50547 63.6366 10.5543L62.4977 11.6097C60.7382 9.82885 58.3778 8.83223 55.4398 8.83223C49.7981 8.83223 46.3153 12.6749 46.3153 18.4455C46.3153 24.2161 49.7585 28.098 55.4299 28.098C58.4735 28.098 60.7613 27.0752 62.3293 25.265V19.1611H55.4332V17.6776H64.1483V25.7976H64.145Z" fill="#1D1D1B"/>
<path id="Vector_13" d="M78.9145 14.8774H78.4755C76.508 14.8774 74.4315 15.789 72.9361 18.0633V29.2744H71.1436V13.8219H72.7545L72.8272 16.5504C74.3523 14.5212 76.4749 13.4298 78.6999 13.4167H78.9112V14.8741L78.9145 14.8774Z" fill="#1D1D1B"/>
<path id="Vector_14" d="M83.9817 14.9493C85.5959 14.0606 87.7087 13.4136 89.7851 13.4136C93.2216 13.4136 96.7176 15.3055 96.7176 19.1449V29.2778H95.1066L95.0406 26.9578C93.3438 28.8791 91.0726 29.6601 88.7915 29.6601C85.629 29.6601 82.6909 27.9348 82.6909 24.592C82.6909 21.0009 85.9459 19.4913 89.389 19.4913C91.3598 19.4913 93.4065 19.9847 94.925 20.8474V19.1123C94.9052 16.2041 92.1587 14.7206 89.4913 14.7206C87.6757 14.7206 85.8039 15.3284 84.4735 16.0669L83.985 14.9493H83.9817ZM94.9283 22.0629C93.5386 21.1709 91.581 20.6611 89.6762 20.6611C86.8834 20.6611 84.3778 21.7982 84.3778 24.5005C84.3778 27.0068 86.6457 28.304 89.2074 28.304C91.3268 28.304 93.3768 27.6113 94.9283 25.703V22.0662V22.0629Z" fill="#1D1D1B"/>
<path id="Vector_15" d="M104.294 27.9052H114.102V29.2743H101.967V28.4673L111.56 15.1877H102.455V13.8186H113.917V14.6094L104.294 27.9052Z" fill="#1D1D1B"/>
<path id="Vector_16" d="M60.9825 44.4721H55.7898V53.788H60.9825V52.4483H57.2291V49.514H60.8703V48.1743H57.2291V45.8118H60.9825V44.4721ZM62.5935 47.9096V53.788H63.9734V47.9096H62.5935ZM62.3954 45.4753C62.3954 45.9785 62.7751 46.3543 63.2834 46.3543C63.7918 46.3543 64.1715 45.9785 64.1715 45.4753C64.1715 44.9721 63.7918 44.5963 63.2834 44.5963C62.7751 44.5963 62.3954 44.9721 62.3954 45.4753ZM65.7098 53.788H67.0897V50.9648C67.0897 49.0664 67.7235 48.9814 68.3474 48.9814C68.869 48.9814 69.4368 49.0239 69.4368 50.5172V53.7848H70.8167V50.1806C70.8167 49.2722 70.6748 48.867 70.4503 48.5468C70.2687 48.2952 69.8033 47.7528 68.7007 47.7528C68.3606 47.7528 67.6839 47.7953 67.0897 48.4488V47.9064H65.7098V53.7848V53.788ZM76.7324 51.8046C76.607 52.0301 76.4221 52.2653 76.1811 52.4483C75.8972 52.6575 75.6166 52.7424 75.2337 52.7424C74.8937 52.7424 74.5008 52.6869 74.174 52.3634C73.8769 52.0693 73.692 51.5955 73.6656 51.174H77.9274V51.0073C77.9274 50.393 77.8581 49.3049 77.0955 48.5207C76.7423 48.158 76.1349 47.7528 75.1908 47.7528C74.3424 47.7528 73.692 48.0599 73.2002 48.5468C72.5795 49.1742 72.256 50.0564 72.256 50.9648C72.256 51.8732 72.5663 52.6575 73.1308 53.2129C73.6953 53.7717 74.3457 53.9645 75.1346 53.9645C75.7718 53.9645 76.4056 53.824 76.8843 53.5168C77.2639 53.2783 77.6303 52.8895 77.8845 52.4418L76.7291 51.7981L76.7324 51.8046ZM73.768 50.0597C73.8373 49.7656 73.9924 49.4846 74.1905 49.3049C74.3754 49.1219 74.6857 48.9259 75.1644 48.9259C75.6166 48.9259 75.9137 49.0925 76.0953 49.2624C76.3066 49.4585 76.4617 49.7395 76.5178 50.0597H73.7647H73.768ZM89.3429 53.788H90.8944L86.4345 43.9264L81.7502 53.788H83.3017L84.3317 51.5399H88.3558L89.3429 53.788ZM84.9259 50.2002L86.3784 47.0405L87.7748 50.2002H84.9226H84.9259ZM93.2085 53.1051C93.8292 53.8567 94.6643 53.971 94.9879 53.971C96.4008 53.971 97.8665 52.798 97.8665 50.8145C97.8665 48.9422 96.5427 47.7561 94.9747 47.7561C94.3805 47.7561 93.7169 47.9521 93.2085 48.5501V47.9096H91.8287V56.987H93.2085V53.1051ZM94.803 48.9814C95.8066 48.9814 96.4569 49.8212 96.4569 50.8668C96.4569 51.9124 95.8066 52.7391 94.803 52.7391C93.9282 52.7391 93.1227 52.1085 93.1227 50.8799C93.1227 49.6513 93.9282 48.9781 94.803 48.9781V48.9814ZM100.689 53.1051C101.31 53.8567 102.145 53.971 102.468 53.971C103.881 53.971 105.347 52.798 105.347 50.8145C105.347 48.9422 104.023 47.7561 102.455 47.7561C101.861 47.7561 101.197 47.9521 100.689 48.5501V47.9096H99.3091V56.987H100.689V53.1051ZM102.283 48.9814C103.287 48.9814 103.937 49.8212 103.937 50.8668C103.937 51.9124 103.287 52.7391 102.283 52.7391C101.409 52.7391 100.603 52.1085 100.603 50.8799C100.603 49.6513 101.409 48.9781 102.283 48.9781V48.9814ZM114.333 48.5926C113.768 47.8672 113.006 47.7561 112.567 47.7561C110.999 47.7561 109.675 48.9291 109.675 50.8439C109.675 52.4647 110.718 53.971 112.553 53.971C112.976 53.971 113.725 53.873 114.333 53.177V53.7913H115.713V43.6095H114.333V48.5958V48.5926ZM112.738 48.9814C113.613 48.9814 114.419 49.5957 114.419 50.8831C114.419 52.1706 113.613 52.7424 112.738 52.7424C111.735 52.7424 111.088 51.8896 111.088 50.8701C111.088 49.8506 111.738 48.9847 112.738 48.9847V48.9814ZM121.628 51.8046C121.503 52.0301 121.318 52.2653 121.077 52.4483C120.796 52.6575 120.512 52.7424 120.13 52.7424C119.79 52.7424 119.397 52.6869 119.07 52.3634C118.773 52.0693 118.588 51.5955 118.562 51.174H122.823V51.0073C122.823 50.393 122.754 49.3049 121.991 48.5207C121.638 48.158 121.034 47.7528 120.087 47.7528C119.238 47.7528 118.588 48.0599 118.096 48.5468C117.475 49.1742 117.152 50.0564 117.152 50.9648C117.152 51.8732 117.462 52.6575 118.027 53.2129C118.591 53.7717 119.242 53.9645 120.031 53.9645C120.664 53.9645 121.301 53.824 121.78 53.5168C122.16 53.2783 122.526 52.8895 122.78 52.4418L121.625 51.7981L121.628 51.8046ZM118.664 50.0597C118.733 49.7656 118.888 49.4846 119.086 49.3049C119.271 49.1219 119.582 48.9259 120.06 48.9259C120.512 48.9259 120.81 49.0925 120.991 49.2624C121.202 49.4585 121.358 49.7395 121.414 50.0597H118.661H118.664ZM124.266 53.788H125.646V50.7426C125.646 50.3505 125.646 49.7918 126.025 49.3866C126.293 49.1056 126.59 49.0664 126.887 49.0664C127.029 49.0664 127.283 49.0794 127.594 49.2755L128.158 48.0338C127.778 47.8116 127.409 47.7561 127.072 47.7561C126.762 47.7561 126.494 47.7985 126.224 47.9521C126.025 48.0632 125.801 48.2593 125.646 48.439V47.9096H124.266V53.788ZM133.843 44.4721H132.407V53.788H133.843V49.501H137.88V53.788H139.319V44.4721H137.88V48.1612H133.843V44.4721ZM144.188 47.7561C142.396 47.7561 141.013 49.0402 141.013 50.857C141.013 52.6738 142.396 53.971 144.188 53.971C145.981 53.971 147.364 52.6607 147.364 50.857C147.364 49.0533 145.984 47.7561 144.188 47.7561ZM144.188 52.7424C143.102 52.7424 142.422 52.0007 142.422 50.8701C142.422 49.5271 143.314 48.9847 144.188 48.9847C145.063 48.9847 145.955 49.5304 145.955 50.8701C145.955 52.0007 145.278 52.7424 144.188 52.7424ZM148.804 43.6062V53.788H150.183V43.6062H148.804ZM156.284 48.5926C155.719 47.8672 154.957 47.7561 154.518 47.7561C152.95 47.7561 151.626 48.9291 151.626 50.8439C151.626 52.4647 152.669 53.971 154.505 53.971C154.927 53.971 155.677 53.873 156.284 53.177V53.7913H157.664V43.6095H156.284V48.5958V48.5926ZM154.689 48.9814C155.564 48.9814 156.37 49.5957 156.37 50.8831C156.37 52.1706 155.564 52.7424 154.689 52.7424C153.686 52.7424 153.036 51.8896 153.036 50.8701C153.036 49.8506 153.686 48.9847 154.689 48.9847V48.9814ZM159.417 47.9096V53.788H160.797V47.9096H159.417ZM159.219 45.4753C159.219 45.9785 159.598 46.3543 160.107 46.3543C160.615 46.3543 160.995 45.9785 160.995 45.4753C160.995 44.9721 160.615 44.5963 160.107 44.5963C159.598 44.5963 159.219 44.9721 159.219 45.4753ZM162.536 53.788H163.916V50.9648C163.916 49.0664 164.55 48.9814 165.174 48.9814C165.696 48.9814 166.26 49.0239 166.26 50.5172V53.7848H167.64V50.1806C167.64 49.2722 167.498 48.867 167.274 48.5468C167.092 48.2952 166.627 47.7528 165.524 47.7528C165.184 47.7528 164.507 47.7953 163.913 48.4488V47.9064H162.533V53.7848L162.536 53.788ZM173.741 48.5501C173.232 47.9488 172.569 47.7561 171.974 47.7561C171.255 47.7561 170.548 47.9652 169.957 48.5664C169.492 49.0272 169.083 49.7689 169.083 50.8439C169.083 51.8209 169.436 52.6182 169.971 53.177C170.535 53.7619 171.169 53.971 171.931 53.971C172.328 53.971 173.103 53.9285 173.741 53.1345V53.9024C173.741 54.337 173.741 54.9513 173.288 55.3826C173.12 55.5493 172.78 55.7747 172.202 55.7747C171.624 55.7747 171.298 55.5525 171.129 55.3696C170.918 55.1474 170.746 54.7683 170.69 54.4481H169.35C169.449 55.1604 169.786 55.8434 170.225 56.278C170.789 56.8367 171.483 57.0034 172.172 57.0034C173.146 57.0034 173.767 56.6831 174.15 56.376C174.969 55.6931 175.124 54.6997 175.124 53.3175V47.9129H173.744V48.5533L173.741 48.5501ZM172.146 48.9814C172.542 48.9814 172.922 49.0664 173.262 49.3997C173.615 49.7362 173.826 50.2231 173.826 50.8799C173.826 51.3275 173.714 51.8308 173.305 52.2621C172.965 52.6117 172.585 52.7359 172.146 52.7359C171.707 52.7359 171.341 52.5692 171.086 52.3438C170.72 52.0235 170.492 51.4484 170.492 50.8635C170.492 50.2362 170.746 49.6905 171.1 49.367C171.41 49.0729 171.763 48.9749 172.143 48.9749L172.146 48.9814ZM185.192 50.2525H187.536C187.48 50.7818 187.269 51.3275 186.747 51.8307C186.14 52.4189 185.463 52.6542 184.644 52.6542C183.74 52.6542 182.938 52.4026 182.287 51.7164C181.667 51.0596 181.313 50.1218 181.313 49.1873C181.313 48.1808 181.693 47.1875 182.314 46.5732C182.779 46.1125 183.571 45.6092 184.796 45.6092C185.374 45.6092 185.938 45.7073 186.46 46.0144C186.912 46.266 187.335 46.6843 187.619 47.0764L188.761 46.2791C188.493 45.8608 188.011 45.3152 187.236 44.8838C186.503 44.4787 185.628 44.2989 184.78 44.2989C183.327 44.2989 182.043 44.8838 181.237 45.6942C180.462 46.4621 179.871 47.7201 179.871 49.1742C179.871 50.5139 180.349 51.7589 181.267 52.6934C182.129 53.5724 183.103 53.9612 184.469 53.9612C185.542 53.9612 186.701 53.7096 187.671 52.7751C188.589 51.8961 189.068 50.5956 189.068 49.0043V48.9357H185.186V50.246L185.192 50.2525ZM190.629 53.788H192.009V50.7426C192.009 50.3505 192.009 49.7918 192.389 49.3866C192.656 49.1056 192.953 49.0664 193.25 49.0664C193.392 49.0664 193.647 49.0794 193.957 49.2755L194.521 48.0338C194.142 47.8116 193.772 47.7561 193.435 47.7561C193.125 47.7561 192.858 47.7985 192.587 47.9521C192.389 48.0632 192.164 48.2593 192.009 48.439V47.9096H190.629V53.788ZM199.364 48.5926C198.8 47.8672 198.037 47.7561 197.598 47.7561C196.03 47.7561 194.706 48.9291 194.706 50.8439C194.706 52.4647 195.749 53.971 197.585 53.971C198.007 53.971 198.757 53.873 199.364 53.177V53.7913H200.744V47.9129H199.364V48.5958V48.5926ZM197.766 48.9814C198.641 48.9814 199.447 49.5957 199.447 50.8831C199.447 52.1706 198.641 52.7424 197.766 52.7424C196.763 52.7424 196.116 51.8896 196.116 50.8701C196.116 49.8506 196.766 48.9847 197.766 48.9847V48.9814ZM208 47.9096H202.273V49.1644H205.306L201.454 53.788H207.703V52.5333H204.174L207.997 47.9096H208Z" fill="#1D1D1B"/>
</g>
</g>
</g>
<defs>
<clipPath id="clip0_151_649">
<rect width="208" height="57" fill="white"/>
</clipPath>
</defs>
</svg>
