<svg width="87" height="87" viewBox="0 0 87 87" fill="none" xmlns="http://www.w3.org/2000/svg">
<g id="SauberTEX Logo" clip-path="url(#clip0_151_368)">
<g id="Ebene_1">
<path id="Vector" fill-rule="evenodd" clip-rule="evenodd" d="M43.5 0C67.5237 0 87 19.4763 87 43.5C87 67.5237 67.5237 87 43.5 87C19.4763 87 0 67.5237 0 43.5C0 19.4763 19.4763 0 43.5 0Z" fill="#00569D"/>
<path id="Vector_2" d="M1.94643 45.805C1.94643 47.7513 3.48738 48.0605 5.23362 48.0605H8.55718C10.3294 48.0605 12.1146 47.8994 12.1146 45.7062V45.1267C12.1146 43.6118 11.1376 42.9335 8.80405 42.9335H5.2596C3.38863 42.9335 3.06121 42.5775 3.06121 41.5173C3.06121 40.0517 3.87976 39.927 6.18989 39.927H7.46059C10.6023 39.927 10.7478 40.1869 10.7712 41.6031H11.8963V41.2938C11.8963 39.7035 11.1506 38.9421 8.18039 38.9421H5.60261C3.13397 38.9421 1.93604 39.3969 1.93604 41.4316C1.93604 43.7963 3.13397 44.0197 6.78756 44.0197H9.0613C10.5529 44.0197 10.992 44.303 10.992 45.423C10.992 46.7041 10.4775 47.0731 8.74428 47.0731H5.02833C3.53675 47.0731 3.07421 46.6547 3.07421 45.779V45.1501H1.94903V45.8024L1.94643 45.805Z" fill="white"/>
<path id="Vector_3" d="M19.5984 46.2726C19.5984 47.06 18.8656 47.1977 16.9582 47.1977H15.5654C14.1232 47.1977 13.8789 46.9015 13.8789 46.1998V46.0024C13.8789 45.215 14.2583 45.0175 15.6148 45.0175H17.2285C18.8422 45.0175 19.5984 45.1292 19.5984 45.992V46.2752V46.2726ZM19.5984 47.9591H20.6482V43.7468C20.6482 41.8732 19.3281 41.5796 17.374 41.5796H15.7109C13.8295 41.5796 13.1071 42.0473 13.1071 43.1933V43.5025H14.157V43.2817C14.157 42.7645 14.4142 42.4449 15.7343 42.4449H17.2752C18.889 42.4449 19.5984 42.593 19.5984 43.726V44.9084H19.575C19.2086 44.3055 18.7201 44.1574 17.3506 44.1574H15.6641C13.8321 44.1574 12.8291 44.3289 12.8291 45.7581V46.1765C12.8291 47.3588 13.2449 48.0604 14.8326 48.0604H17.3506C18.9643 48.0604 19.2943 47.8993 19.575 47.3328H19.5984V47.9617V47.9591Z" fill="white"/>
<path id="Vector_4" d="M28.3295 47.9591H29.3065V41.6758H28.2567V45.2488C28.2567 46.7274 27.6954 47.1951 25.2372 47.1951H24.9695C22.9296 47.1951 22.6724 46.5923 22.6724 45.6672V41.6758H21.6226V45.927C21.6226 47.06 22.2462 48.0579 24.2133 48.0579H25.7907C27.0977 48.0579 27.9163 47.8474 28.3087 46.8755H28.3321V47.9591H28.3295Z" fill="white"/>
<path id="Vector_5" d="M30.4005 47.9592H31.3776V46.9614H31.401C31.7076 47.7253 32.5626 48.058 33.6617 48.058H35.1273C37.0347 48.058 38.3652 47.5772 38.3652 45.41V44.3004C38.3652 42.2917 37.596 41.5771 35.065 41.5771H33.4643C32.2663 41.5771 31.692 41.8604 31.4712 42.5126H31.4478V39.0383H30.3979V47.9566L30.4005 47.9592ZM37.3179 45.397C37.3179 46.6157 36.9385 47.1952 35.2287 47.1952H33.5188C31.9545 47.1952 31.453 46.53 31.453 45.384V44.1887C31.453 42.6867 32.3209 42.4399 33.7371 42.4399H35.1559C36.5981 42.4399 37.3179 42.7101 37.3179 44.1653V45.397Z" fill="white"/>
<path id="Vector_6" d="M38.8979 45.4828C38.8979 47.7981 40.4623 48.058 41.8317 48.058H43.7391C45.6932 48.058 46.8807 47.6266 46.8807 46.1844V46.0623H45.8309C45.7686 47.0237 45.2333 47.1952 43.9132 47.1952H42.471C40.639 47.1952 39.953 46.8263 39.953 45.397V45.0021H46.8807V44.3004C46.8807 42.0579 45.5243 41.5771 43.6429 41.5771H41.9565C40.4649 41.5771 38.9005 41.837 38.9005 44.1159V45.4828H38.8979ZM45.8283 44.1419H39.9504C40.0491 42.7127 40.4389 42.4425 42.102 42.4425H43.6429C45.3528 42.4425 45.8309 43.0843 45.8309 43.7236V44.1419H45.8283Z" fill="white"/>
<path id="Vector_7" d="M47.7278 47.9592H48.7776V43.9678C48.7776 43.1545 49.3155 42.4399 50.4277 42.4399H51.0747C52.9457 42.4399 53.2627 42.6867 53.2627 44.2381V44.5083H54.2398V43.7573C54.2398 42.2164 53.5927 41.5771 51.6256 41.5771H50.6356C49.9158 41.5771 49.1206 41.7746 48.7282 42.588H48.7048V41.6759H47.7278V47.9592Z" fill="white"/>
<path id="Vector_8" d="M58.291 47.959H59.4889V40.0256H63.9611V39.0408H53.8188V40.0256H58.291V47.959Z" fill="white"/>
<path id="Vector_9" d="M64.4548 47.959H73.1938V46.9742H65.6528V43.8585H72.8508V42.8711H65.6528V40.0256H73.1444V39.0408H64.4548V47.959Z" fill="white"/>
<path id="Vector_10" fill-rule="evenodd" clip-rule="evenodd" d="M43.5001 53.7852C51.0827 53.7852 57.2309 59.9334 57.2309 67.516C57.2309 75.0986 51.0827 81.2468 43.5001 81.2468C35.9175 81.2468 29.7693 75.0986 29.7693 67.516C29.7693 59.9334 35.9175 53.7852 43.5001 53.7852Z" fill="white"/>
<path id="Vector_11" fill-rule="evenodd" clip-rule="evenodd" d="M43.4999 55.0923C50.3627 55.0923 55.9237 60.6558 55.9237 67.516C55.9237 74.3762 50.3601 79.9398 43.4999 79.9398C36.6397 79.9398 31.0762 74.3762 31.0762 67.516C31.0762 60.6558 36.6397 55.0923 43.4999 55.0923Z" fill="white"/>
<path id="Vector_12" d="M52.148 58.8678C49.934 56.6538 46.8781 55.287 43.5 55.287C40.1218 55.287 37.0659 56.6564 34.852 58.8678C32.638 61.0818 31.2711 64.1377 31.2711 67.5159C31.2711 70.894 32.6406 73.9499 34.852 76.1639C37.0659 78.3779 40.1218 79.7447 43.5 79.7447C46.8781 79.7447 49.934 78.3753 52.148 76.1639C54.362 73.9499 55.7288 70.894 55.7288 67.5159C55.7288 64.1377 54.3594 61.0818 52.148 58.8678ZM43.5 54.8972C46.9847 54.8972 50.1393 56.3108 52.4235 58.5924C54.7076 60.8739 56.1186 64.0312 56.1186 67.5159C56.1186 71.0005 54.705 74.1552 52.4235 76.4393C50.1393 78.7235 46.9847 80.1345 43.5 80.1345C40.0153 80.1345 36.8606 78.7209 34.5765 76.4393C32.2924 74.1552 30.8813 71.0005 30.8813 67.5159C30.8813 64.0312 32.295 60.8765 34.5765 58.5924C36.8606 56.3082 40.0153 54.8972 43.5 54.8972Z" fill="#00569D"/>
<path id="Vector_13" fill-rule="evenodd" clip-rule="evenodd" d="M55.8041 68.1135C45.7997 78.5364 38.9888 67.573 31.835 72.0763C31.9675 72.409 32.113 72.7338 32.2715 73.0534C34.3088 77.1358 38.5237 79.9396 43.396 79.9396C50.0561 79.9396 55.4923 74.6983 55.8041 68.1135Z" fill="#00569D"/>
<path id="Vector_14" fill-rule="evenodd" clip-rule="evenodd" d="M42.3203 65.5255C41.6576 65.6217 41.7901 66.6195 42.4606 66.5286C43.1076 66.4402 42.9933 65.4268 42.3203 65.5255ZM45.9219 65.5255C45.2592 65.6217 45.3918 66.6195 46.0622 66.5286C46.7092 66.4402 46.5949 65.4268 45.9219 65.5255ZM44.1029 65.5255C43.4402 65.6217 43.5728 66.6195 44.2432 66.5286C44.8902 66.4402 44.7759 65.4268 44.1029 65.5255ZM38.8875 67.3757L48.245 67.3601L47.6993 64.707C46.7898 64.6654 45.7738 64.7122 44.8539 64.7122C44.3757 64.7122 43.9002 64.7122 43.422 64.7122C42.9777 64.7122 42.4138 64.681 41.985 64.7226C41.1327 64.8057 40.5039 65.2917 40.0933 65.7022C39.8542 65.9413 39.6515 66.1674 39.4332 66.474C39.3085 66.6481 38.9551 67.1678 38.885 67.3757H38.8875ZM47.7876 61.6121C47.6447 60.9365 47.7253 60.8949 46.9821 60.8949L42.4216 60.8897C41.9565 60.8897 41.351 60.8533 40.9066 60.8897C40.4519 60.9313 40.4805 61.5315 40.8599 61.5913C41.1483 61.6355 41.8135 61.5991 42.141 61.5991C43.0089 61.5991 43.8768 61.6017 44.7447 61.6017H46.6884C47.0652 61.6095 47.0418 61.516 47.1094 61.8408C47.2549 62.5502 47.3901 63.2934 47.5538 63.995C47.0652 64.0418 46.335 64.0002 45.8205 64.0002C45.2436 64.0002 44.6538 63.9924 44.0821 64.0028C42.8971 64.0262 41.9045 63.8625 40.8729 64.2938C40.0673 64.6316 39.4203 65.3203 38.9811 65.8867C38.7342 66.2038 38.5134 66.5624 38.2977 66.9522C38.1522 67.2198 37.6844 67.9708 38.2431 68.0799C38.5056 68.1319 39.6411 68.1605 39.9763 68.1527C42.8608 68.0903 45.8413 68.1969 48.6919 68.0721C49.2558 68.0462 48.9492 67.2432 48.8634 66.8352C48.5022 65.0968 48.1514 63.3531 47.785 61.6173L47.7876 61.6121Z" fill="#00569D"/>
<path id="Vector_15" fill-rule="evenodd" clip-rule="evenodd" d="M43.4351 11.8962L34.4441 4.41235H52.5405L43.4351 11.8962ZM30.2942 7.34353L33.163 4.06934H53.8372L56.706 7.16163L47.8033 17.0492L43.4144 12.4263L39.2047 17.0492L30.2968 7.34613L30.2942 7.34353Z" fill="white"/>
<path id="Vector_16" fill-rule="evenodd" clip-rule="evenodd" d="M42.0371 20.1493H44.9631V20.2272H42.0371V20.1493ZM40.7898 34.1244L43.4351 35.4574L46.2104 34.1244L45.0644 20.1597L46.2104 15.937H40.7898L41.9358 20.1597L40.7898 34.1244Z" fill="white"/>
</g>
</g>
<defs>
<clipPath id="clip0_151_368">
<rect width="87" height="87" fill="white"/>
</clipPath>
</defs>
</svg>
